<svg viewBox="0 0 45 45" fill="none" xmlns="http://www.w3.org/2000/svg">
<rect width="45" height="45" rx="6" fill="#ECF3FF"/>
<g clip-path="url(#clip0_1294_6212)">
<path d="M34.1098 20.8066C33.5215 20.4093 31.9753 20.2397 30.8513 20.5433C30.7906 19.4203 30.2134 18.474 29.1572 17.6483L28.7663 17.3851L28.5057 17.7798C27.9935 18.5596 27.7777 19.5986 27.8542 20.543C27.9145 21.1249 28.1163 21.779 28.5057 22.2536C27.0427 23.1048 25.6943 22.9116 19.7224 22.9116H10.5021C10.4751 24.2641 10.6918 26.866 12.3414 28.984C12.5236 29.218 12.7235 29.4443 12.9403 29.6623C14.2814 31.0094 16.3077 31.9971 19.3378 32C23.9603 32.0041 27.9208 29.4981 30.3299 23.4384C31.1226 23.4514 33.2152 23.581 34.2393 21.596C34.2644 21.5626 34.4998 21.0695 34.4998 21.0695L34.1095 20.8063L34.1098 20.8066ZM16.5194 19.5696H13.9266V22.1702H16.5194V19.5696ZM19.869 19.5696H17.2762V22.1702H19.869V19.5696ZM23.2186 19.5696H20.6259V22.1702H23.2186V19.5696ZM26.5683 19.5696H23.9755V22.1702H26.5683V19.5696ZM13.1697 19.5696H10.577V22.1702H13.1697V19.5696ZM16.5194 16.285H13.9266V18.8856H16.5194V16.285ZM19.869 16.285H17.2762V18.8856H19.869V16.285ZM23.2186 16.285H20.6259V18.8856H23.2186V16.285ZM23.2186 13H20.6259V15.6006H23.2186V13Z" fill="#1D63ED"/>
</g>
<defs>
<clipPath id="clip0_1294_6212">
<rect width="24" height="19" fill="white" transform="translate(10.5 13)"/>
</clipPath>
</defs>
</svg>
