<svg viewBox="0 0 45 45" fill="none" xmlns="http://www.w3.org/2000/svg">
<rect width="45" height="45" rx="6" fill="#F2F1FF"/>
<path fill-rule="evenodd" clip-rule="evenodd" d="M22.4988 20.0555C29.2487 20.0555 34.7207 17.3195 34.7207 13.9449C34.7207 10.57 29.2487 7.83398 22.4988 7.83398C15.7493 7.83398 10.2773 10.57 10.2773 13.9449C10.2773 17.3198 15.7493 20.0555 22.4988 20.0555ZM22.548 17.0735C25.9229 17.0735 28.6585 15.7059 28.6585 14.0181C28.6585 12.3306 25.9226 10.9626 22.548 10.9626C19.173 10.9626 16.437 12.3302 16.437 14.0181C16.437 15.7055 19.173 17.0735 22.548 17.0735Z" fill="#8D6AF1"/>
<path d="M10.2777 13.9941C10.33 17.3465 15.7818 20.0559 22.4988 20.0559C29.2158 20.0559 34.6684 17.3465 34.7207 13.9941L34.7204 31.1045C34.668 34.4568 29.2158 37.1663 22.4988 37.1663C15.7818 37.1663 10.33 34.4568 10.2777 31.1045L10.2773 13.9941H10.2777ZM30.2852 21.0843C30.2276 21.0846 30.1712 21.1005 30.122 21.1303L22.6186 25.5785C22.5678 25.6087 22.5097 25.6245 22.4505 25.6241C22.3913 25.6237 22.3334 25.6072 22.2829 25.5763L14.9772 21.1391C14.9278 21.109 14.8712 21.0926 14.8134 21.0915C14.7556 21.0905 14.6985 21.1049 14.648 21.1332C14.5976 21.1615 14.5556 21.2027 14.5264 21.2527C14.4971 21.3026 14.4817 21.3594 14.4817 21.4172V31.0137C14.4816 31.0711 14.4968 31.1275 14.5256 31.1772C14.5544 31.2268 14.5958 31.268 14.6457 31.2964L18.1005 33.2705C18.1501 33.2985 18.2062 33.3132 18.2632 33.313C18.3202 33.3128 18.3762 33.2978 18.4256 33.2694C18.475 33.2409 18.5161 33.1998 18.5446 33.1504C18.5732 33.1009 18.5882 33.0449 18.5882 32.9878V28.5491C18.5884 28.4917 18.6037 28.4353 18.6327 28.3856C18.6617 28.336 18.7032 28.2949 18.7532 28.2664C18.8031 28.238 18.8597 28.2233 18.9171 28.2237C18.9746 28.2241 19.0309 28.2397 19.0804 28.2689L22.2872 30.1772C22.3367 30.2064 22.393 30.2221 22.4505 30.2227C22.508 30.2233 22.5646 30.2089 22.6148 30.1807L26.0211 28.2512C26.0707 28.2231 26.1269 28.2084 26.1839 28.2088C26.2409 28.2091 26.2968 28.2244 26.3461 28.2531C26.3953 28.2819 26.4362 28.323 26.4646 28.3725C26.4929 28.4219 26.5078 28.478 26.5078 28.535V33.0104C26.5075 33.0665 26.5219 33.1218 26.5494 33.1708C26.5768 33.2197 26.6165 33.2608 26.6646 33.2898C26.7126 33.3189 26.7674 33.3351 26.8235 33.3367C26.8796 33.3383 26.9352 33.3254 26.9849 33.2991L30.4397 31.4897C30.4924 31.4622 30.5366 31.4207 30.5673 31.3698C30.5981 31.3189 30.6143 31.2605 30.6142 31.201V21.4102C30.6141 21.3672 30.6056 21.3246 30.589 21.2849C30.5724 21.2453 30.5481 21.2092 30.5176 21.179C30.4871 21.1487 30.4508 21.1247 30.411 21.1085C30.3712 21.0923 30.3282 21.0841 30.2852 21.0843Z" fill="url(#paint0_linear_1294_6155)"/>
<defs>
<linearGradient id="paint0_linear_1294_6155" x1="22.4988" y1="16.634" x2="22.4988" y2="37.1663" gradientUnits="userSpaceOnUse">
<stop stop-color="#35198E"/>
<stop offset="1" stop-color="#8D6AF1"/>
</linearGradient>
</defs>
</svg>
