<svg viewBox="0 0 45 45" fill="none" xmlns="http://www.w3.org/2000/svg">
<g clip-path="url(#clip0_1294_6786)">
<path d="M45 0H0V45H45V0Z" fill="url(#paint0_linear_1294_6786)"/>
<path fill-rule="evenodd" clip-rule="evenodd" d="M34.4469 34.5246L22.3521 34.5122C20.8873 34.5105 19.6346 33.4215 19.5002 32.0338C19.4889 31.918 19.4827 31.797 19.4827 31.6716C19.4827 29.7726 20.7945 29.1364 21.5949 28.9249C21.8526 28.872 22.0438 28.6436 22.0438 28.3731C22.0438 28.3466 22.0421 28.3202 22.0382 28.2938C22.0191 28.1273 22.0095 27.9574 22.0095 27.7853C22.0095 26.2198 23.0884 24.5368 24.4654 23.9535C26.8566 22.9421 28.5491 24.2725 29.1667 24.8923C29.6724 25.3991 30.0673 26.0488 30.3401 26.8223C30.4099 27.0186 30.582 27.1609 30.7879 27.1913C30.9921 27.2216 31.2002 27.1367 31.3234 26.9691C31.6811 26.4853 32.2605 26.2733 32.7977 26.4308C33.4558 26.6231 33.8923 27.3043 33.9711 28.2589C33.9424 28.5503 34.1437 28.8175 34.4351 28.8675C35.2052 29.0003 36.9951 29.5408 36.9951 31.7003C36.9951 34.222 34.6646 34.5026 34.4469 34.5246ZM21.0623 37.0474L7.875 30.0364V14.9456L19.125 8.29801V13.7537L13.1979 17.5253C13.0359 17.6282 12.9375 17.8076 12.9375 18V27C12.9375 27.2098 13.0545 27.4016 13.2401 27.499L18.5068 30.2389L18.585 30.2822C18.441 30.708 18.3577 31.171 18.3577 31.6716C18.3577 31.8341 18.3662 31.9905 18.3808 32.1413C18.5693 34.0993 20.3136 35.635 22.3509 35.6372L23.6149 35.6378L21.0623 37.0474ZM29.5335 17.514L23.0625 13.7391V8.29801L34.3125 14.9456V26.1377C33.9924 25.7642 33.5903 25.4903 33.1133 25.3508C32.409 25.1455 31.6733 25.2709 31.0753 25.6708C30.7789 25.069 30.4065 24.5425 29.9633 24.0981C29.9149 24.0497 29.862 24.0126 29.8125 23.9659V18C29.8125 17.7998 29.7062 17.6147 29.5335 17.514ZM35.4375 27.9709V14.625C35.4375 14.4259 35.3323 14.2414 35.1613 14.1407L22.7863 6.8282C22.6119 6.72526 22.3971 6.72414 22.221 6.8237C22.0455 6.92383 21.9375 7.11058 21.9375 7.31251V14.0625C21.9375 14.2622 22.0433 14.4473 22.2165 14.548L28.6875 18.3229V23.1289C27.2717 22.3391 25.6146 22.2458 24.0272 22.9174C23.4703 23.1531 22.9652 23.5283 22.5208 23.9788L20.8187 22.005L24.6611 17.5495H23.1637L19.6875 21.375V17.4375H18.5625V27H19.6875V22.5L21.7586 24.925C21.2141 25.7856 20.8845 26.7936 20.8845 27.7853C20.8845 27.8466 20.8856 27.9079 20.8873 27.9692C20.1291 28.2465 19.5255 28.7027 19.0946 29.2911L14.0625 26.6586V18.3083L19.9896 14.5367C20.1516 14.4338 20.25 14.2543 20.25 14.0625V7.31251C20.25 7.11058 20.1414 6.92383 19.9665 6.8237C19.7904 6.72414 19.5761 6.72526 19.4012 6.8282L7.02619 14.1407C6.85463 14.2414 6.75 14.4259 6.75 14.625V30.375C6.75 30.5826 6.86475 30.7738 7.04813 30.8711L20.8029 38.1836C20.8862 38.2275 20.9767 38.25 21.0673 38.25C21.1612 38.25 21.2546 38.2264 21.339 38.1797L25.9391 35.64L34.4919 35.6479C35.7474 35.5455 38.1201 34.5893 38.1201 31.7003C38.1201 29.6314 36.8466 28.4642 35.4375 27.9709Z" fill="white"/>
</g>
<defs>
<linearGradient id="paint0_linear_1294_6786" x1="0" y1="4500" x2="4500" y2="0" gradientUnits="userSpaceOnUse">
<stop stop-color="#C8511B"/>
<stop offset="1" stop-color="#FF9900"/>
</linearGradient>
<clipPath id="clip0_1294_6786">
<rect width="45" height="45" rx="10" fill="white"/>
</clipPath>
</defs>
</svg>
