<svg viewBox="0 0 45 45" fill="none" xmlns="http://www.w3.org/2000/svg">
<rect width="45" height="45" rx="6" fill="#F4F3FF"/>
<path d="M31.4234 22.502C31.3981 22.818 31.3665 23.1624 31.3064 23.4911C30.9879 25.4912 30.1875 27.3837 28.9743 29.0054C27.4955 31.0759 25.3734 32.5991 22.9386 33.3378C22.6654 33.4262 22.3713 33.4262 22.0981 33.3378C19.6633 32.5991 17.5412 31.0759 16.0624 29.0054C14.8492 27.3837 14.0488 25.4912 13.7303 23.4911C13.6829 23.1561 13.6418 22.818 13.6165 22.502C13.5881 22.1576 13.5754 21.8099 13.5723 21.4592V15.7711C13.564 15.6974 13.582 15.6231 13.623 15.5613C13.664 15.4994 13.7255 15.454 13.7966 15.433L22.3288 11.6409C22.3675 11.6217 22.4091 11.6089 22.452 11.603C22.4809 11.5946 22.5116 11.5946 22.5405 11.603C22.5833 11.6089 22.625 11.6217 22.6637 11.6409L31.1958 15.433C31.267 15.454 31.3284 15.4994 31.3695 15.5613C31.4105 15.6231 31.4284 15.6974 31.4202 15.7711V21.4592C31.4202 21.8099 31.4044 22.1576 31.376 22.502H31.4297H31.4234Z" stroke="#6221E6" stroke-width="1.8" stroke-linejoin="round"/>
<path d="M19.4453 22.5L21.4823 24.5361L25.5546 20.4639" stroke="#6221E6" stroke-width="1.8" stroke-linecap="round" stroke-linejoin="round"/>
</svg>
