<svg viewBox="0 0 41 45" fill="none" xmlns="http://www.w3.org/2000/svg">
<path d="M1.82891 13.846C1.19029 13.846 0.570404 13.5126 0.234939 12.9202C-0.259695 12.0461 0.0521345 10.9389 0.93156 10.4473L19.2001 0.233388C20.0798 -0.258015 21.1935 0.0518067 21.6881 0.925777C22.1828 1.79986 21.8709 2.90705 20.9915 3.39868L2.72284 13.6126C2.43967 13.7709 2.13206 13.8462 1.8288 13.8462L1.82891 13.846Z" fill="#EA4335"/>
<path d="M38.5551 13.8462C38.2518 13.8462 37.9444 13.771 37.6611 13.6126L19.3925 3.39872C18.5132 2.90709 18.2012 1.79991 18.6959 0.925824C19.1906 0.0518569 20.3043 -0.258077 21.1839 0.233437L39.4525 10.4473C40.3318 10.9389 40.6437 12.0461 40.1491 12.9202C39.8136 13.5127 39.1936 13.846 38.5551 13.846V13.8462Z" fill="#EA4335"/>
<path d="M20.1917 13.8462C19.2358 13.8462 18.4609 13.0332 18.4609 12.0303V1.81589C18.4609 0.812951 19.2358 0 20.1917 0C21.1476 0 21.9225 0.812951 21.9225 1.81589V12.0303C21.9225 13.0332 21.1476 13.8462 20.1917 13.8462Z" fill="#EA4335"/>
<mask id="mask0_1294_7763" style="mask-type:luminance" maskUnits="userSpaceOnUse" x="18" y="0" width="23" height="15">
<path d="M38.546 14.0111C38.2413 14.0111 37.9322 13.935 37.6478 13.775L19.2915 3.4495C18.4079 2.9525 18.0945 1.8332 18.5915 0.949675C19.0887 0.066147 20.2081 -0.247292 21.0914 0.249714L39.4477 10.5752C40.3313 11.0722 40.6446 12.1915 40.1476 13.075C39.8107 13.6741 39.1877 14.0111 38.546 14.0111Z" fill="white"/>
</mask>
<g mask="url(#mask0_1294_7763)">
<path d="M38.5466 34.6623C37.5327 34.6623 36.7109 33.8405 36.7109 32.8267V5.98019C36.7109 4.96633 37.5327 4.14453 38.5466 4.14453C39.5605 4.14453 40.3823 4.96633 40.3823 5.98019V32.8267C40.3823 33.8405 39.5605 34.6623 38.5466 34.6623Z" fill="#4285F4"/>
</g>
<mask id="mask1_1294_7763" style="mask-type:luminance" maskUnits="userSpaceOnUse" x="0" y="0" width="23" height="15">
<path d="M1.83768 14.0111C1.196 14.0111 0.573139 13.6742 0.236066 13.0751C-0.26094 12.1914 0.0523845 11.0722 0.936027 10.5752L19.2924 0.249636C20.1758 -0.24714 21.2953 0.0659546 21.7923 0.949597C22.2893 1.83324 21.9759 2.95242 21.0923 3.44943L2.73601 13.7749C2.4516 13.935 2.1424 14.011 1.8378 14.011L1.83768 14.0111Z" fill="white"/>
</mask>
<g mask="url(#mask1_1294_7763)">
<path d="M1.83566 34.6623C1.51523 34.6623 1.19502 34.5786 0.908998 34.4113C0.346023 34.082 0 33.4789 0 32.8267V5.98019C0 4.96633 0.821804 4.14453 1.83566 4.14453C2.84952 4.14453 3.67133 4.96633 3.67133 5.98019V29.688L10.1137 26.064C10.9976 25.5672 12.1165 25.8804 12.6136 26.7639C13.1107 27.6476 12.7973 28.7669 11.9137 29.2639L2.7356 34.4267C2.456 34.5838 2.14566 34.6624 1.83555 34.6624L1.83566 34.6623Z" fill="#FBBC04"/>
</g>
<path d="M20.1924 45C19.8821 45 19.5718 44.9214 19.2923 44.7641L0.935634 34.4325C0.357732 34.1072 0 33.4952 0 32.8317V12.1684C0 11.5049 0.357732 10.8929 0.935634 10.5676L19.2923 0.235907C19.8512 -0.0786356 20.5335 -0.0786356 21.0923 0.235907L39.449 10.5676C40.0269 10.8929 40.3846 11.5049 40.3846 12.1684V32.8317C40.3846 33.4952 40.0269 34.1072 39.449 34.4325L21.0923 44.7641C20.8128 44.9214 20.5025 45 20.1923 45H20.1924ZM3.6714 31.7575L20.1924 41.0559L36.7133 31.7575V13.2427L20.1924 3.94418L3.6714 13.2427V31.7575Z" fill="#34A853"/>
<path d="M1.81318 34.6154C1.49666 34.6154 1.18038 34.532 0.897863 34.3653C0.341784 34.0373 0 33.4365 0 32.7867V12.2135C0 11.2035 0.811737 10.3848 1.81318 10.3848C2.81462 10.3848 3.62635 11.2035 3.62635 12.2135V29.6598L9.98981 26.0495C10.8629 25.5546 11.9681 25.8666 12.4591 26.7468C12.9501 27.6271 12.6406 28.7422 11.7677 29.2373L2.70209 34.3807C2.42592 34.5372 2.11938 34.6155 1.81306 34.6155L1.81318 34.6154Z" fill="#FBBC04"/>
<path d="M38.5706 34.6155C38.2643 34.6155 37.9579 34.5372 37.6816 34.3807L28.6159 29.2373C27.7432 28.7422 27.4336 27.6271 27.9246 26.7468C28.4157 25.8665 29.5208 25.5544 30.3939 26.0495L36.7574 29.6598V12.2135C36.7574 11.2035 37.5691 10.3848 38.5705 10.3848C39.572 10.3848 40.3837 11.2035 40.3837 12.2135V32.7867C40.3837 33.4365 40.0419 34.0372 39.4858 34.3653C39.2033 34.532 38.8869 34.6154 38.5705 34.6154L38.5706 34.6155Z" fill="#4285F4"/>
<mask id="mask2_1294_7763" style="mask-type:luminance" maskUnits="userSpaceOnUse" x="0" y="0" width="41" height="45">
<path d="M20.1921 44.9871C19.8818 44.9871 19.5715 44.9085 19.2921 44.7513L0.935729 34.4258C0.357725 34.1007 0 33.4891 0 32.826V12.1749C0 11.5117 0.357725 10.9001 0.935729 10.575L19.2921 0.249354C19.8507 -0.0648888 20.5333 -0.0648888 21.0919 0.249354L39.4482 10.5748C40.0262 10.9 40.3839 11.5116 40.3839 12.1747V32.8258C40.3839 33.489 40.0262 34.1006 39.4482 34.4257L21.0919 44.7512C20.8125 44.9084 20.5022 44.987 20.1919 44.987L20.1921 44.9871ZM3.67133 31.7523L20.1921 41.0452L36.7128 31.7523V13.2484L20.1921 3.95544L3.67133 13.2484V31.7523Z" fill="white"/>
</mask>
<g mask="url(#mask2_1294_7763)">
<path d="M-3.67013 37.7595C-4.31181 37.7595 -4.93467 37.4224 -5.27175 36.8235C-5.76875 35.9399 -5.45543 34.8206 -4.57179 34.3236L10.1133 26.0631C10.9972 25.5663 12.1161 25.8795 12.6132 26.7631C13.1102 27.6467 12.7969 28.766 11.9133 29.263L-2.7718 37.5235C-3.05633 37.6835 -3.36541 37.7596 -3.67013 37.7596V37.7595Z" fill="#FBBC04"/>
<path d="M44.0526 37.7597C43.7478 37.7597 43.4389 37.6838 43.1543 37.5236L28.4692 29.2631C27.5857 28.7661 27.2722 27.6468 27.7692 26.7632C28.2665 25.8795 29.3853 25.5662 30.2692 26.0632L44.9543 34.3237C45.8378 34.8207 46.1512 35.94 45.6542 36.8236C45.3171 37.4226 44.6942 37.7596 44.0526 37.7596V37.7597Z" fill="#4285F4"/>
</g>
<path d="M29.3245 19.0386C29.0212 19.0386 28.7136 18.9641 28.4304 18.8073L20.1919 14.246L11.9534 18.8073C11.074 19.2942 9.96015 18.9875 9.4654 18.1216C8.97078 17.2561 9.2826 16.1597 10.162 15.6729L19.2964 10.6157C19.8523 10.3078 20.5316 10.3078 21.0876 10.6157L30.222 15.6729C31.1013 16.1597 31.4133 17.2561 30.9186 18.1216C30.5832 18.7084 29.9633 19.0385 29.3247 19.0385L29.3245 19.0386Z" fill="#EA4335"/>
<path d="M20.2761 34.6156C19.6423 34.6156 19.027 34.2807 18.6941 33.6856C18.2032 32.8075 18.5127 31.6954 19.3855 31.2015L27.527 26.5945V17.4012C27.527 16.3937 28.3387 15.5771 29.3401 15.5771C30.3415 15.5771 31.1532 16.3937 31.1532 17.4012V27.6612C31.1532 28.3201 30.7999 28.9279 30.2291 29.2509L21.1635 34.381C20.8825 34.54 20.5771 34.6156 20.2761 34.6156Z" fill="#4285F4"/>
<path d="M20.1096 34.6156C19.8033 34.6156 19.4968 34.5376 19.2205 34.3813L10.1546 29.2512C9.58382 28.9281 9.23047 28.3203 9.23047 27.6614V17.4012C9.23047 16.3938 10.0422 15.5771 11.0437 15.5771C12.0451 15.5771 12.8569 16.3938 12.8569 17.4012V26.5947L18.2964 29.6728V22.5314C18.2964 21.5239 19.1081 20.7073 20.1096 20.7073C21.111 20.7073 21.9228 21.5239 21.9228 22.5314V32.7916C21.9228 33.4397 21.581 34.0389 21.0249 34.3662C20.7424 34.5324 20.426 34.6156 20.1096 34.6156Z" fill="#FBBC04"/>
<path d="M20.276 24.2309C19.6422 24.2309 19.027 23.9007 18.6941 23.3141C18.2032 22.4485 18.5127 21.3522 19.3855 20.8654L28.4509 15.8083C29.3239 15.3216 30.4291 15.6285 30.9201 16.4939C31.411 17.3595 31.1015 18.4558 30.2287 18.9427L21.1633 23.9997C20.8823 24.1565 20.577 24.231 20.276 24.231V24.2309Z" fill="#4285F4"/>
<mask id="mask3_1294_7763" style="mask-type:luminance" maskUnits="userSpaceOnUse" x="18" y="25" width="14" height="10">
<path d="M20.1932 34.6608C19.5515 34.6608 18.9286 34.3239 18.5915 33.7248C18.0945 32.8411 18.4079 31.7219 19.2915 31.2249L28.4697 26.0621C29.3532 25.5654 30.4725 25.8785 30.9695 26.7621C31.4665 27.6457 31.1532 28.7649 30.2696 29.2619L21.0914 34.4247C20.807 34.5848 20.4979 34.6608 20.1932 34.6608Z" fill="white"/>
</mask>
<g mask="url(#mask3_1294_7763)">
<path d="M20.1911 44.9864C19.1773 44.9864 18.3555 44.1646 18.3555 43.1507V22.4997C18.3555 21.4859 19.1773 20.6641 20.1911 20.6641C21.205 20.6641 22.0268 21.4859 22.0268 22.4997V43.1507C22.0268 44.1646 21.205 44.9864 20.1911 44.9864Z" fill="#FBBC04"/>
</g>
<path d="M30.9181 16.4939C30.4235 15.6284 29.3095 15.3217 28.4302 15.8083L20.1914 20.3695V24.231C20.3897 24.2308 20.5862 24.1987 20.7729 24.137C20.7782 24.1352 20.7834 24.1332 20.7887 24.1314C20.8196 24.1209 20.8503 24.1097 20.8807 24.0976C20.8967 24.0912 20.9124 24.0839 20.9282 24.077C20.9475 24.0686 20.9669 24.0605 20.986 24.0515C21.0117 24.0393 21.037 24.026 21.0623 24.0124C21.0728 24.0068 21.0835 24.0017 21.094 23.9959L21.1042 23.9903L30.2214 18.9426C31.1008 18.4558 31.4126 17.3594 30.918 16.4939H30.9181Z" fill="#4285F4"/>
<path d="M21.6895 11.3106C21.1986 10.4364 20.0929 10.1267 19.2203 10.6182L10.1547 15.7252C9.5838 16.0468 9.23047 16.6518 9.23047 17.3077C9.23047 17.9637 9.5838 18.5687 10.1547 18.8903L19.2029 23.9875L19.2141 23.9938C19.2233 23.9991 19.2328 24.0036 19.2421 24.0087C19.2683 24.023 19.2946 24.037 19.3211 24.0499C19.3384 24.0583 19.3562 24.0658 19.3738 24.0736C19.3911 24.0813 19.4083 24.0894 19.4258 24.0965C19.4542 24.1081 19.4831 24.1187 19.5121 24.1288C19.5189 24.1312 19.5257 24.134 19.5326 24.1363C19.7178 24.1985 19.9126 24.2307 20.1093 24.2309V20.3315L14.7421 17.3079L20.9982 13.7836C21.871 13.292 22.1805 12.1848 21.6896 11.3109L21.6895 11.3106Z" fill="#EA4335"/>
<mask id="mask4_1294_7763" style="mask-type:luminance" maskUnits="userSpaceOnUse" x="9" y="15" width="4" height="10">
<path d="M11.0134 24.3361C9.99965 24.3361 9.17773 23.5142 9.17773 22.5004V17.3376C9.17773 16.3239 9.99954 15.502 11.0134 15.502C12.0273 15.502 12.8491 16.3239 12.8491 17.3376V22.5004C12.8491 23.5142 12.0273 24.3361 11.0134 24.3361Z" fill="white"/>
</mask>
<g mask="url(#mask4_1294_7763)">
<path d="M20.1906 24.3365C19.8858 24.3365 19.5769 24.2606 19.2923 24.1004L0.936003 13.7748C0.0524751 13.2778 -0.260964 12.1585 0.236042 11.2749C0.733162 10.3913 1.85234 10.0779 2.73599 10.5749L21.0923 20.9005C21.9758 21.3975 22.2892 22.5168 21.7922 23.4005C21.4552 23.9995 20.8322 24.3364 20.1906 24.3364V24.3365Z" fill="#EA4335"/>
</g>
<mask id="mask5_1294_7763" style="mask-type:luminance" maskUnits="userSpaceOnUse" x="18" y="10" width="14" height="10">
<path d="M29.3679 19.1726C29.0632 19.1726 28.7541 19.0966 28.4697 18.9365L19.2915 13.7737C18.4079 13.2767 18.0945 12.1574 18.5915 11.2739C19.0887 10.3904 20.2081 10.0769 21.0914 10.5739L30.2696 15.7367C31.1532 16.2337 31.4665 17.353 30.9695 18.2366C30.6326 18.8357 30.0096 19.1726 29.3679 19.1726Z" fill="white"/>
</mask>
<g mask="url(#mask5_1294_7763)">
<path d="M20.1932 24.3353C19.5515 24.3353 18.9286 23.9983 18.5915 23.3994C18.0945 22.5157 18.4079 21.3964 19.2915 20.8994L37.6478 10.5738C38.5317 10.0771 39.6507 10.3903 40.1477 11.2738C40.6447 12.1574 40.3314 13.2767 39.4478 13.7737L21.0915 24.0993C20.807 24.2594 20.4979 24.3355 20.1932 24.3355V24.3353Z" fill="#4285F4"/>
</g>
</svg>
