<svg width="40" height="40" viewBox="0 0 40 40" fill="none" xmlns="http://www.w3.org/2000/svg">
<path d="M33.7205 26.0452C33.4883 26.5713 33.4191 27.1549 33.5217 27.7207C33.6243 28.2866 33.894 28.8087 34.2962 29.2198L34.4008 29.3245C34.7252 29.6485 34.9825 30.0332 35.1581 30.4567C35.3336 30.8802 35.424 31.3342 35.424 31.7927C35.424 32.2511 35.3336 32.7051 35.1581 33.1286C34.9825 33.5521 34.7252 33.9368 34.4008 34.2608C34.0768 34.5852 33.6921 34.8425 33.2686 35.0181C32.845 35.1936 32.3911 35.284 31.9326 35.284C31.4741 35.284 31.0202 35.1936 30.5967 35.0181C30.1732 34.8425 29.7884 34.5852 29.4644 34.2608L29.3597 34.1562C28.9486 33.7541 28.4265 33.4843 27.8606 33.3817C27.2948 33.2791 26.7112 33.3484 26.1851 33.5806C25.6691 33.8017 25.2291 34.1688 24.9192 34.6368C24.6093 35.1048 24.443 35.6532 24.4407 36.2145V36.511C24.4407 37.4362 24.0732 38.3236 23.4189 38.9778C22.7647 39.632 21.8773 39.9996 20.9521 39.9996C20.0269 39.9996 19.1395 39.632 18.4853 38.9778C17.831 38.3236 17.4635 37.4362 17.4635 36.511V36.354C17.4499 35.7766 17.2631 35.2167 16.9271 34.747C16.5911 34.2772 16.1216 33.9195 15.5796 33.7201C15.0535 33.4879 14.4699 33.4186 13.904 33.5212C13.3382 33.6238 12.816 33.8936 12.4049 34.2957L12.3003 34.4004C11.9763 34.7247 11.5915 34.9821 11.168 35.1576C10.7445 35.3332 10.2905 35.4235 9.83204 35.4235C9.37358 35.4235 8.91961 35.3332 8.4961 35.1576C8.07258 34.9821 7.68782 34.7247 7.36382 34.4004C7.03946 34.0764 6.78214 33.6916 6.60658 33.2681C6.43101 32.8446 6.34065 32.3907 6.34065 31.9322C6.34065 31.4737 6.43101 31.0198 6.60658 30.5963C6.78214 30.1728 7.03946 29.788 7.36382 29.464L7.46848 29.3594C7.87061 28.9483 8.14037 28.4261 8.24297 27.8603C8.34557 27.2944 8.2763 26.7108 8.04411 26.1847C7.82299 25.6688 7.45584 25.2288 6.98786 24.9189C6.51988 24.609 5.97148 24.4427 5.41018 24.4404H5.11365C4.1884 24.4404 3.30105 24.0729 2.6468 23.4186C1.99255 22.7644 1.625 21.8771 1.625 20.9518C1.625 20.0266 1.99255 19.1393 2.6468 18.485C3.30105 17.8308 4.1884 17.4632 5.11365 17.4632H5.27063C5.848 17.4497 6.40794 17.2629 6.87768 16.9269C7.34741 16.5909 7.70521 16.1214 7.90456 15.5794C8.13676 15.0533 8.20602 14.4697 8.10342 13.9038C8.00082 13.338 7.73107 12.8159 7.32894 12.4048L7.22428 12.3001C6.89991 11.9761 6.6426 11.5914 6.46703 11.1679C6.29147 10.7443 6.2011 10.2904 6.2011 9.83193C6.2011 9.37347 6.29147 8.91951 6.46703 8.496C6.6426 8.07249 6.89991 7.68774 7.22428 7.36375C7.54828 7.03939 7.93304 6.78207 8.35655 6.60651C8.78007 6.43095 9.23403 6.34059 9.69249 6.34059C10.151 6.34059 10.6049 6.43095 11.0284 6.60651C11.452 6.78207 11.8367 7.03939 12.1607 7.36375L12.2654 7.4684C12.6765 7.87053 13.1986 8.14028 13.7645 8.24288C14.3303 8.34548 14.9139 8.27621 15.44 8.04402H15.5796C16.0955 7.82291 16.5355 7.45577 16.8454 6.98779C17.1554 6.51981 17.3217 5.97142 17.3239 5.41013V5.1136C17.3239 4.18837 17.6915 3.30103 18.3457 2.64679C19 1.99255 19.8873 1.625 20.8126 1.625C21.7378 1.625 22.6251 1.99255 23.2794 2.64679C23.9336 3.30103 24.3012 4.18837 24.3012 5.1136V5.27058C24.3034 5.83188 24.4698 6.38027 24.7797 6.84824C25.0896 7.31622 25.5296 7.68337 26.0455 7.90448C26.5716 8.13667 27.1552 8.20593 27.7211 8.10334C28.2869 8.00074 28.8091 7.73098 29.2202 7.32886L29.3248 7.2242C29.6488 6.89984 30.0336 6.64253 30.4571 6.46697C30.8806 6.29141 31.3346 6.20104 31.7931 6.20104C32.2515 6.20104 32.7055 6.29141 33.129 6.46697C33.5525 6.64253 33.9373 6.89984 34.2613 7.2242C34.5856 7.5482 34.843 7.93295 35.0185 8.35646C35.1941 8.77997 35.2845 9.23393 35.2845 9.69238C35.2845 10.1508 35.1941 10.6048 35.0185 11.0283C34.843 11.4518 34.5856 11.8366 34.2613 12.1606L34.1566 12.2652C33.7545 12.6763 33.4847 13.1985 33.3821 13.7643C33.2795 14.3301 33.3488 14.9137 33.581 15.4399V15.5794C33.8021 16.0953 34.1693 16.5353 34.6372 16.8452C35.1052 17.1551 35.6536 17.3215 36.2149 17.3237H36.5115C37.4367 17.3237 38.3241 17.6912 38.9783 18.3455C39.6325 18.9997 40.0001 19.8871 40.0001 20.8123C40.0001 21.7375 39.6325 22.6249 38.9783 23.2791C38.3241 23.9333 37.4367 24.3009 36.5115 24.3009H36.3545C35.7932 24.3031 35.2448 24.4694 34.7768 24.7794C34.3088 25.0893 33.9417 25.5293 33.7205 26.0452Z" fill="#CFE6F9"/>
<path d="M32.0955 24.4202C31.8633 24.9463 31.7941 25.5299 31.8967 26.0957C31.9993 26.6616 32.269 27.1837 32.6712 27.5948L32.7758 27.6995C33.1002 28.0235 33.3575 28.4082 33.5331 28.8317C33.7086 29.2552 33.799 29.7092 33.799 30.1677C33.799 30.6261 33.7086 31.0801 33.5331 31.5036C33.3575 31.9271 33.1002 32.3118 32.7758 32.6358C32.4518 32.9602 32.0671 33.2175 31.6436 33.3931C31.22 33.5686 30.7661 33.659 30.3076 33.659C29.8491 33.659 29.3952 33.5686 28.9717 33.3931C28.5482 33.2175 28.1634 32.9602 27.8394 32.6358L27.7347 32.5312C27.3236 32.1291 26.8015 31.8593 26.2356 31.7567C25.6698 31.6541 25.0862 31.7234 24.5601 31.9556C24.0441 32.1767 23.6041 32.5438 23.2942 33.0118C22.9843 33.4798 22.818 34.0282 22.8157 34.5895V34.886C22.8157 35.8112 22.4482 36.6986 21.7939 37.3528C21.1397 38.007 20.2523 38.3746 19.3271 38.3746C18.4019 38.3746 17.5145 38.007 16.8603 37.3528C16.206 36.6986 15.8385 35.8112 15.8385 34.886V34.729C15.8249 34.1516 15.6381 33.5917 15.3021 33.122C14.9661 32.6522 14.4966 32.2945 13.9546 32.0951C13.4285 31.8629 12.8449 31.7936 12.279 31.8962C11.7132 31.9988 11.191 32.2686 10.7799 32.6707L10.6753 32.7754C10.3513 33.0997 9.9665 33.3571 9.54298 33.5326C9.11947 33.7082 8.6655 33.7985 8.20704 33.7985C7.74858 33.7985 7.29461 33.7082 6.8711 33.5326C6.44758 33.3571 6.06282 33.0997 5.73882 32.7754C5.41446 32.4514 5.15714 32.0666 4.98158 31.6431C4.80601 31.2196 4.71565 30.7657 4.71565 30.3072C4.71565 29.8487 4.80601 29.3948 4.98158 28.9713C5.15714 28.5478 5.41446 28.163 5.73882 27.839L5.84348 27.7344C6.24561 27.3233 6.51537 26.8011 6.61797 26.2353C6.72057 25.6694 6.6513 25.0858 6.41911 24.5597C6.19799 24.0438 5.83084 23.6038 5.36286 23.2939C4.89488 22.984 4.34648 22.8177 3.78518 22.8154H3.48865C2.5634 22.8154 1.67605 22.4479 1.0218 21.7936C0.367553 21.1394 0 20.2521 0 19.3268C0 18.4016 0.367553 17.5143 1.0218 16.86C1.67605 16.2058 2.5634 15.8382 3.48865 15.8382H3.64563C4.223 15.8247 4.78294 15.6379 5.25268 15.3019C5.72241 14.9659 6.08021 14.4964 6.27956 13.9544C6.51176 13.4283 6.58102 12.8447 6.47842 12.2788C6.37582 11.713 6.10607 11.1909 5.70394 10.7798L5.59928 10.6751C5.27491 10.3511 5.0176 9.96636 4.84203 9.54285C4.66647 9.11934 4.5761 8.66538 4.5761 8.20693C4.5761 7.74847 4.66647 7.29451 4.84203 6.871C5.0176 6.44749 5.27491 6.06274 5.59928 5.73875C5.92328 5.41439 6.30804 5.15707 6.73155 4.98151C7.15507 4.80595 7.60903 4.71559 8.06749 4.71559C8.52596 4.71559 8.97992 4.80595 9.40344 4.98151C9.82695 5.15707 10.2117 5.41439 10.5357 5.73875L10.6404 5.8434C11.0515 6.24553 11.5736 6.51528 12.1395 6.61788C12.7053 6.72048 13.2889 6.65121 13.815 6.41902H13.9546C14.4705 6.19791 14.9105 5.83077 15.2204 5.36279C15.5304 4.89481 15.6967 4.34642 15.6989 3.78513V3.4886C15.6989 2.56337 16.0665 1.67603 16.7207 1.02179C17.375 0.367548 18.2623 0 19.1876 0C20.1128 0 21.0001 0.367548 21.6544 1.02179C22.3086 1.67603 22.6762 2.56337 22.6762 3.4886V3.64558C22.6784 4.20688 22.8448 4.75527 23.1547 5.22324C23.4646 5.69122 23.9046 6.05837 24.4205 6.27948C24.9466 6.51167 25.5302 6.58093 26.0961 6.47834C26.6619 6.37574 27.1841 6.10598 27.5952 5.70386L27.6998 5.5992C28.0238 5.27484 28.4086 5.01753 28.8321 4.84197C29.2556 4.66641 29.7096 4.57604 30.1681 4.57604C30.6265 4.57604 31.0805 4.66641 31.504 4.84197C31.9275 5.01753 32.3123 5.27484 32.6363 5.5992C32.9606 5.9232 33.218 6.30795 33.3935 6.73146C33.5691 7.15497 33.6595 7.60893 33.6595 8.06738C33.6595 8.52584 33.5691 8.9798 33.3935 9.40331C33.218 9.82682 32.9606 10.2116 32.6363 10.5356L32.5316 10.6402C32.1295 11.0513 31.8597 11.5735 31.7571 12.1393C31.6545 12.7051 31.7238 13.2887 31.956 13.8149V13.9544C32.1771 14.4703 32.5443 14.9103 33.0122 15.2202C33.4802 15.5301 34.0286 15.6965 34.5899 15.6987H34.8865C35.8117 15.6987 36.6991 16.0662 37.3533 16.7205C38.0075 17.3747 38.3751 18.2621 38.3751 19.1873C38.3751 20.1125 38.0075 20.9999 37.3533 21.6541C36.6991 22.3083 35.8117 22.6759 34.8865 22.6759H34.7295C34.1682 22.6781 33.6198 22.8444 33.1518 23.1544C32.6838 23.4643 32.3167 23.9043 32.0955 24.4202Z" fill="#E8F3FC"/>
<path d="M20.0081 29.6686C19.701 29.6686 19.394 29.5809 19.0869 29.4492C17.1565 28.4841 13.6469 26.2029 12.0676 21.7281C11.0585 18.8766 11.234 16.2444 11.585 14.5334C11.7166 13.8315 12.1992 13.2612 12.8572 12.998L19.2623 10.4096C19.7449 10.1903 20.3152 10.1903 20.8417 10.4096L27.2468 12.998C27.9049 13.2612 28.3874 13.8315 28.5191 14.5334C28.87 16.2444 29.0455 18.8766 27.9926 21.7281C26.4133 26.2029 22.9036 28.4841 20.9733 29.4492C20.6662 29.5809 20.3152 29.6686 20.0081 29.6686Z" fill="#48D7C4"/>
<path d="M28.0391 13.5557C28.2798 13.8276 28.4498 14.1613 28.5195 14.5332C28.8705 16.2441 29.0461 18.877 27.9932 21.7285C26.4138 26.203 22.9039 28.484 20.9736 29.4492C20.6665 29.5808 20.3149 29.6689 20.0078 29.6689C19.7009 29.6689 19.3939 29.5808 19.0869 29.4492C17.3103 28.5609 14.1974 26.557 12.4814 22.7549C14.2513 25.9505 16.9917 27.6931 18.6152 28.5049C18.9223 28.6365 19.2291 28.7246 19.5361 28.7246C19.8431 28.7246 20.1939 28.6364 20.501 28.5049C22.4313 27.5398 25.9411 25.2588 27.5205 20.7842C28.5733 17.9328 28.3978 15.3008 28.0469 13.5898C28.0447 13.5785 28.0414 13.567 28.0391 13.5557Z" fill="#1BBEA7"/>
<path d="M19.8643 18.1417C20.9482 18.1417 21.8385 17.2514 21.8385 16.1675C21.8385 15.0837 20.9482 14.1934 19.8643 14.1934C18.7805 14.1934 17.8901 15.0837 17.8901 16.1675C17.8901 17.2514 18.7805 18.1417 19.8643 18.1417Z" fill="#FFEA95"/>
<path d="M21.0674 14.6084C21.535 14.9706 21.8389 15.5357 21.8389 16.168C21.8388 17.2516 20.9489 18.1414 19.8652 18.1416C19.2338 18.1416 18.6689 17.8387 18.3066 17.3721C18.6409 17.6315 19.0584 17.7881 19.5107 17.7881C20.5944 17.788 21.4842 16.8981 21.4844 15.8145C21.4844 15.3614 21.3276 14.9429 21.0674 14.6084Z" fill="#F5C556"/>
<path d="M23.606 21.5958C23.4305 20.5429 22.7286 19.5778 21.8073 19.0513C19.7893 17.9107 17.1132 18.9636 16.4551 21.2448C16.2357 21.9468 16.3235 22.7364 16.3235 23.4822C16.3235 23.8332 16.6306 24.1403 16.9815 24.1403H22.2899H23.0357C23.3867 24.1403 23.6938 23.8332 23.6938 23.4822C23.6938 22.868 23.7376 22.21 23.606 21.5958Z" fill="#FFEA95"/>
<path d="M22.9551 20.084C23.2841 20.5325 23.5158 21.0521 23.6064 21.5957C23.7381 22.2099 23.6943 22.8682 23.6943 23.4824C23.6943 23.8333 23.387 24.1406 23.0361 24.1406H16.9814C16.6307 24.1404 16.3242 23.8332 16.3242 23.4824C16.3242 23.4775 16.3232 23.4727 16.3232 23.4678C16.4158 23.519 16.5191 23.5518 16.6279 23.5518H22.6816C23.0325 23.5518 23.3397 23.2444 23.3398 22.8936C23.3398 22.2794 23.3836 21.621 23.252 21.0068C23.1988 20.6878 23.0964 20.3772 22.9551 20.084Z" fill="#F5C556"/>
</svg>
