<svg viewBox="0 0 40 40" fill="none" xmlns="http://www.w3.org/2000/svg">
<rect width="40" height="40" rx="20" fill="url(#paint0_linear_948_21126)"/>
<g clip-path="url(#clip0_948_21126)">
<path fill-rule="evenodd" clip-rule="evenodd" d="M9.97476 14.1405C9.69016 14.0353 9.39441 13.9525 9.08963 13.8943C9.06725 13.89 9.04482 13.8859 9.02235 13.8818C8.81872 13.8455 8.81872 13.5534 9.02235 13.5171C9.04482 13.5131 9.06725 13.5089 9.08963 13.5047C9.39441 13.4464 9.69016 13.3637 9.97476 13.2585C10.1451 13.1955 10.3114 13.1245 10.4733 13.0459C11.5943 12.5017 12.5022 11.5939 13.0464 10.4728C13.125 10.3109 13.196 10.1446 13.259 9.97427C13.3642 9.68967 13.4469 9.39392 13.5052 9.08914C13.5094 9.06676 13.5136 9.04434 13.5176 9.02186C13.5539 8.81823 13.846 8.81823 13.8823 9.02186C13.8863 9.04434 13.8905 9.06676 13.8947 9.08914C13.953 9.39392 14.0357 9.68967 14.141 9.97427C14.2039 10.1446 14.2749 10.3109 14.3535 10.4728C14.8977 11.5939 15.8056 12.5017 16.9266 13.0459C17.0885 13.1245 17.2548 13.1955 17.4251 13.2585C17.7098 13.3637 18.0055 13.4464 18.3103 13.5047C18.3327 13.5089 18.3551 13.5131 18.3776 13.5171C18.5812 13.5534 18.5812 13.8455 18.3776 13.8818C18.3551 13.8859 18.3327 13.89 18.3103 13.8943C18.0055 13.9525 17.7098 14.0353 17.4251 14.1405C17.2548 14.2034 17.0885 14.2744 16.9266 14.353C15.8056 14.8972 14.8977 15.8051 14.3535 16.9261C14.2749 17.088 14.2039 17.2543 14.141 17.4247C14.0357 17.7093 13.953 18.005 13.8947 18.3098C13.8905 18.3322 13.8863 18.3546 13.8823 18.3771C13.846 18.5807 13.5539 18.5807 13.5176 18.3771C13.5136 18.3546 13.5094 18.3322 13.5052 18.3098C13.4469 18.005 13.3642 17.7093 13.259 17.4247C13.196 17.2543 13.125 17.088 13.0464 16.9261C12.5022 15.8051 11.5943 14.8972 10.4733 14.353C10.3114 14.2744 10.1451 14.2034 9.97476 14.1405ZM16.7789 21.3761C16.5799 21.3225 16.3781 21.2754 16.1737 21.2352C16.1418 21.2289 16.1098 21.2228 16.0778 21.2168L16.068 21.215L16.0549 21.2126C16.0347 21.2089 16.0125 21.205 15.9681 21.197L15.9526 21.1942C15.6269 21.1326 15.6269 20.6663 15.9526 20.6047L15.9681 20.6019C16.0125 20.594 16.0347 20.59 16.0549 20.5863L16.068 20.5839L16.0778 20.5821C16.1098 20.5762 16.1418 20.57 16.1737 20.5638C16.3781 20.5235 16.5799 20.4764 16.7789 20.4228C16.949 20.377 17.117 20.3263 17.2828 20.2711C19.9659 19.3767 22.0772 17.2654 22.9716 14.5823C23.0268 14.4165 23.0775 14.2485 23.1233 14.0784C23.1769 13.8794 23.224 13.6776 23.2643 13.4732C23.2705 13.4413 23.2766 13.4093 23.2826 13.3773L23.2844 13.3675L23.2868 13.3544C23.2905 13.3344 23.2944 13.3125 23.3021 13.2691L23.3024 13.2676L23.3052 13.2521C23.3668 12.9264 23.8331 12.9264 23.8947 13.2521L23.8975 13.2676C23.9054 13.312 23.9094 13.3342 23.9131 13.3544L23.9155 13.3675L23.9173 13.3773C23.9233 13.4093 23.9294 13.4413 23.9357 13.4732C23.9759 13.6776 24.023 13.8794 24.0766 14.0784C24.1224 14.2485 24.1731 14.4165 24.2283 14.5823C25.1227 17.2654 27.234 19.3767 29.9171 20.2711C30.083 20.3263 30.251 20.377 30.421 20.4228C30.62 20.4764 30.8219 20.5235 31.0262 20.5638C31.0581 20.57 31.0901 20.5762 31.1222 20.5821L31.1319 20.5839L31.145 20.5863C31.1652 20.59 31.1874 20.594 31.2318 20.6019L31.2473 20.6047C31.573 20.6663 31.573 21.1326 31.2473 21.1942L31.2318 21.197L31.1849 21.2054L31.145 21.2126L31.1319 21.215L31.1222 21.2168C31.0901 21.2228 31.0581 21.2289 31.0262 21.2352C30.8219 21.2754 30.62 21.3225 30.421 21.3761C30.251 21.4219 30.083 21.4726 29.9171 21.5278C27.234 22.4222 25.1227 24.5335 24.2283 27.2166C24.1731 27.3825 24.1224 27.5505 24.0766 27.7205C24.023 27.9195 23.9759 28.1214 23.9357 28.3257C23.9294 28.3576 23.9233 28.3896 23.9173 28.4217L23.9155 28.4314L23.9131 28.4445L23.9077 28.4741L23.8978 28.5296L23.8947 28.5469C23.8331 28.8725 23.3668 28.8725 23.3052 28.5469L23.3024 28.5313C23.2945 28.487 23.2905 28.4647 23.2868 28.4445L23.2844 28.4314L23.2826 28.4217C23.2766 28.3896 23.2705 28.3576 23.2643 28.3257C23.224 28.1213 23.1769 27.9195 23.1233 27.7205C23.0775 27.5505 23.0268 27.3825 22.9716 27.2166C22.0772 24.5335 19.9659 22.4222 17.2828 21.5278C17.117 21.4726 16.949 21.4219 16.7789 21.3761ZM12.2882 27.6225C12.6305 27.6879 12.9547 27.8023 13.2533 27.9582C13.3862 28.0276 13.514 28.1051 13.6361 28.1902C13.9763 28.4274 14.272 28.7232 14.5092 29.0633C14.5943 29.1854 14.6719 29.3132 14.7412 29.4461C14.8972 29.7448 15.0116 30.069 15.0769 30.4113C15.0796 30.4254 15.0823 30.4396 15.0848 30.4537C15.1077 30.5824 15.2922 30.5824 15.3152 30.4537C15.3177 30.4396 15.3203 30.4254 15.323 30.4113C15.3884 30.069 15.5028 29.7448 15.6587 29.4461C15.728 29.3132 15.8056 29.1854 15.8907 29.0633C16.1279 28.7232 16.4237 28.4274 16.7639 28.1902C16.8859 28.1051 17.0137 28.0276 17.1466 27.9582C17.4453 27.8023 17.7695 27.6879 18.1118 27.6225C18.1259 27.6198 18.14 27.6172 18.1542 27.6146C18.2828 27.5917 18.2828 27.4072 18.1542 27.3843C18.14 27.3817 18.1259 27.3791 18.1118 27.3764C17.7695 27.3111 17.4453 27.1966 17.1466 27.0407C17.0137 26.9714 16.8859 26.8938 16.7639 26.8087C16.4237 26.5715 16.1279 26.2757 15.8907 25.9356C15.8056 25.8135 15.728 25.6857 15.6587 25.5529C15.5028 25.2542 15.3884 24.9299 15.323 24.5877C15.3203 24.5735 15.3177 24.5594 15.3152 24.5452C15.2922 24.4166 15.1077 24.4166 15.0848 24.5452C15.0823 24.5594 15.0796 24.5735 15.0769 24.5877C15.0116 24.9299 14.8972 25.2542 14.7412 25.5529C14.6719 25.6857 14.5943 25.8135 14.5092 25.9356C14.272 26.2757 13.9763 26.5715 13.6361 26.8087C13.514 26.8938 13.3862 26.9714 13.2533 27.0407C12.9547 27.1966 12.6305 27.3111 12.2882 27.3764C12.2741 27.3791 12.2599 27.3817 12.2457 27.3843C12.1171 27.4072 12.1171 27.5917 12.2457 27.6146C12.2599 27.6172 12.2741 27.6198 12.2882 27.6225Z" fill="white"/>
</g>
<defs>
<linearGradient id="paint0_linear_948_21126" x1="0" y1="0" x2="40" y2="40" gradientUnits="userSpaceOnUse">
<stop stop-color="#72EDF2"/>
<stop offset="1" stop-color="#5151E5"/>
</linearGradient>
<clipPath id="clip0_948_21126">
<rect width="24" height="24" fill="white" transform="translate(8 8)"/>
</clipPath>
</defs>
</svg>
