<svg width="40" height="40" viewBox="0 0 40 40" fill="none" xmlns="http://www.w3.org/2000/svg">
<path d="M27.6923 0.676758H12.3077C5.51034 0.676758 0 6.1871 0 12.9845V27.0152C0 33.8126 5.51034 39.3229 12.3077 39.3229H27.6923C34.4897 39.3229 40 33.8126 40 27.0152V12.9845C40 6.1871 34.4897 0.676758 27.6923 0.676758Z" fill="url(#paint0_linear_656_988)"/>
<path d="M28.5228 24.9216H33.2305C29.6921 33.4754 18.3998 35.1062 12.1536 29.1677L5.53822 31.137C5.2613 31.2293 5.01514 30.9216 5.19976 30.6754L9.2613 24.9831C5.41514 16.2754 12.5844 6.67543 22.2459 7.29081C26.8613 7.5985 31.8459 10.86 33.2305 15.2908H28.8613C25.8151 10.5523 19.1382 9.44466 15.0459 13.5062C7.10745 21.4139 18.3075 35.66 28.2767 25.5062C28.4921 25.2908 28.4921 24.9216 28.5228 24.9216Z" fill="white"/>
<defs>
<linearGradient id="paint0_linear_656_988" x1="-0.830769" y1="41.1075" x2="38.8615" y2="0.892146" gradientUnits="userSpaceOnUse">
<stop stop-color="#03A0FF"/>
<stop offset="1" stop-color="#016AFB"/>
</linearGradient>
</defs>
</svg>
