<svg width="36" height="36" viewBox="0 0 36 36" fill="none" xmlns="http://www.w3.org/2000/svg">
<rect width="36" height="36" rx="18" fill="#E8E8E8"/>
<rect x="0.5" y="0.5" width="35" height="35" rx="17.5" stroke="#191919" stroke-opacity="0.2"/>
<path d="M10.1426 16.4152C13.6925 15.8293 16.4754 12.8906 17.0583 9.33496L17.2539 7.62601C17.3024 7.35444 17.1184 6.97618 16.7756 7.00334C14.0934 7.21283 11.5622 8.09931 10.1542 8.67543C9.45511 8.96253 9 9.64145 9 10.398V15.9729C9 16.3026 9.29631 16.5549 9.62166 16.5024L10.1426 16.4171V16.4152Z" fill="#191919"/>
<path d="M18.7707 9.33493C19.3555 12.8906 22.1384 15.8294 25.6864 16.4152L26.2074 16.5005C26.5327 16.5548 26.829 16.3027 26.829 15.9709V10.396C26.829 9.63948 26.3739 8.96056 25.6748 8.67347C24.2649 8.09541 21.7357 7.21087 19.0534 7.00137C18.7086 6.97422 18.5325 7.35636 18.5731 7.62404L18.7687 9.333L18.7707 9.33493Z" fill="#191919"/>
<path d="M25.6833 18.2876C20.8321 19.2459 18.5798 22.4756 18.5798 28.5898C18.5798 28.8963 18.8839 29.1097 19.1395 28.939C21.3705 27.4318 26.2799 23.4979 26.7853 18.5766C26.8047 17.9579 26.032 18.2489 25.6833 18.2876Z" fill="#191919"/>
<path d="M10.1443 18.2876C14.9955 19.2459 17.2479 22.4756 17.2479 28.5898C17.2479 28.8963 16.9438 29.1097 16.6882 28.939C14.4571 27.4318 9.54781 23.4979 9.04235 18.5766C9.02298 17.9579 9.79569 18.2489 10.1443 18.2876Z" fill="#191919"/>
</svg>
