<svg width="40" height="40" viewBox="0 0 40 40" fill="none" xmlns="http://www.w3.org/2000/svg">
<path d="M33.5881 25.7518C33.351 26.289 33.2803 26.8849 33.3851 27.4627C33.4898 28.0405 33.7653 28.5736 34.1759 28.9934L34.2827 29.1002C34.6139 29.4311 34.8767 29.8239 35.056 30.2564C35.2352 30.6888 35.3275 31.1524 35.3275 31.6205C35.3275 32.0886 35.2352 32.5522 35.056 32.9846C34.8767 33.417 34.6139 33.8099 34.2827 34.1407C33.9519 34.4719 33.559 34.7347 33.1266 34.914C32.6942 35.0932 32.2306 35.1855 31.7625 35.1855C31.2944 35.1855 30.8308 35.0932 30.3984 34.914C29.9659 34.7347 29.5731 34.4719 29.2422 34.1407L29.1354 34.0339C28.7156 33.6233 28.1825 33.3478 27.6047 33.2431C27.0269 33.1383 26.431 33.209 25.8938 33.4461C25.367 33.6719 24.9177 34.0468 24.6012 34.5246C24.2848 35.0025 24.115 35.5624 24.1127 36.1356V36.4384C24.1127 37.3831 23.7374 38.2892 23.0693 38.9572C22.4013 39.6253 21.4952 40.0006 20.5505 40.0006C19.6057 40.0006 18.6997 39.6253 18.0316 38.9572C17.3636 38.2892 16.9883 37.3831 16.9883 36.4384V36.2781C16.9745 35.6885 16.7837 35.1168 16.4406 34.6371C16.0976 34.1575 15.6181 33.7922 15.0647 33.5886C14.5275 33.3515 13.9316 33.2808 13.3538 33.3856C12.776 33.4903 12.2429 33.7658 11.8231 34.1764L11.7162 34.2832C11.3854 34.6144 10.9925 34.8772 10.5601 35.0564C10.1276 35.2357 9.66411 35.328 9.19598 35.328C8.72785 35.328 8.26432 35.2357 7.83188 35.0564C7.39943 34.8772 7.00656 34.6144 6.67573 34.2832C6.34453 33.9524 6.08179 33.5595 5.90252 33.1271C5.72326 32.6947 5.63099 32.2311 5.63099 31.763C5.63099 31.2949 5.72326 30.8313 5.90252 30.3989C6.08179 29.9664 6.34453 29.5736 6.67573 29.2427L6.7826 29.1359C7.1932 28.7161 7.46865 28.1829 7.57341 27.6052C7.67817 27.0274 7.60745 26.4315 7.37036 25.8943C7.14458 25.3675 6.76969 24.9182 6.29184 24.6017C5.81399 24.2853 5.25403 24.1155 4.6809 24.1132H4.37811C3.43336 24.1132 2.5273 23.7379 1.85926 23.0698C1.19122 22.4018 0.815918 21.4957 0.815918 20.551C0.815918 19.6062 1.19122 18.7002 1.85926 18.0321C2.5273 17.3641 3.43336 16.9888 4.37811 16.9888H4.53841C5.12795 16.975 5.6997 16.7842 6.17934 16.4411C6.65898 16.0981 7.02432 15.6186 7.22787 15.0652C7.46496 14.528 7.53568 13.9321 7.43092 13.3543C7.32616 12.7765 7.05072 12.2434 6.64011 11.8236L6.53324 11.7167C6.20204 11.3859 5.9393 10.993 5.76003 10.5606C5.58077 10.1281 5.4885 9.6646 5.4885 9.19647C5.4885 8.72834 5.58077 8.26481 5.76003 7.83236C5.9393 7.39992 6.20204 7.00705 6.53324 6.67622C6.86407 6.34502 7.25694 6.08227 7.68939 5.90301C8.12183 5.72374 8.58537 5.63147 9.0535 5.63147C9.52162 5.63147 9.98516 5.72374 10.4176 5.90301C10.85 6.08227 11.2429 6.34502 11.5737 6.67622L11.6806 6.78308C12.1004 7.19369 12.6335 7.46914 13.2113 7.5739C13.7891 7.67866 14.385 7.60794 14.9222 7.37085H15.0647C15.5915 7.14507 16.0408 6.77018 16.3572 6.29233C16.6737 5.81448 16.8435 5.25452 16.8458 4.68139V4.3786C16.8458 3.43385 17.2211 2.52779 17.8891 1.85975C18.5572 1.19171 19.4632 0.816406 20.408 0.816406C21.3527 0.816406 22.2588 1.19171 22.9268 1.85975C23.5949 2.52779 23.9702 3.43385 23.9702 4.3786V4.5389C23.9725 5.11203 24.1423 5.67199 24.4588 6.14984C24.7752 6.62769 25.2245 7.00258 25.7513 7.22836C26.2885 7.46545 26.8844 7.53617 27.4622 7.43141C28.04 7.32665 28.5731 7.05121 28.9929 6.6406L29.0997 6.53373C29.4306 6.20253 29.8235 5.93979 30.2559 5.76052C30.6883 5.58126 31.1519 5.48899 31.62 5.48899C32.0881 5.48899 32.5517 5.58126 32.9841 5.76052C33.4166 5.93979 33.8094 6.20253 34.1403 6.53373C34.4715 6.86456 34.7342 7.25743 34.9135 7.68988C35.0927 8.12232 35.185 8.58586 35.185 9.05398C35.185 9.52211 35.0927 9.98565 34.9135 10.4181C34.7342 10.8505 34.4715 11.2434 34.1403 11.5742L34.0334 11.6811C33.6228 12.1009 33.3473 12.634 33.2426 13.2118C33.1378 13.7896 33.2085 14.3855 33.4456 14.9227V15.0652C33.6714 15.592 34.0463 16.0413 34.5241 16.3577C35.002 16.6742 35.562 16.844 36.1351 16.8463H36.4379C37.3826 16.8463 38.2887 17.2216 38.9567 17.8896C39.6248 18.5577 40.0001 19.4637 40.0001 20.4085C40.0001 21.3532 39.6248 22.2593 38.9567 22.9273C38.2887 23.5954 37.3826 23.9707 36.4379 23.9707H36.2776C35.7044 23.973 35.1445 24.1428 34.6666 24.4592C34.1888 24.7757 33.8139 25.225 33.5881 25.7518Z" fill="#C3E2FC"/>
<path d="M32.5252 24.7475C32.2899 25.2806 32.2198 25.8721 32.3237 26.4455C32.4277 27.0189 32.7011 27.548 33.1086 27.9647L33.2146 28.0707C33.5434 28.3991 33.8041 28.789 33.982 29.2181C34.1599 29.6473 34.2515 30.1074 34.2515 30.572C34.2515 31.0366 34.1599 31.4966 33.982 31.9258C33.8041 32.355 33.5434 32.7449 33.2146 33.0732C32.8863 33.4019 32.4964 33.6627 32.0672 33.8406C31.638 34.0185 31.178 34.1101 30.7134 34.1101C30.2488 34.1101 29.7887 34.0185 29.3596 33.8406C28.9304 33.6627 28.5405 33.4019 28.2121 33.0732L28.1061 32.9672C27.6895 32.5597 27.1603 32.2863 26.5869 32.1823C26.0135 32.0783 25.422 32.1485 24.8889 32.3838C24.3661 32.6079 23.9202 32.98 23.6061 33.4542C23.292 33.9285 23.1235 34.4842 23.1212 35.053V35.3535C23.1212 36.2912 22.7487 37.1904 22.0857 37.8534C21.4227 38.5164 20.5235 38.8889 19.5859 38.8889C18.6482 38.8889 17.749 38.5164 17.086 37.8534C16.423 37.1904 16.0505 36.2912 16.0505 35.3535V35.1944C16.0368 34.6094 15.8474 34.0419 15.507 33.5659C15.1665 33.0899 14.6907 32.7273 14.1414 32.5253C13.6083 32.29 13.0168 32.2198 12.4434 32.3237C11.87 32.4277 11.3408 32.7011 10.9242 33.1086L10.8182 33.2147C10.4898 33.5434 10.0999 33.8041 9.67075 33.982C9.24156 34.1599 8.78152 34.2515 8.31692 34.2515C7.85232 34.2515 7.39228 34.1599 6.96309 33.982C6.5339 33.8041 6.144 33.5434 5.81566 33.2147C5.48695 32.8863 5.22619 32.4964 5.04827 32.0672C4.87036 31.638 4.77878 31.178 4.77878 30.7134C4.77878 30.2488 4.87036 29.7887 5.04827 29.3596C5.22619 28.9304 5.48695 28.5405 5.81566 28.2121L5.92172 28.1061C6.32923 27.6895 6.6026 27.1603 6.70657 26.5869C6.81055 26.0135 6.74035 25.4221 6.50505 24.8889C6.28097 24.3661 5.90891 23.9202 5.43466 23.6061C4.96041 23.292 4.40467 23.1235 3.83586 23.1212H3.53535C2.59772 23.1212 1.69849 22.7487 1.03548 22.0857C0.372474 21.4227 0 20.5235 0 19.5859C0 18.6482 0.372474 17.749 1.03548 17.086C1.69849 16.423 2.59772 16.0505 3.53535 16.0505H3.69444C4.27954 16.0368 4.84698 15.8474 5.323 15.507C5.79903 15.1665 6.16162 14.6907 6.36364 14.1414C6.59894 13.6083 6.66913 13.0168 6.56516 12.4434C6.46119 11.87 6.18782 11.3408 5.7803 10.9242L5.67424 10.8182C5.34554 10.4898 5.08477 10.0999 4.90686 9.67075C4.72895 9.24157 4.63737 8.78152 4.63737 8.31692C4.63737 7.85232 4.72895 7.39228 4.90686 6.96309C5.08477 6.53391 5.34554 6.144 5.67424 5.81566C6.00258 5.48695 6.39249 5.22619 6.82168 5.04827C7.25086 4.87036 7.7109 4.77879 8.1755 4.77879C8.6401 4.77879 9.10015 4.87036 9.52933 5.04827C9.95852 5.22619 10.3484 5.48695 10.6768 5.81566L10.7828 5.92172C11.1994 6.32923 11.7286 6.6026 12.302 6.70657C12.8754 6.81055 13.4668 6.74036 14 6.50505H14.1414C14.6642 6.28098 15.1101 5.90891 15.4242 5.43466C15.7383 4.96041 15.9068 4.40467 15.9091 3.83586V3.53535C15.9091 2.59772 16.2816 1.69849 16.9446 1.03548C17.6076 0.372474 18.5068 0 19.4444 0C20.3821 0 21.2813 0.372474 21.9443 1.03548C22.6073 1.69849 22.9798 2.59772 22.9798 3.53535V3.69444C22.9821 4.26326 23.1506 4.819 23.4647 5.29325C23.7788 5.7675 24.2246 6.13956 24.7475 6.36364C25.2806 6.59894 25.8721 6.66913 26.4455 6.56516C27.0189 6.46119 27.548 6.18782 27.9646 5.7803L28.0707 5.67424C28.399 5.34554 28.789 5.08478 29.2181 4.90686C29.6473 4.72895 30.1074 4.63737 30.572 4.63737C31.0366 4.63737 31.4966 4.72895 31.9258 4.90686C32.355 5.08478 32.7449 5.34554 33.0732 5.67424C33.4019 6.00258 33.6627 6.39249 33.8406 6.82168C34.0185 7.25086 34.1101 7.71091 34.1101 8.17551C34.1101 8.64011 34.0185 9.10015 33.8406 9.52933C33.6627 9.95852 33.4019 10.3484 33.0732 10.6768L32.9672 10.7828C32.5597 11.1994 32.2863 11.7286 32.1823 12.302C32.0783 12.8754 32.1485 13.4668 32.3838 14V14.1414C32.6079 14.6642 32.98 15.1101 33.4542 15.4242C33.9285 15.7383 34.4842 15.9068 35.053 15.9091H35.3535C36.2912 15.9091 37.1904 16.2816 37.8534 16.9446C38.5164 17.6076 38.8889 18.5068 38.8889 19.4444C38.8889 20.3821 38.5164 21.2813 37.8534 21.9443C37.1904 22.6073 36.2912 22.9798 35.3535 22.9798H35.1944C34.6256 22.9821 34.0699 23.1506 33.5956 23.4647C33.1214 23.7788 32.7493 24.2247 32.5252 24.7475Z" fill="#E8F3FC"/>
<path d="M26.2655 20.3921C26.2655 18.6768 25.262 17.1939 23.8058 16.5022C23.3234 16.273 23.1181 15.6961 23.3472 15.2137C23.5764 14.7313 24.1534 14.5259 24.6358 14.7551C26.741 15.7552 28.1997 17.9024 28.1997 20.3921C28.1997 23.8371 25.4069 26.6299 21.9619 26.6299H20.5321L21.1399 27.2377C21.5175 27.6154 21.5175 28.2278 21.1399 28.6055C20.7622 28.9831 20.1499 28.9831 19.7722 28.6055L17.5134 26.3466C17.1357 25.9689 17.1357 25.3566 17.5134 24.9789L19.7722 22.7201C20.1499 22.3424 20.7622 22.3424 21.1399 22.7201C21.5175 23.0978 21.5175 23.7101 21.1399 24.0878L20.5319 24.6957H21.9619C24.3387 24.6957 26.2655 22.7689 26.2655 20.3921ZM11.2065 20.3921C11.2065 16.9471 13.9993 14.1543 17.4443 14.1543H18.8742L18.2664 13.5465C17.8887 13.1689 17.8887 12.5564 18.2664 12.1787C18.6441 11.8011 19.2564 11.8011 19.634 12.1787L21.8928 14.4377C22.2705 14.8153 22.2705 15.4276 21.8928 15.8053L19.634 18.0641C19.2564 18.4418 18.6441 18.4418 18.2664 18.0641C17.8887 17.6864 17.8887 17.0741 18.2664 16.6964L18.8743 16.0885H17.4443C15.0675 16.0885 13.1407 18.0153 13.1407 20.3921C13.1407 22.1074 14.1442 23.5903 15.6004 24.2821C16.0828 24.5113 16.2882 25.0881 16.059 25.5705C15.8298 26.053 15.2528 26.2583 14.7704 26.0291C12.6652 25.029 11.2065 22.8819 11.2065 20.3921Z" fill="#253A81"/>
<path d="M26.0325 19.5302C26.0325 17.8306 25.0382 16.3613 23.5953 15.6758C23.1173 15.4487 22.9139 14.8772 23.141 14.3992C23.368 13.9211 23.9397 13.7177 24.4178 13.9448C26.5036 14.9357 27.949 17.0632 27.949 19.5302C27.949 22.9436 25.1818 25.7109 21.7683 25.7109H20.3515L20.9538 26.3131C21.328 26.6873 21.328 27.2942 20.9538 27.6684C20.5795 28.0425 19.9728 28.0426 19.5986 27.6684L17.3605 25.4301C16.9863 25.0559 16.9863 24.4492 17.3605 24.075L19.5986 21.8369C19.9728 21.4627 20.5795 21.4627 20.9538 21.8369C21.328 22.2111 21.328 22.8178 20.9538 23.192L20.3514 23.7944H21.7683C24.1233 23.7944 26.0325 21.8852 26.0325 19.5302ZM11.1113 19.5302C11.1113 16.1167 13.8786 13.3495 17.292 13.3495H18.7088L18.1066 12.7472C17.7324 12.373 17.7324 11.7662 18.1066 11.392C18.4808 11.0178 19.0875 11.0178 19.4617 11.392L21.6998 13.6302C22.0741 14.0044 22.0741 14.6111 21.6998 14.9854L19.4617 17.2235C19.0875 17.5977 18.4808 17.5977 18.1066 17.2235C17.7324 16.8493 17.7324 16.2425 18.1066 15.8683L18.709 15.266H17.292C14.937 15.266 13.0278 17.1751 13.0278 19.5302C13.0278 21.2298 14.0221 22.6991 15.465 23.3845C15.943 23.6116 16.1465 24.1832 15.9194 24.6612C15.6923 25.1392 15.1206 25.3427 14.6426 25.1156C12.5567 24.1247 11.1113 21.9971 11.1113 19.5302Z" fill="#354E96"/>
</svg>
