<svg width="60" height="60" viewBox="0 0 60 60" fill="none" xmlns="http://www.w3.org/2000/svg">
<path d="M29.5225 26C28.9702 26 28.5225 25.1114 28.5225 24.0154V17.9846C28.5225 16.8886 28.9702 16 29.5225 16C30.0747 16 30.5225 16.8886 30.5225 17.9846V24.0154C30.5225 25.1114 30.0747 26 29.5225 26Z" fill="#5CBDF8"/>
<path fill-rule="evenodd" clip-rule="evenodd" d="M37.2544 10.811C32.9929 6.71041 26.0841 6.71041 21.8225 10.811C21.08 11.5255 19.8532 11.5255 19.0784 10.811C18.3359 10.0965 18.3359 8.91601 19.0784 8.17045C24.8573 2.60985 34.2197 2.60985 39.9663 8.17045C40.7088 8.88495 40.7088 10.0654 39.9663 10.811C39.256 11.5255 38.0292 11.5255 37.2544 10.811ZM32.9283 14.3462C31.0558 12.5444 28.0534 12.5444 26.1809 14.3462C25.4384 15.0607 24.2116 15.0607 23.4368 14.3462C22.6942 13.6317 22.6942 12.4512 23.4368 11.7057C26.7943 8.47495 32.2826 8.47495 35.6402 11.7057C36.3827 12.4202 36.3827 13.6006 35.6402 14.3462C34.8976 15.0918 33.6708 15.0918 32.9283 14.3462ZM32.0889 17.5148C32.0889 18.8817 30.9267 20 29.5062 20C28.0857 20 26.9234 18.8817 26.9234 17.5148C26.9234 16.148 28.0857 15.0296 29.5062 15.0296C30.9267 15.0296 32.0889 16.148 32.0889 17.5148Z" fill="url(#paint0_linear_1002_6211)"/>
<path d="M29.522 21C31.172 21 32.522 19.65 32.522 18C32.522 16.35 31.172 15 29.522 15C27.872 15 26.522 16.35 26.522 18C26.522 19.65 27.872 21 29.522 21Z" fill="url(#paint1_linear_1002_6211)"/>
<path d="M4.75122 48.6347H7.62544V31.9395H4.75122C2.12721 31.9395 0 34.0667 0 36.6907V43.8834C0 46.5075 2.12721 48.6347 4.75122 48.6347Z" fill="#5CBDF8"/>
<path d="M55.2488 48.6347H52.3745V31.9395H55.2487C57.8727 31.9395 60 34.0667 60 36.6907V43.8834C60 46.5075 57.8728 48.6347 55.2488 48.6347Z" fill="#5CBDF8"/>
<path d="M47.6017 56H12.4427C9.72426 56 7.52051 53.8058 7.52051 51.0991V28.9009C7.52051 26.1942 9.72426 24 12.4427 24H47.6017C50.3202 24 52.5239 26.1942 52.5239 28.9009V51.099C52.5239 53.8057 50.3202 56 47.6017 56Z" fill="url(#paint2_linear_1002_6211)"/>
<path d="M38.68 44.4147C40.9033 44.4147 42.7057 42.6123 42.7057 40.389C42.7057 38.1656 40.9033 36.3633 38.68 36.3633C36.4567 36.3633 34.6543 38.1656 34.6543 40.389C34.6543 42.6123 36.4567 44.4147 38.68 44.4147Z" fill="white"/>
<path d="M21.483 44.4147C23.7063 44.4147 25.5086 42.6123 25.5086 40.389C25.5086 38.1656 23.7063 36.3633 21.483 36.3633C19.2596 36.3633 17.4573 38.1656 17.4573 40.389C17.4573 42.6123 19.2596 44.4147 21.483 44.4147Z" fill="white"/>
<defs>
<linearGradient id="paint0_linear_1002_6211" x1="18.5215" y1="4" x2="40.5232" y2="4" gradientUnits="userSpaceOnUse">
<stop stop-color="#1570EF"/>
<stop offset="1" stop-color="#2E90FA"/>
</linearGradient>
<linearGradient id="paint1_linear_1002_6211" x1="23.5148" y1="17.9932" x2="33.5626" y2="0.590236" gradientUnits="userSpaceOnUse">
<stop stop-color="#006BFC"/>
<stop offset="1" stop-color="#97E6FF"/>
</linearGradient>
<linearGradient id="paint2_linear_1002_6211" x1="7.52051" y1="24" x2="52.5239" y2="24" gradientUnits="userSpaceOnUse">
<stop stop-color="#1570EF"/>
<stop offset="1" stop-color="#2E90FA"/>
</linearGradient>
</defs>
</svg>
