<svg width="12" height="12" viewBox="0 0 12 12" fill="none" xmlns="http://www.w3.org/2000/svg">
<g clip-path="url(#clip0_580_1987)">
<path d="M4.875 10.3753L5.61149 10.7844C5.75329 10.8632 5.82419 10.9026 5.89928 10.9181C5.96573 10.9317 6.03427 10.9317 6.10073 10.9181C6.17581 10.9026 6.24671 10.8632 6.38852 10.7844L7.125 10.3753M2.625 9.12529L1.91149 8.72889C1.76173 8.64569 1.68684 8.60409 1.63232 8.54492C1.58408 8.49257 1.54757 8.43053 1.52524 8.36295C1.5 8.28655 1.5 8.20088 1.5 8.02956V7.25029M1.5 4.75029V3.97101C1.5 3.79969 1.5 3.71403 1.52524 3.63763C1.54757 3.57004 1.58408 3.508 1.63232 3.45565C1.68684 3.39649 1.76172 3.35489 1.91149 3.27168L2.625 2.87529M4.875 1.62529L5.61149 1.21613C5.75329 1.13735 5.82419 1.09796 5.89928 1.08252C5.96573 1.06885 6.03427 1.06885 6.10073 1.08252C6.17581 1.09796 6.24671 1.13735 6.38852 1.21613L7.125 1.62529M9.375 2.87529L10.0885 3.27168C10.2383 3.35488 10.3132 3.39648 10.3677 3.45565C10.4159 3.508 10.4524 3.57004 10.4748 3.63763C10.5 3.71403 10.5 3.79969 10.5 3.97101V4.75029M10.5 7.25029V8.02956C10.5 8.20088 10.5 8.28655 10.4748 8.36295C10.4524 8.43053 10.4159 8.49257 10.3677 8.54492C10.3132 8.60409 10.2383 8.64569 10.0885 8.72889L9.375 9.12529M4.875 5.37529L6 6.00029M6 6.00029L7.125 5.37529M6 6.00029V7.25029M1.5 3.50029L2.625 4.12529M9.375 4.12529L10.5 3.50029M6 9.75029V11.0003" stroke="#2E90FA" stroke-width="1.2" stroke-linecap="round" stroke-linejoin="round"/>
</g>
<defs>
<clipPath id="clip0_580_1987">
<rect width="12" height="12" fill="white"/>
</clipPath>
</defs>
</svg>
