<svg width="16" height="16" viewBox="0 0 16 16" fill="none" xmlns="http://www.w3.org/2000/svg">
<g clip-path="url(#clip0_514_14804)">
<path d="M14.6668 7.39016V8.00349C14.666 9.44111 14.2005 10.8399 13.3397 11.9914C12.4789 13.1428 11.269 13.9851 9.8904 14.3928C8.51178 14.8004 7.03834 14.7514 5.68981 14.2532C4.34128 13.755 3.18993 12.8342 2.40747 11.6282C1.62501 10.4222 1.25336 8.99553 1.34795 7.56103C1.44254 6.12653 1.9983 4.76104 2.93235 3.66821C3.8664 2.57537 5.12869 1.81375 6.53096 1.49692C7.93322 1.1801 9.40034 1.32505 10.7135 1.91016M14.6668 2.66634L8.00016 9.33967L6.00016 7.33967" stroke="#16B364" stroke-width="1.5" stroke-linecap="round" stroke-linejoin="round"/>
</g>
<defs>
<clipPath id="clip0_514_14804">
<rect width="16" height="16" fill="white"/>
</clipPath>
</defs>
</svg>
