<svg width="40" height="40" viewBox="0 0 40 40" fill="none" xmlns="http://www.w3.org/2000/svg">
<path d="M0 6.77191C0 3.1126 3.03468 0.146139 6.77815 0.146139H33.2219C36.9654 0.146139 40 3.1126 40 6.77191V33.3742C40 37.0335 36.9654 40 33.2219 40H6.77815C3.03468 40 0 37.0335 0 33.3742V6.77191Z" fill="#CFE6F9"/>
<path d="M6.39023e-06 6.44266C6.39023e-06 3.0273 2.83238 0.258599 6.32628 0.258599H31.7775C35.2714 0.258599 38.1038 3.02729 38.1038 6.44265V32.0747C38.1038 35.4901 35.2714 38.2588 31.7775 38.2588H6.32629C2.83238 38.2588 6.39023e-06 35.4901 6.39023e-06 32.0747V6.44266Z" fill="#E8F3FC"/>
<path d="M6.39023e-06 6.18406C6.39023e-06 2.7687 2.83238 0 6.32628 0H33.6738C37.1677 0 40.0001 2.7687 40.0001 6.18406V12.0488H6.39023e-06V6.18406Z" fill="#CFE6F9"/>
<path d="M6.39023e-06 6.18406C6.39023e-06 2.7687 2.83238 0 6.32628 0H31.7775C35.2714 0 38.1038 2.7687 38.1038 6.18406V12.0488H6.39023e-06V6.18406Z" fill="#E8F3FC"/>
<path d="M16.5619 32.9908L18.8246 22.4227H12.2803C12.1034 22.4227 11.9301 22.3737 11.7794 22.2811C11.6288 22.1884 11.5068 22.0558 11.427 21.898C11.3473 21.7402 11.3128 21.5634 11.3275 21.3872C11.3423 21.2109 11.4056 21.0423 11.5104 20.8999L21.958 6.71589C22.034 6.61108 22.1437 6.53567 22.2688 6.50235C22.3939 6.46904 22.5266 6.47987 22.6446 6.53301C22.7627 6.58616 22.8587 6.67837 22.9167 6.7941C22.9747 6.90983 22.9909 7.04201 22.9628 7.16834L20.7001 17.7341H27.2444C27.4213 17.7341 27.5946 17.7831 27.7453 17.8758C27.8959 17.9684 28.0179 18.101 28.0977 18.2588C28.1774 18.4166 28.2119 18.5935 28.1972 18.7697C28.1825 18.9459 28.1192 19.1146 28.0143 19.257L17.5667 33.4433C17.4907 33.5481 17.381 33.6235 17.2559 33.6568C17.1308 33.6901 16.9981 33.6793 16.8801 33.6262C16.7621 33.573 16.666 33.4808 16.608 33.3651C16.5501 33.2494 16.5338 33.1172 16.5619 32.9908Z" fill="url(#paint0_linear_656_3591)"/>
<path d="M16.0932 32.0533L18.3559 21.4852H11.8115C11.6347 21.4852 11.4613 21.4362 11.3107 21.3436C11.1601 21.2509 11.0381 21.1183 10.9583 20.9605C10.8785 20.8027 10.8441 20.6259 10.8588 20.4497C10.8735 20.2734 10.9368 20.1048 11.0417 19.9624L21.4893 5.77839C21.5652 5.67358 21.675 5.59817 21.8001 5.56485C21.9251 5.53154 22.0579 5.54237 22.1759 5.59551C22.2939 5.64866 22.39 5.74087 22.4479 5.8566C22.5059 5.97233 22.5222 6.10451 22.4941 6.23084L20.2313 16.7966H26.7757C26.9525 16.7966 27.1259 16.8456 27.2765 16.9383C27.4271 17.0309 27.5491 17.1635 27.6289 17.3213C27.7087 17.4791 27.7431 17.656 27.7284 17.8322C27.7137 18.0084 27.6504 18.1771 27.5456 18.3195L17.0979 32.5058C17.022 32.6106 16.9122 32.686 16.7871 32.7193C16.6621 32.7526 16.5293 32.7418 16.4113 32.6887C16.2933 32.6355 16.1972 32.5433 16.1393 32.4276C16.0813 32.3119 16.065 32.1797 16.0932 32.0533Z" fill="url(#paint1_linear_656_3591)"/>
<defs>
<linearGradient id="paint0_linear_656_3591" x1="11.324" y1="33.6756" x2="35.6911" y2="18.5528" gradientUnits="userSpaceOnUse">
<stop stop-color="#0017E4"/>
<stop offset="1" stop-color="#3793FF"/>
</linearGradient>
<linearGradient id="paint1_linear_656_3591" x1="10.8555" y1="5.5459" x2="35.2225" y2="20.6687" gradientUnits="userSpaceOnUse">
<stop stop-color="#89F7FE"/>
<stop offset="1" stop-color="#66A6FF"/>
</linearGradient>
</defs>
</svg>
