<svg viewBox="0 0 244 36" fill="none" xmlns="http://www.w3.org/2000/svg">
<g clip-path="url(#clip0_800_4126)">
<path fill-rule="evenodd" clip-rule="evenodd" d="M0 10.0139L17.8837 0L20.8964 1.68688L6.62952 9.73297L17.8831 16.0343L32.1494 7.98823L35.7669 10.0133L17.8837 20.0272L0.000638684 10.0139H0Z" fill="#00D2FF"/>
<path fill-rule="evenodd" clip-rule="evenodd" d="M0 25.9858L5.1861 23.1328L8.19877 24.8203L6.62952 25.7056L17.8831 32.0063L32.1494 23.9602L35.7669 25.9852L17.8837 35.9997L0.000638684 25.9858H0Z" fill="#016AFB"/>
<path fill-rule="evenodd" clip-rule="evenodd" d="M0 18.0002L5.1861 15.1484L8.19877 16.8347L6.62952 17.7199L17.8831 24.0213L32.1494 15.9745L35.7669 18.0002L17.8837 28.0141L0.000638684 18.0002H0Z" fill="#03A0FF"/>
<path fill-rule="evenodd" clip-rule="evenodd" d="M47.1364 18.025C47.1364 22.7488 50.9142 26.5044 55.6072 26.5044C57.6957 26.5044 59.7146 25.7728 61.3107 24.2139C61.4742 24.0486 61.4978 23.7407 61.3337 23.5755L59.5038 21.6148C59.3633 21.4495 59.0574 21.4495 58.8932 21.591C58.0489 22.3238 56.8514 22.7256 55.749 22.7256C53.0966 22.7256 51.1262 20.5527 51.1262 17.9299C51.1262 15.307 53.0742 13.0634 55.7254 13.0634C56.875 13.0634 58.0253 13.4889 58.8932 14.2681C58.9315 14.3074 58.9773 14.3387 59.0277 14.36C59.0781 14.3814 59.1323 14.3924 59.187 14.3924C59.2418 14.3924 59.2959 14.3814 59.3464 14.36C59.3968 14.3387 59.4425 14.3074 59.4808 14.2681L61.3113 12.3543C61.4991 12.1659 61.4991 11.8818 61.2883 11.6928C59.6922 10.229 57.955 9.49611 55.6079 9.49611C54.4946 9.49366 53.3919 9.71256 52.3629 10.1402C51.334 10.5679 50.3991 11.196 49.6119 11.9883C48.8248 12.7807 48.2009 13.7218 47.7761 14.7575C47.3512 15.7932 47.1339 16.9032 47.1364 18.0237V18.025ZM66.9291 18.025C66.9291 22.7488 70.6603 26.5044 75.3547 26.5044C80.049 26.5044 83.8025 22.7488 83.8025 18.025C83.8025 13.3012 80.0477 9.4974 75.3547 9.4974C70.6616 9.4974 66.9291 13.2999 66.9291 18.025ZM70.684 18.025C70.684 15.4265 72.7961 13.2781 75.3534 13.2781C77.9107 13.2781 80.0464 15.4272 80.0464 18.025C80.0464 20.6228 77.9343 22.7256 75.3534 22.7256C72.7725 22.7256 70.684 20.5997 70.684 18.025ZM90.7111 25.821C90.7111 26.0569 90.8983 26.2704 91.1569 26.2704H99.981C100.239 26.2704 100.427 26.0582 100.427 25.8204V23.2457C100.428 23.1866 100.416 23.1281 100.394 23.0734C100.371 23.0188 100.339 22.9692 100.297 22.9273C100.256 22.8855 100.206 22.8524 100.152 22.8298C100.098 22.8072 100.04 22.7956 99.981 22.7957H94.3951V10.1827C94.3914 10.0647 94.3433 9.95259 94.2605 9.86902C94.1777 9.78545 94.0664 9.73671 93.9492 9.73269H91.1563C91.0976 9.7326 91.0394 9.74419 90.9852 9.76678C90.931 9.78938 90.8817 9.82253 90.8402 9.86434C90.7987 9.90615 90.7658 9.9558 90.7435 10.0104C90.7211 10.0651 90.7097 10.1236 90.7099 10.1827V25.8197L90.7111 25.821ZM106.773 25.821C106.773 26.0569 106.96 26.2704 107.219 26.2704H116.043C116.301 26.2704 116.489 26.0582 116.489 25.8204V23.2457C116.489 23.1866 116.478 23.1281 116.455 23.0734C116.433 23.0188 116.4 22.9692 116.359 22.9273C116.317 22.8855 116.268 22.8524 116.214 22.8298C116.159 22.8072 116.101 22.7956 116.043 22.7957H110.457V10.1827C110.453 10.0647 110.405 9.95259 110.322 9.86902C110.239 9.78545 110.128 9.73671 110.011 9.73269H107.218C107.159 9.7326 107.101 9.74419 107.047 9.76678C106.993 9.78938 106.943 9.82253 106.902 9.86434C106.86 9.90615 106.827 9.9558 106.805 10.0104C106.783 10.0651 106.771 10.1236 106.771 10.1827V25.8197L106.773 25.821ZM121.894 26.2704H124.476C124.946 26.2704 125.204 25.9875 125.321 25.7027L126.166 23.8127H132.549L133.394 25.6796C133.605 26.1289 133.792 26.2704 134.216 26.2704H136.821C137.173 26.2704 137.361 25.9637 137.221 25.6558L129.875 9.75776C129.805 9.61633 129.641 9.49869 129.475 9.49869H129.241C129.077 9.49869 128.913 9.61633 128.843 9.75776L121.498 25.6558C121.357 25.9624 121.544 26.2704 121.897 26.2704H121.894ZM127.574 20.6003L129.334 16.7033H129.357L131.14 20.6003H127.573H127.574ZM144.481 25.8204C144.481 26.0569 144.691 26.2704 144.926 26.2704H147.743C147.977 26.2704 148.189 26.0582 148.189 25.8204V13.2074H151.544C151.802 13.2074 151.991 12.9952 151.991 12.7574V10.1827C151.991 10.1236 151.98 10.0651 151.957 10.0104C151.935 9.9558 151.902 9.90615 151.86 9.86434C151.819 9.82253 151.77 9.78938 151.715 9.76678C151.661 9.74419 151.603 9.7326 151.544 9.73269H141.125C141.066 9.73269 141.008 9.74433 140.954 9.76696C140.9 9.78958 140.85 9.82274 140.809 9.86453C140.768 9.90633 140.735 9.95594 140.712 10.0105C140.69 10.0651 140.678 10.1236 140.678 10.1827V12.758C140.678 12.9933 140.866 13.2067 141.125 13.2067H144.481V25.8204ZM158.406 25.8204C158.406 26.0569 158.593 26.2704 158.853 26.2704H168.568C168.826 26.2704 169.014 26.0582 169.014 25.8204V23.2457C169.014 23.1866 169.003 23.1281 168.981 23.0734C168.958 23.0188 168.925 22.9692 168.884 22.9273C168.842 22.8855 168.793 22.8524 168.739 22.8298C168.685 22.8072 168.627 22.7956 168.568 22.7957H162.067V19.6084H167.418C167.536 19.6084 167.649 19.561 167.733 19.4768C167.817 19.3925 167.864 19.2782 167.864 19.159V16.5837C167.86 16.4657 167.812 16.3537 167.729 16.2702C167.646 16.1868 167.535 16.1382 167.418 16.1343H162.067V13.2054H168.568C168.826 13.2054 169.014 12.9933 169.014 12.7561V10.1808C169.014 10.1217 169.003 10.0633 168.98 10.0087C168.958 9.95414 168.925 9.90457 168.884 9.86283C168.842 9.82108 168.793 9.78799 168.739 9.76544C168.685 9.74288 168.626 9.73132 168.568 9.7314H158.853C158.794 9.73132 158.736 9.74288 158.682 9.76544C158.628 9.78799 158.578 9.82108 158.537 9.86283C158.495 9.90457 158.463 9.95414 158.44 10.0087C158.418 10.0633 158.406 10.1217 158.406 10.1808V25.8204Z" fill="#162044"/>
<path d="M240.146 14.4887C239.903 14.4887 239.705 14.3018 239.64 14.067C239.516 13.6148 239.264 13.2494 238.886 12.9707C238.396 12.61 237.731 12.4297 236.891 12.4297C236.321 12.4297 235.839 12.5105 235.446 12.6719C235.053 12.828 234.752 13.0461 234.542 13.326C234.337 13.6059 234.235 13.9235 234.235 14.2787C234.224 14.5748 234.286 14.8332 234.421 15.0538C234.561 15.2745 234.752 15.4656 234.994 15.6271C235.236 15.7832 235.516 15.9205 235.834 16.0389C236.151 16.1519 236.49 16.2488 236.851 16.3296L238.337 16.6848C239.058 16.8463 239.72 17.0616 240.323 17.3308C240.926 17.5999 241.448 17.931 241.889 18.3239C242.331 18.7169 242.672 19.1798 242.915 19.7127C243.162 20.2456 243.289 20.8565 243.294 21.5455C243.289 22.5575 243.03 23.4349 242.519 24.1778C242.013 24.9152 241.281 25.4885 240.323 25.8976C239.37 26.3013 238.221 26.5031 236.875 26.5031C235.54 26.5031 234.377 26.2986 233.387 25.8895C232.402 25.4804 231.632 24.8748 231.078 24.0728C230.605 23.3773 230.326 22.5401 230.24 21.5611C230.217 21.2963 230.433 21.0772 230.698 21.0772H233.154C233.404 21.0772 233.605 21.2716 233.656 21.5156C233.732 21.8803 233.871 22.1972 234.073 22.466C234.359 22.832 234.738 23.1093 235.212 23.2977C235.691 23.4807 236.232 23.5722 236.835 23.5722C237.427 23.5722 237.941 23.4861 238.377 23.3138C238.818 23.1416 239.16 22.902 239.402 22.5952C239.645 22.2884 239.766 21.9358 239.766 21.5375C239.766 21.1661 239.655 20.8539 239.435 20.6009C239.219 20.3479 238.902 20.1326 238.482 19.9549C238.067 19.7773 237.559 19.6158 236.956 19.4705L235.155 19.0183C233.761 18.6792 232.66 18.149 231.853 17.4277C231.046 16.7064 230.644 15.7348 230.65 14.5129C230.644 13.5117 230.911 12.637 231.449 11.8887C231.993 11.1405 232.738 10.5565 233.686 10.1366C234.633 9.71677 235.71 9.50684 236.915 9.50684C238.143 9.50684 239.214 9.71677 240.129 10.1366C241.05 10.5565 241.765 11.1405 242.277 11.8887C242.703 12.5128 242.958 13.2192 243.04 14.0081C243.067 14.2713 242.851 14.4887 242.587 14.4887H240.146Z" fill="#03A0FF"/>
<path d="M227.251 14.9952C227.302 15.2742 227.081 15.5222 226.797 15.5222H224.205C223.969 15.5222 223.773 15.3473 223.716 15.1182C223.642 14.8217 223.536 14.55 223.398 14.3029C223.199 13.9423 222.943 13.6355 222.631 13.3825C222.319 13.1295 221.958 12.9357 221.549 12.8011C221.145 12.6666 220.706 12.5993 220.233 12.5993C219.377 12.5993 218.631 12.8119 217.996 13.2371C217.361 13.657 216.869 14.2706 216.519 15.0781C216.169 15.8801 215.994 16.8544 215.994 18.001C215.994 19.1798 216.169 20.1702 216.519 20.9723C216.874 21.7743 217.369 22.3799 218.004 22.789C218.639 23.1981 219.374 23.4026 220.209 23.4026C220.677 23.4026 221.11 23.3407 221.509 23.2169C221.912 23.0931 222.27 22.9128 222.582 22.6759C222.895 22.4337 223.153 22.1404 223.358 21.7958C223.504 21.5552 223.619 21.291 223.703 21.0031C223.767 20.7826 223.961 20.6178 224.19 20.6188L226.798 20.6307C227.082 20.632 227.302 20.8805 227.244 21.1578C227.125 21.7308 226.925 22.288 226.644 22.8294C226.283 23.5291 225.796 24.1562 225.182 24.7107C224.574 25.2597 223.847 25.6957 223.002 26.0187C222.163 26.3363 221.212 26.4951 220.152 26.4951C218.677 26.4951 217.358 26.1613 216.196 25.4939C215.038 24.8264 214.123 23.8602 213.45 22.5952C212.783 21.3302 212.449 19.7988 212.449 18.001C212.449 16.1977 212.788 14.6636 213.467 13.3986C214.145 12.1337 215.065 11.1701 216.228 10.508C217.391 9.84057 218.699 9.50684 220.152 9.50684C221.11 9.50684 221.998 9.64141 222.817 9.91055C223.64 10.1797 224.37 10.5726 225.005 11.0894C225.64 11.6008 226.157 12.2279 226.555 12.9707C226.883 13.5744 227.115 14.2493 227.251 14.9952Z" fill="#03A0FF"/>
<path d="M209.241 18.001C209.241 19.8042 208.899 21.3383 208.216 22.6033C207.538 23.8682 206.612 24.8345 205.438 25.5019C204.27 26.164 202.957 26.4951 201.498 26.4951C200.029 26.4951 198.71 26.1613 197.542 25.4939C196.374 24.8264 195.45 23.8602 194.772 22.5952C194.094 21.3302 193.755 19.7988 193.755 18.001C193.755 16.1977 194.094 14.6636 194.772 13.3986C195.45 12.1337 196.374 11.1701 197.542 10.508C198.71 9.84057 200.029 9.50684 201.498 9.50684C202.957 9.50684 204.27 9.84057 205.438 10.508C206.612 11.1701 207.538 12.1337 208.216 13.3986C208.899 14.6636 209.241 16.1977 209.241 18.001ZM205.697 18.001C205.697 16.8329 205.522 15.8478 205.172 15.0458C204.827 14.2437 204.34 13.6355 203.71 13.221C203.081 12.8065 202.343 12.5993 201.498 12.5993C200.653 12.5993 199.916 12.8065 199.286 13.221C198.656 13.6355 198.166 14.2437 197.816 15.0458C197.472 15.8478 197.299 16.8329 197.299 18.001C197.299 19.169 197.472 20.1541 197.816 20.9561C198.166 21.7582 198.656 22.3664 199.286 22.7809C199.916 23.1954 200.653 23.4026 201.498 23.4026C202.343 23.4026 203.081 23.1954 203.71 22.7809C204.34 22.3664 204.827 21.7582 205.172 20.9561C205.522 20.1541 205.697 19.169 205.697 18.001Z" fill="#03A0FF"/>
<path d="M182.456 26.2685H177.067C176.806 26.2685 176.594 26.0564 176.594 25.7948V10.2061C176.594 9.9445 176.806 9.73242 177.067 9.73242H182.504C184.167 9.73242 185.599 10.0635 186.8 10.7256C188 11.3823 188.923 12.3269 189.569 13.5596C190.22 14.7923 190.546 16.2672 190.546 17.9843C190.546 19.7068 190.22 21.1871 189.569 22.4251C188.923 23.6632 187.995 24.6133 186.783 25.2754C185.578 25.9374 184.135 26.2685 182.456 26.2685ZM180.09 23.2729H182.31C183.344 23.2729 184.213 23.0899 184.918 22.7239C185.629 22.3525 186.162 21.7792 186.517 21.0041C186.878 20.2236 187.058 19.217 187.058 17.9843C187.058 16.7624 186.878 15.7639 186.517 14.9888C186.162 14.2136 185.632 13.6431 184.926 13.277C184.221 12.911 183.352 12.728 182.318 12.728H180.09V23.2729Z" fill="#03A0FF"/>
</g>
<defs>
<clipPath id="clip0_800_4126">
<rect width="243.293" height="36" fill="white"/>
</clipPath>
</defs>
</svg>
