<svg width="268" height="54" viewBox="0 0 268 54" fill="none" xmlns="http://www.w3.org/2000/svg">
<g clip-path="url(#clip0_288_2299)">
<path fill-rule="evenodd" clip-rule="evenodd" d="M0.5 15.0226L28.501 0.0788116L33.218 2.59614L10.88 14.6034L28.5 24.0079L50.837 12.0006L56.501 15.0226L28.501 29.9664L0.5 15.0226Z" fill="#00D2FF"/>
<path fill-rule="evenodd" clip-rule="evenodd" d="M0.5 38.8586L8.62 34.601L13.337 37.1193L10.881 38.4403L28.5 47.8429L50.837 35.8357L56.501 38.8576L28.501 53.8024L0.5 38.8586Z" fill="#016AFB"/>
<path fill-rule="evenodd" clip-rule="evenodd" d="M0.5 26.9406L8.62 22.6849L13.337 25.2013L10.881 26.5223L28.5 35.9259L50.837 23.9177L56.501 26.9406L28.501 41.8844L0.5 26.9406Z" fill="#03A0FF"/>
<path fill-rule="evenodd" clip-rule="evenodd" d="M75.7271 27.1967C75.7271 34.246 81.6421 39.8506 88.9901 39.8506C92.2601 39.8506 95.4211 38.7588 97.9201 36.4324C98.1761 36.1859 98.2131 35.7263 97.9561 35.4798L95.0911 32.5538C94.8711 32.3072 94.3921 32.3072 94.1351 32.5183C92.8131 33.6119 90.9381 34.2115 89.2121 34.2115C85.0591 34.2115 81.9741 30.9689 81.9741 27.0548C81.9741 23.1406 85.0241 19.7925 89.1751 19.7925C90.9751 19.7925 92.7761 20.4276 94.1351 21.5903C94.195 21.649 94.2666 21.6957 94.3456 21.7275C94.4246 21.7593 94.5094 21.7757 94.5951 21.7757C94.6807 21.7757 94.7655 21.7593 94.8445 21.7275C94.9235 21.6957 94.9951 21.649 95.0551 21.5903L97.9211 18.7343C98.2151 18.4532 98.2151 18.0292 97.8851 17.7472C95.3861 15.5627 92.666 14.4691 88.9921 14.4691C87.249 14.4654 85.5224 14.7921 83.9114 15.4303C82.3003 16.0685 80.8366 17.0058 79.6041 18.1882C78.3717 19.3707 77.3948 20.775 76.7296 22.3206C76.0645 23.8662 75.7241 25.5227 75.7281 27.1948L75.7271 27.1967ZM106.717 27.1967C106.717 34.246 112.559 39.8506 119.909 39.8506C127.259 39.8506 133.136 34.246 133.136 27.1967C133.136 20.1474 127.257 14.471 119.909 14.471C112.561 14.471 106.717 20.1455 106.717 27.1967ZM112.596 27.1967C112.596 23.3191 115.903 20.1129 119.907 20.1129C123.911 20.1129 127.255 23.32 127.255 27.1967C127.255 31.0735 123.948 34.2115 119.907 34.2115C115.866 34.2115 112.596 31.0389 112.596 27.1967ZM143.953 38.8308C143.953 39.1829 144.246 39.5014 144.652 39.5014H158.467C158.871 39.5014 159.166 39.1848 159.166 38.8298V34.9876C159.166 34.8994 159.148 34.8121 159.113 34.7306C159.078 34.649 159.027 34.5749 158.962 34.5125C158.897 34.4501 158.82 34.4007 158.735 34.367C158.65 34.3332 158.559 34.316 158.467 34.3161H149.721V15.4936C149.715 15.3176 149.64 15.1503 149.51 15.0255C149.381 14.9008 149.207 14.8281 149.023 14.8221H144.65C144.558 14.822 144.467 14.8393 144.382 14.873C144.297 14.9067 144.22 14.9562 144.155 15.0186C144.09 15.081 144.039 15.155 144.004 15.2366C143.969 15.3181 143.951 15.4055 143.951 15.4936V38.8289L143.953 38.8308ZM169.101 38.8308C169.101 39.1829 169.394 39.5014 169.8 39.5014H183.615C184.019 39.5014 184.314 39.1848 184.314 38.8298V34.9876C184.314 34.8994 184.296 34.8121 184.261 34.7306C184.226 34.649 184.175 34.5749 184.11 34.5125C184.045 34.4501 183.968 34.4007 183.883 34.367C183.798 34.3332 183.707 34.316 183.615 34.3161H174.869V15.4936C174.863 15.3176 174.788 15.1503 174.658 15.0255C174.529 14.9008 174.355 14.8281 174.171 14.8221H169.798C169.706 14.822 169.615 14.8393 169.53 14.873C169.445 14.9067 169.368 14.9562 169.303 15.0186C169.238 15.081 169.187 15.155 169.152 15.2366C169.117 15.3181 169.099 15.4055 169.099 15.4936V38.8289L169.101 38.8308ZM192.778 39.5014H196.82C197.556 39.5014 197.959 39.0793 198.143 38.6543L199.465 35.8338H209.46L210.783 38.6197C211.113 39.2903 211.407 39.5014 212.069 39.5014H216.148C216.7 39.5014 216.994 39.0438 216.774 38.5842L205.273 14.8595C205.163 14.6485 204.906 14.4729 204.647 14.4729H204.28C204.024 14.4729 203.767 14.6485 203.657 14.8595L192.156 38.5842C191.936 39.0418 192.229 39.5014 192.781 39.5014H192.778ZM201.67 31.0399L204.425 25.2243H204.462L207.254 31.0399H201.668H201.67ZM228.141 38.8298C228.141 39.1829 228.471 39.5014 228.84 39.5014H233.249C233.616 39.5014 233.948 39.1848 233.948 38.8298V20.0074H239.201C239.605 20.0074 239.9 19.6908 239.9 19.3358V15.4936C239.9 15.4055 239.882 15.3181 239.847 15.2366C239.812 15.155 239.761 15.081 239.696 15.0186C239.631 14.9562 239.554 14.9067 239.469 14.873C239.384 14.8393 239.293 14.822 239.201 14.8221H222.887C222.795 14.8221 222.704 14.8395 222.619 14.8732C222.534 14.907 222.457 14.9565 222.392 15.0188C222.327 15.0812 222.276 15.1553 222.241 15.2367C222.206 15.3182 222.188 15.4055 222.188 15.4936V19.3368C222.188 19.6879 222.482 20.0064 222.887 20.0064H228.141V38.8298ZM249.945 38.8298C249.945 39.1829 250.238 39.5014 250.644 39.5014H265.855C266.259 39.5014 266.554 39.1848 266.554 38.8298V34.9876C266.554 34.8994 266.536 34.8121 266.501 34.7306C266.466 34.649 266.415 34.5749 266.35 34.5125C266.285 34.4501 266.208 34.4007 266.123 34.367C266.038 34.3332 265.947 34.316 265.855 34.3161H255.677V29.5596H264.054C264.239 29.5596 264.417 29.489 264.548 29.3632C264.679 29.2375 264.753 29.0669 264.753 28.889V25.0459C264.747 24.8699 264.671 24.7026 264.542 24.5781C264.412 24.4535 264.238 24.3811 264.054 24.3753H255.677V20.0045H265.855C266.259 20.0045 266.554 19.6879 266.554 19.3339V15.4908C266.554 15.4027 266.536 15.3154 266.501 15.234C266.466 15.1526 266.415 15.0786 266.35 15.0163C266.285 14.954 266.208 14.9046 266.123 14.871C266.038 14.8373 265.947 14.8201 265.855 14.8202H250.644C250.552 14.8201 250.461 14.8373 250.376 14.871C250.292 14.9046 250.214 14.954 250.15 15.0163C250.085 15.0786 250.033 15.1526 249.998 15.234C249.963 15.3154 249.945 15.4027 249.945 15.4908V38.8298Z" fill="white"/>
</g>
<defs>
<clipPath id="clip0_288_2299">
<rect width="267" height="53.7236" fill="white" transform="translate(0.5 0.0788116)"/>
</clipPath>
</defs>
</svg>
