<svg width="40" height="40" viewBox="0 0 40 40" fill="none" xmlns="http://www.w3.org/2000/svg">
<path d="M0 6.77191C0 3.1126 3.03468 0.146139 6.77815 0.146139H33.2219C36.9654 0.146139 40 3.1126 40 6.77191V33.3742C40 37.0335 36.9654 40 33.2219 40H6.77815C3.03468 40 0 37.0335 0 33.3742V6.77191Z" fill="#CFE6F9"/>
<path d="M6.39023e-06 6.44266C6.39023e-06 3.0273 2.83238 0.258599 6.32628 0.258599H31.7775C35.2714 0.258599 38.1038 3.02729 38.1038 6.44265V32.0747C38.1038 35.4901 35.2714 38.2588 31.7775 38.2588H6.32629C2.83238 38.2588 6.39023e-06 35.4901 6.39023e-06 32.0747V6.44266Z" fill="#E8F3FC"/>
<path d="M6.39023e-06 6.18406C6.39023e-06 2.7687 2.83238 0 6.32628 0H33.6738C37.1677 0 40.0001 2.7687 40.0001 6.18406V12.0488H6.39023e-06V6.18406Z" fill="#CFE6F9"/>
<path d="M6.39023e-06 6.18406C6.39023e-06 2.7687 2.83238 0 6.32628 0H31.7775C35.2714 0 38.1038 2.7687 38.1038 6.18406V12.0488H6.39023e-06V6.18406Z" fill="#E8F3FC"/>
<path d="M20.5954 33.2738C20.2768 33.2738 19.9712 33.1473 19.7459 32.922C19.5206 32.6967 19.394 32.3911 19.394 32.0724C19.394 31.7538 19.5206 31.4482 19.7459 31.2229C19.9712 30.9976 20.2768 30.871 20.5954 30.871H26.6024C26.9209 30.8707 27.2263 30.744 27.4516 30.5188C27.6768 30.2936 27.8035 29.9882 27.8038 29.6696V27.2668C27.8038 26.9482 27.9304 26.6426 28.1557 26.4173C28.381 26.192 28.6866 26.0654 29.0052 26.0654C29.3238 26.0654 29.6294 26.192 29.8547 26.4173C30.08 26.6426 30.2066 26.9482 30.2066 27.2668V29.6696C30.2056 30.6252 29.8255 31.5414 29.1498 32.217C28.4741 32.8927 27.558 33.2728 26.6024 33.2738H20.5954Z" fill="#354E96"/>
<path d="M29.0055 28.469C28.687 28.4687 28.3816 28.342 28.1564 28.1168C27.9311 27.8915 27.8045 27.5861 27.8041 27.2676V14.0522C27.8028 12.7781 27.296 11.5565 26.3951 10.6556C25.4942 9.75466 24.2727 9.24792 22.9986 9.24656H16.9916C15.7175 9.24792 14.4959 9.75466 13.595 10.6556C12.6941 11.5565 12.1874 12.7781 12.186 14.0522V27.0253C12.186 27.344 12.0594 27.6496 11.8341 27.8749C11.6088 28.1002 11.3032 28.2267 10.9846 28.2267C10.666 28.2267 10.3604 28.1002 10.1351 27.8749C9.90978 27.6496 9.7832 27.344 9.7832 27.0253V14.0522C9.78529 12.141 10.5454 10.3087 11.8968 8.95736C13.2482 7.60597 15.0804 6.84584 16.9916 6.84375H22.9986C24.9097 6.84584 26.742 7.60597 28.0933 8.95736C29.4447 10.3087 30.2048 12.141 30.2069 14.0522V27.2676C30.2066 27.5861 30.0799 27.8915 29.8547 28.1168C29.6295 28.342 29.3241 28.4687 29.0055 28.469Z" fill="#354E96"/>
<path d="M14.5883 16.873H10.3834C9.50747 16.8739 8.66764 17.2223 8.04824 17.8417C7.42885 18.4611 7.08048 19.3009 7.07959 20.1769V24.9825C7.08048 25.8585 7.42885 26.6983 8.04824 27.3177C8.66764 27.9371 9.50747 28.2855 10.3834 28.2864H14.5883C14.9865 28.286 15.3682 28.1277 15.6498 27.8461C15.9313 27.5646 16.0897 27.1828 16.0901 26.7846V18.3748C16.0897 17.9766 15.9313 17.5949 15.6498 17.3133C15.3682 17.0318 14.9865 16.8734 14.5883 16.873Z" fill="#5CBDF8"/>
<path d="M14.5879 16.873C14.9861 16.8734 15.3679 17.0319 15.6494 17.3135C15.9309 17.595 16.0895 17.9768 16.0898 18.375V26.7842C16.0895 27.1824 15.931 27.5641 15.6494 27.8457C15.3679 28.1272 14.986 28.2858 14.5879 28.2861H13.4082C13.8064 28.2858 14.1882 28.1273 14.4697 27.8457C14.7512 27.5642 14.9098 27.1823 14.9102 26.7842V18.375C14.9098 17.9769 14.7512 17.595 14.4697 17.3135C14.1882 17.0319 13.8064 16.8734 13.4082 16.873H14.5879Z" fill="#52AFE7"/>
<path d="M25.4547 16.873H29.6595C30.5355 16.8739 31.3753 17.2223 31.9947 17.8417C32.6141 18.4611 32.9625 19.3009 32.9634 20.1769V24.9825C32.9625 25.8585 32.6141 26.6983 31.9947 27.3177C31.3753 27.9371 30.5355 28.2855 29.6595 28.2864H25.4547C25.0565 28.286 24.6747 28.1277 24.3932 27.8461C24.1116 27.5646 23.9533 27.1828 23.9529 26.7846V18.3748C23.9533 17.9766 24.1116 17.5949 24.3932 17.3133C24.6747 17.0318 25.0565 16.8734 25.4547 16.873Z" fill="#5CBDF8"/>
<path d="M25.4551 16.873C25.0569 16.8734 24.6751 17.0319 24.3936 17.3135C24.112 17.595 23.9535 17.9768 23.9531 18.375V26.7842C23.9535 27.1824 24.112 27.5641 24.3936 27.8457C24.6751 28.1272 25.057 28.2858 25.4551 28.2861H26.6348C26.2366 28.2858 25.8548 28.1273 25.5732 27.8457C25.2917 27.5642 25.1332 27.1823 25.1328 26.7842V18.375C25.1332 17.9769 25.2918 17.595 25.5732 17.3135C25.8548 17.0319 26.2366 16.8734 26.6348 16.873H25.4551Z" fill="#52AFE7"/>
</svg>
