<svg width="40" height="40" viewBox="0 0 40 40" fill="none" xmlns="http://www.w3.org/2000/svg">
<path d="M0 6.77191C0 3.1126 3.0347 0.146139 6.77819 0.146139H33.2221C36.9656 0.146139 40.0003 3.1126 40.0003 6.77191V33.3742C40.0003 37.0335 36.9656 40 33.2221 40H6.77819C3.03469 40 0 37.0335 0 33.3742V6.77191Z" fill="#CFE6F9"/>
<path d="M6.39027e-06 6.44266C6.39027e-06 3.0273 2.83239 0.258599 6.32632 0.258599H31.7777C35.2716 0.258599 38.104 3.02729 38.104 6.44265V32.0747C38.104 35.4901 35.2716 38.2588 31.7777 38.2588H6.32632C2.8324 38.2588 6.39027e-06 35.4901 6.39027e-06 32.0747V6.44266Z" fill="#E8F3FC"/>
<path d="M6.39027e-06 6.18406C6.39027e-06 2.7687 2.83239 0 6.32632 0H33.674C37.1679 0 40.0003 2.7687 40.0003 6.18406V12.0488H6.39027e-06V6.18406Z" fill="#CFE6F9"/>
<path d="M6.39027e-06 6.18406C6.39027e-06 2.7687 2.83239 0 6.32632 0H31.7777C35.2716 0 38.104 2.7687 38.104 6.18406V12.0488H6.39027e-06V6.18406Z" fill="#E8F3FC"/>
<path fill-rule="evenodd" clip-rule="evenodd" d="M15.4917 32.6801V11.7559H30.6296C30.9068 11.7559 31.1315 11.9806 31.1315 12.2578V30.1724C31.1315 31.5517 30.003 32.6801 28.6237 32.6801H15.4917Z" fill="#CFE6F9"/>
<path fill-rule="evenodd" clip-rule="evenodd" d="M15.4917 32.6801V11.7559H30.1813V30.1724C30.1813 31.5517 29.0528 32.6801 27.6735 32.6801H15.4917Z" fill="white"/>
<path fill-rule="evenodd" clip-rule="evenodd" d="M12.9839 30.1722C12.9839 31.5515 14.1124 32.6799 15.4917 32.6799H28.6237C27.2444 32.6799 26.1159 31.5515 26.1159 30.1722C26.1159 29.864 26.1723 29.5682 26.2753 29.2949H13.1433C13.0404 29.5683 12.9839 29.864 12.9839 30.1722Z" fill="#61A0E0"/>
<path fill-rule="evenodd" clip-rule="evenodd" d="M12.984 30.1722C12.984 31.5515 14.1124 32.6799 15.4917 32.6799H27.6736C26.2943 32.6799 25.1658 31.5515 25.1658 30.1722C25.1658 29.864 25.2222 29.5682 25.3252 29.2949H13.1433C13.0404 29.5683 12.9839 29.864 12.9839 30.1722H12.984Z" fill="#7CB5EF"/>
<path fill-rule="evenodd" clip-rule="evenodd" d="M28.5815 25.6614C28.8879 25.6614 29.1362 25.9097 29.1362 26.2161C29.1362 26.5225 28.8879 26.7708 28.5815 26.7708H18.045C17.7386 26.7708 17.4902 26.5225 17.4902 26.2161C17.4902 25.9097 17.7386 25.6614 18.045 25.6614H28.5815ZM28.5815 22.8154C28.8879 22.8154 29.1362 23.0638 29.1362 23.3701C29.1362 23.6765 28.8879 23.9248 28.5815 23.9248H25.1903C24.884 23.9248 24.6356 23.6765 24.6356 23.3701C24.6356 23.0638 24.884 22.8154 25.1903 22.8154H28.5815ZM28.5815 19.9694C28.8879 19.9694 29.1362 20.2177 29.1362 20.5241C29.1362 20.8304 28.8879 21.0788 28.5815 21.0788H18.045C17.7386 21.0788 17.4902 20.8304 17.4902 20.5241C17.4902 20.2177 17.7386 19.9694 18.045 19.9694H28.5815ZM28.5815 17.1233C28.8879 17.1233 29.1362 17.3717 29.1362 17.678C29.1362 17.9844 28.8879 18.2327 28.5815 18.2327H18.045C17.7386 18.2327 17.4902 17.9844 17.4902 17.678C17.4902 17.3717 17.7386 17.1233 18.045 17.1233H28.5815ZM28.5815 14.2773C28.8879 14.2773 29.1362 14.5257 29.1362 14.8321C29.1362 15.1384 28.8879 15.3868 28.5815 15.3868H18.045C17.7386 15.3868 17.4902 15.1384 17.4902 14.8321C17.4902 14.5257 17.7386 14.2773 18.045 14.2773H28.5815Z" fill="#969FB1"/>
<path d="M6.64697 6.4043H26.3715V31.3643C26.3715 32.1035 25.7722 32.7028 25.033 32.7028H7.98547C7.24624 32.7028 6.64697 32.1035 6.64697 31.3643V6.4043Z" fill="#48D7C4"/>
<path d="M24.5259 6.4043H26.3715V32.7028H24.5259V6.4043Z" fill="#1BBEA7"/>
<path d="M15.9932 8.62402H17.025V18.6502H15.9932V8.62402Z" fill="#13796A"/>
<path d="M17.0617 20.4629C18.0619 20.1623 18.6289 19.1079 18.3282 18.1078C18.0276 17.1077 16.9731 16.5407 15.973 16.8414C14.9729 17.142 14.4058 18.1965 14.7065 19.1965C15.0072 20.1966 16.0616 20.7636 17.0617 20.4629Z" fill="#13796A"/>
<path fill-rule="evenodd" clip-rule="evenodd" d="M15.9787 20.4642C15.1931 20.2349 14.6191 19.5093 14.6191 18.6496C14.6191 17.7899 15.1931 17.0644 15.9787 16.835C16.7644 17.0643 17.3384 17.7899 17.3384 18.6496C17.3384 19.5093 16.7644 20.2348 15.9787 20.4642Z" fill="#26A594"/>
<path fill-rule="evenodd" clip-rule="evenodd" d="M16.5092 6.4043H26.3715L24.6265 9.42668C24.1067 10.327 23.2143 10.8422 22.1746 10.8422H10.8438C9.80426 10.8422 8.91176 10.3269 8.39196 9.42668L6.64697 6.4043H16.5092Z" fill="#26A594"/>
<path fill-rule="evenodd" clip-rule="evenodd" d="M25.5859 24.2803C29.2477 28.8303 31.0786 31.1054 31.0786 31.1054C31.4511 31.4782 31.4511 32.088 31.0785 32.4608C30.7059 32.8336 30.0964 32.8337 29.7238 32.4609C30.0964 32.8336 30.0964 33.4435 29.7238 33.8163C29.3512 34.1891 28.7417 34.1891 28.3692 33.8163L27.6302 33.077C28.0028 33.4497 28.0027 34.0596 27.6302 34.4324C27.2577 34.8052 26.6481 34.8052 26.2755 34.4324L24.9715 33.1277C25.3441 33.5005 25.3441 34.1104 24.9715 34.4832C24.599 34.8559 23.9894 34.8558 23.6168 34.4832L18.2734 29.1369C18.2734 29.1369 18.6346 27.518 19.357 24.2803H25.5859Z" fill="#FFD6BD"/>
<path fill-rule="evenodd" clip-rule="evenodd" d="M26.5973 29.8813C26.4458 29.7297 26.4458 29.484 26.5973 29.3324C26.7488 29.1809 26.9945 29.1809 27.1459 29.3324L29.7848 31.9728C29.9363 32.1244 29.9363 32.3701 29.7848 32.5217C29.6333 32.6733 29.3877 32.6733 29.2362 32.5217L26.5973 29.8813ZM23.5648 32.2689C23.4133 32.1174 23.4133 31.8716 23.5648 31.72C23.7163 31.5685 23.9619 31.5685 24.1134 31.72L25.039 32.6462C25.1905 32.7978 25.1905 33.0435 25.039 33.1951C24.8875 33.3467 24.6419 33.3467 24.4904 33.1951L23.5648 32.2689ZM25.0811 31.0751L27.1426 33.1378C27.2941 33.2894 27.5398 33.2894 27.6912 33.1378C27.8427 32.9863 27.8427 32.7405 27.6912 32.5889L25.6297 30.5262C25.4782 30.3746 25.2325 30.3746 25.0811 30.5262C24.9296 30.6778 24.9296 30.9235 25.0811 31.0751Z" fill="#F9C6AA"/>
<path fill-rule="evenodd" clip-rule="evenodd" d="M33.8305 28.7545C33.7842 28.7721 31.9997 24.2616 31.9541 24.2786C30.2401 24.9195 28.9261 25.1531 27.1601 23.6953C26.6014 23.2341 25.8481 23.1829 25.2922 23.6473L23.0442 25.5254C22.7755 25.7498 22.6283 26.0618 22.7029 26.404L23.3849 29.5306C25.1186 29.1031 25.1104 27.8687 25.2326 26.5708C25.2914 26.0737 26.0942 26.2097 27.1019 27.1283L31.2485 31.3378L33.8305 28.7545Z" fill="#EAAB92"/>
<path fill-rule="evenodd" clip-rule="evenodd" d="M31.6279 23.7586L33.3044 23.4244C33.4844 23.3885 33.661 23.5065 33.6969 23.6866L34.9997 30.2301C35.0356 30.4101 34.9176 30.5868 34.7376 30.6227L33.0611 30.9569C32.8811 30.9928 32.7045 30.8748 32.6686 30.6947L31.3658 24.1512C31.3299 23.9712 31.4479 23.7945 31.6279 23.7586Z" fill="#354E96"/>
<path fill-rule="evenodd" clip-rule="evenodd" d="M20.1756 23.7586L18.4991 23.4244C18.3191 23.3885 18.1425 23.5065 18.1066 23.6866L16.8038 30.2301C16.7679 30.4101 16.8858 30.5868 17.0659 30.6227L18.7424 30.9569C18.9224 30.9928 19.099 30.8748 19.1348 30.6947L20.4377 24.1512C20.4735 23.9712 20.3556 23.7945 20.1756 23.7586Z" fill="#354E96"/>
</svg>
