<svg width="40" height="40" viewBox="0 0 40 40" fill="none" xmlns="http://www.w3.org/2000/svg">
<path d="M37.386 9.5752H2.6083C1.10922 9.99029 0 11.3695 0 12.9961V33.6782C0 35.6302 1.59712 37.2274 3.54918 37.2274H16.6656C17.1087 37.2274 17.4925 37.5136 17.6442 37.93C17.9934 38.8889 18.9128 39.5737 19.9925 39.5737C21.0721 39.5737 21.9915 38.8889 22.3408 37.93C22.4924 37.5136 22.8763 37.2274 23.3194 37.2274H36.4451C38.3972 37.2274 39.9944 35.6301 39.9944 33.6782C39.9944 33.2654 39.9944 13.6617 39.9944 12.9961C39.9943 11.3695 38.8851 9.99029 37.386 9.5752Z" fill="#354E96"/>
<path d="M37.2944 33.6781V12.9961C37.2944 11.3695 36.1852 9.99029 34.6861 9.5752H37.3917C38.8908 9.99029 40 11.3695 40 12.9961V33.6781C40 35.6302 38.4029 37.2274 36.4508 37.2274H33.7452C35.6973 37.2274 37.2944 35.6302 37.2944 33.6781Z" fill="#253A81"/>
<path d="M19.6917 37.9292C19.8434 37.5128 20.2272 37.2266 20.6703 37.2266H23.376C22.9328 37.2266 22.5491 37.5128 22.3974 37.9292C22.0482 38.8881 21.1287 39.5729 20.0491 39.5729C19.5501 39.5729 19.0864 39.4252 18.6963 39.1732C19.1502 38.88 19.504 38.4449 19.6917 37.9292Z" fill="#253A81"/>
<path d="M35.8539 7.08691H34.7837V17.1344C34.7837 19.9409 33.3859 21.9457 30.7056 22.3906C30.3258 22.4536 29.9821 22.1539 29.9821 21.769V17.3592C29.9821 17.012 29.7007 16.7306 29.3535 16.7306H19.9116V33.0441C19.9116 33.8902 20.5975 34.576 21.4435 34.576H35.8539C36.7 34.576 37.3858 33.8902 37.3858 33.0441V8.61881C37.3858 7.77276 36.7 7.08691 35.8539 7.08691Z" fill="#E8F3FC"/>
<path d="M26.5816 20.5641H22.3714C22.0368 20.5641 21.7656 20.2929 21.7656 19.9583C21.7656 19.6238 22.0368 19.3525 22.3714 19.3525H26.5816C26.9161 19.3525 27.1874 19.6238 27.1874 19.9583C27.1874 20.2929 26.9161 20.5641 26.5816 20.5641Z" fill="#ADD7FB"/>
<path d="M26.5816 23.1569H22.3714C22.0368 23.1569 21.7656 22.8857 21.7656 22.5511C21.7656 22.2165 22.0368 21.9453 22.3714 21.9453H26.5816C26.9161 21.9453 27.1874 22.2165 27.1874 22.5511C27.1874 22.8857 26.9161 23.1569 26.5816 23.1569Z" fill="#ADD7FB"/>
<path d="M33.2245 25.7487H22.3714C22.0368 25.7487 21.7656 25.4774 21.7656 25.1429C21.7656 24.8083 22.0368 24.5371 22.3714 24.5371H33.2245C33.5591 24.5371 33.8303 24.8083 33.8303 25.1429C33.8302 25.4774 33.559 25.7487 33.2245 25.7487Z" fill="#ADD7FB"/>
<path d="M33.2245 28.3395H22.3714C22.0368 28.3395 21.7656 28.0683 21.7656 27.7337C21.7656 27.3991 22.0368 27.1279 22.3714 27.1279H33.2245C33.5591 27.1279 33.8303 27.3991 33.8303 27.7337C33.8302 28.0683 33.559 28.3395 33.2245 28.3395Z" fill="#ADD7FB"/>
<path d="M33.2245 30.9323H22.3714C22.0368 30.9323 21.7656 30.661 21.7656 30.3265C21.7656 29.9919 22.0368 29.7207 22.3714 29.7207H33.2245C33.5591 29.7207 33.8303 29.9919 33.8303 30.3265C33.8303 30.661 33.559 30.9323 33.2245 30.9323Z" fill="#ADD7FB"/>
<path d="M15.5072 16.8921C14.3934 16.8921 13.4904 15.9892 13.4904 14.8754V7.08691H4.14029C3.29424 7.08691 2.6084 7.77284 2.6084 8.61889V33.0441C2.6084 33.8902 3.29424 34.576 4.14029 34.576H18.4607C19.3067 34.576 19.9926 33.8902 19.9926 33.0441V16.8921H15.5072Z" fill="#E8F3FC"/>
<path d="M17.3105 33.044V16.7305H20.0161V33.044C20.0161 33.8901 19.3303 34.5759 18.4842 34.5759H15.7786C16.6246 34.5759 17.3105 33.8901 17.3105 33.044Z" fill="#ADD7FB"/>
<path d="M34.6523 33.0441V8.61889C34.6523 7.77284 33.9664 7.08691 33.1204 7.08691H35.826C36.6721 7.08691 37.3579 7.77284 37.3579 8.61889V33.0441C37.3579 33.8902 36.6721 34.576 35.826 34.576H33.1203C33.9664 34.576 34.6523 33.8902 34.6523 33.0441Z" fill="#ADD7FB"/>
<path d="M15.7118 20.5641H4.8587C4.52414 20.5641 4.25293 20.2929 4.25293 19.9583C4.25293 19.6238 4.52414 19.3525 4.8587 19.3525H15.7118C16.0464 19.3525 16.3176 19.6238 16.3176 19.9583C16.3176 20.2929 16.0464 20.5641 15.7118 20.5641Z" fill="#ADD7FB"/>
<path d="M15.7118 23.1569H4.8587C4.52414 23.1569 4.25293 22.8857 4.25293 22.5511C4.25293 22.2165 4.52414 21.9453 4.8587 21.9453H15.7118C16.0464 21.9453 16.3176 22.2165 16.3176 22.5511C16.3176 22.8857 16.0464 23.1569 15.7118 23.1569Z" fill="#ADD7FB"/>
<path d="M15.7118 25.7487H4.8587C4.52414 25.7487 4.25293 25.4774 4.25293 25.1429C4.25293 24.8083 4.52414 24.5371 4.8587 24.5371H15.7118C16.0464 24.5371 16.3176 24.8083 16.3176 25.1429C16.3176 25.4774 16.0464 25.7487 15.7118 25.7487Z" fill="#ADD7FB"/>
<path d="M15.7118 28.3395H4.8587C4.52414 28.3395 4.25293 28.0683 4.25293 27.7337C4.25293 27.3991 4.52414 27.1279 4.8587 27.1279H15.7118C16.0464 27.1279 16.3176 27.3991 16.3176 27.7337C16.3176 28.0683 16.0464 28.3395 15.7118 28.3395Z" fill="#ADD7FB"/>
<path d="M15.7118 30.9323H4.8587C4.52414 30.9323 4.25293 30.661 4.25293 30.3265C4.25293 29.9919 4.52414 29.7207 4.8587 29.7207H15.7118C16.0464 29.7207 16.3176 29.9919 16.3176 30.3265C16.3176 30.661 16.0464 30.9323 15.7118 30.9323Z" fill="#ADD7FB"/>
<path d="M8.85526 6.47266H6.75533C6.44311 6.47266 6.18994 6.72575 6.18994 7.03805V17.7364C6.18994 18.011 6.5106 18.1607 6.72112 17.9844L7.59747 17.2502C7.71769 17.1495 7.89275 17.1495 8.01296 17.2502L8.88932 17.9844C9.09984 18.1607 9.4205 18.0111 9.4205 17.7364V7.03797C9.42065 6.72575 9.16748 6.47266 8.85526 6.47266Z" fill="#FF8F88"/>
<path d="M8.47387 7.03805C8.47387 6.72582 8.22078 6.47266 7.90848 6.47266H8.89897C9.21119 6.47266 9.46436 6.72575 9.46436 7.03805V17.7364C9.46436 18.011 9.11572 18.1838 8.9052 18.0075L8.59275 17.7341C8.53268 17.6837 8.43652 17.6169 8.3584 17.5388L8.47403 7.03805H8.47387Z" fill="#F27D76"/>
<path d="M33.171 0.425781H15.2648C14.151 0.425781 13.248 1.3287 13.248 2.44254V15.5079C13.248 16.6218 14.151 17.5247 15.2648 17.5247H29.1112C29.4585 17.5247 29.7398 17.8061 29.7398 18.1533V21.8574C29.7398 22.2423 30.0836 22.5421 30.4634 22.479C33.1437 22.0342 35.1876 20.3312 35.1876 17.5246V2.44246C35.1877 1.3287 34.2848 0.425781 33.171 0.425781Z" fill="#84D0FF"/>
<path d="M33.4795 0.452148C34.4467 0.600784 35.1875 1.43367 35.1875 2.44238V17.5244C35.1875 20.3309 33.1441 22.0346 30.4639 22.4795L30.4629 22.4785C33.1432 22.0337 34.0156 19.706 34.0156 16.8994V1.81738C34.0156 1.28981 33.8111 0.811537 33.4795 0.452148ZM13.7842 16.873C13.8849 16.8886 13.9877 16.8994 14.0928 16.8994H29.1113C29.4585 16.8995 29.7402 17.1812 29.7402 17.5283V18.1533C29.7402 17.8062 29.4585 17.5244 29.1113 17.5244H15.2646C14.6784 17.5243 14.1526 17.2725 13.7842 16.873Z" fill="#52AFE7"/>
<path d="M23.9722 2.22949L24.0825 2.23438C24.0855 2.23463 24.0884 2.23508 24.0913 2.23535C24.1087 2.23697 24.1259 2.23891 24.1431 2.24121C24.1664 2.24438 24.1895 2.2485 24.2124 2.25293C24.2208 2.25454 24.2294 2.25506 24.2378 2.25684L24.2964 2.27148C24.3023 2.27304 24.3081 2.27473 24.314 2.27637C24.3404 2.28369 24.3664 2.29185 24.3921 2.30078C24.4026 2.30447 24.413 2.30855 24.4233 2.3125C24.4464 2.32118 24.4693 2.32991 24.4917 2.33984C24.4999 2.34353 24.508 2.34771 24.5161 2.35156C24.9697 2.56427 25.2827 3.03015 25.2827 3.54688C25.2827 4.06201 24.9713 4.53586 24.52 4.75488C24.5102 4.75967 24.5007 4.76499 24.4907 4.76953C24.4736 4.77733 24.4555 4.78299 24.438 4.79004C24.4215 4.79673 24.405 4.80356 24.3882 4.80957C24.364 4.81811 24.3397 4.82592 24.3149 4.83301C24.3036 4.8363 24.2923 4.8398 24.2808 4.84277C24.2572 4.8488 24.2336 4.8547 24.2095 4.85938C24.1811 4.86493 24.1525 4.86947 24.1235 4.87305C24.1164 4.87392 24.1093 4.87522 24.1021 4.87598C24.0593 4.88049 24.0161 4.88378 23.9722 4.88379C23.9256 4.88379 23.8796 4.88077 23.8345 4.87598C23.157 4.80407 22.645 4.2081 22.645 3.54688C22.6451 2.88571 23.157 2.30618 23.8345 2.23633C23.8796 2.23167 23.9257 2.22949 23.9722 2.22949Z" fill="white"/>
<path d="M23.9722 6.58984C24.6679 6.58995 25.2347 6.94336 25.2349 7.46289V12.459C25.2349 12.5945 25.3445 12.7049 25.48 12.7051H26.3687C26.8087 12.7052 27.1663 13.0619 27.1665 13.502V13.6602C27.1665 14.1004 26.8088 14.4569 26.3687 14.457H23.1401C23.1511 14.4575 23.1623 14.459 23.1733 14.459H21.5757C21.1354 14.459 20.7778 14.1015 20.7778 13.6611V13.5029C20.7779 13.368 20.8143 13.2423 20.8735 13.1309C21.0072 12.8785 21.2701 12.7051 21.5757 12.7051H22.48C22.5866 12.7049 22.6765 12.6362 22.7104 12.541C22.7194 12.5156 22.7251 12.4884 22.7251 12.46V8.58105C22.7251 8.56497 22.7243 8.5484 22.7212 8.5332C22.6992 8.42518 22.6033 8.34379 22.4888 8.34375H21.979C21.5388 8.34371 21.1823 7.98707 21.1821 7.54688V7.38867C21.1821 7.27828 21.2041 7.17275 21.2446 7.07715C21.3659 6.79097 21.6498 6.58984 21.98 6.58984H23.9722Z" fill="white"/>
</svg>
