<svg width="40" height="40" viewBox="0 0 40 40" fill="none" xmlns="http://www.w3.org/2000/svg">
<path d="M38.0764 9.36811V12.0738H1.91406V9.36811C1.91406 8.46429 2.45806 7.65062 3.29257 7.30453L19.3212 0.662323C19.7526 0.483653 20.2378 0.483653 20.6692 0.662323L36.6979 7.30453C37.5324 7.65062 38.0764 8.46429 38.0764 9.36811Z" fill="#DDF0FF"/>
<path d="M38.0777 9.36803V12.0737H35.1476V9.36803C35.1476 8.46421 34.6036 7.65054 33.7691 7.30445L18.5127 0.996609L19.3225 0.662323C19.7539 0.483653 20.2391 0.483653 20.6705 0.662323L36.6992 7.30453C37.5337 7.65054 38.0777 8.46421 38.0777 9.36803Z" fill="#C3E2FC"/>
<path d="M19.7318 8.35238C20.811 8.35238 21.6859 7.47754 21.6859 6.39836C21.6859 5.31918 20.811 4.44434 19.7318 4.44434C18.6527 4.44434 17.7778 5.31918 17.7778 6.39836C17.7778 7.47754 18.6527 8.35238 19.7318 8.35238Z" fill="#253A81"/>
<path d="M19.5786 8.04587C20.5731 8.04587 21.3793 7.23964 21.3793 6.2451C21.3793 5.25057 20.5731 4.44434 19.5786 4.44434C18.5841 4.44434 17.7778 5.25057 17.7778 6.2451C17.7778 7.23964 18.5841 8.04587 19.5786 8.04587Z" fill="#354E96"/>
<path d="M1.91406 16.4658H38.0817V35.5282H1.9165L1.91406 16.4658Z" fill="#DDF0FF"/>
<path d="M38.0889 17.1752V34.8352L36.9607 35.2055L36.4795 34.8352V17.1752L37.0365 16.7393L38.0889 17.1752Z" fill="#C3E2FC"/>
<path d="M4.74561 15.7627H12.7143V35.8406H4.74561V15.7627Z" fill="#CA9953"/>
<path d="M11.1313 15.7627H12.6938V35.8406H11.1313V15.7627Z" fill="#946C35"/>
<path d="M26.4419 15.7627H34.3325V35.8406H26.4419V15.7627Z" fill="#CA9953"/>
<path d="M32.7891 15.7627H34.3516V35.8406H32.7891V15.7627Z" fill="#946C35"/>
<path d="M36.4669 13.6536L37.4696 15.4178L36.4669 17.182L29.7699 17.1817H16.246H5.5941H1.91406V13.6533L36.4669 13.6536Z" fill="#89909E"/>
<path d="M36.4697 13.6533H38.0794V17.1817H36.4697V13.6533Z" fill="#505560"/>
<path d="M24.6069 35.5282H15.2319V27.3104C15.2319 26.0664 15.7264 24.8734 16.6065 23.9942C18.4367 22.1658 21.4021 22.1658 23.2323 23.9942C24.1124 24.8734 24.6069 26.0664 24.6069 27.3104V35.5282Z" fill="#89909E"/>
<path d="M19.0596 22.7412C20.5261 22.4689 22.0975 22.8995 23.2324 24.0332C24.1125 24.9124 24.6074 26.1056 24.6074 27.3496V35.5674H22.8887V27.3496C22.8887 26.1056 22.3938 24.9124 21.5137 24.0332C20.8181 23.3383 19.9585 22.9079 19.0596 22.7412Z" fill="#505560"/>
<path d="M17.8882 32.3252C17.8882 31.98 18.168 31.7002 18.5132 31.7002H20.3882C20.7333 31.7002 21.0132 31.98 21.0132 32.3252V34.8252H17.8882V32.3252Z" fill="#505560"/>
<path d="M39.9953 11.997V13.671C39.9953 13.964 39.7571 14.2022 39.4642 14.2022H0.531109C0.238175 14.2022 0 13.964 0 13.671V11.997C0 11.7032 0.238175 11.4658 0.531109 11.4658H39.4642C39.7571 11.4658 39.9953 11.7032 39.9953 11.997Z" fill="#354E96"/>
<path d="M40.0001 11.997V13.671C40.0001 13.964 39.7619 14.2022 39.4689 14.2022H32.9448C33.2378 14.2022 33.476 13.8607 33.476 13.5677V12.0751C33.476 11.7814 33.2378 11.4658 32.9448 11.4658L39.4689 11.4658C39.7619 11.4657 40.0001 11.7032 40.0001 11.997Z" fill="#253A81"/>
<path d="M1.91406 34.8643H38.0762V37.166L19.6812 38.5413L1.91406 37.166V34.8643Z" fill="#354E96"/>
<path d="M38.0899 34.8643L38.081 37.1848H36.4795V34.8643H38.0899Z" fill="#253A81"/>
<path d="M0.5315 37.1689H39.4638C39.7573 37.1689 39.9953 37.4069 39.9953 37.7005V38.9391C39.9953 39.2327 39.7573 39.4706 39.4638 39.4706H0.5315C0.237941 39.4706 0 39.2327 0 38.9391V37.7005C0 37.407 0.237941 37.1689 0.5315 37.1689Z" fill="#DDF0FF"/>
<path d="M39.9991 37.7009V38.9387C39.9991 39.2325 39.7609 39.4707 39.468 39.4707L32.7886 39.4707C33.0815 39.4707 33.3197 39.2325 33.3197 38.9387V37.7009C33.3197 37.4071 33.0815 37.1689 32.7886 37.1689L39.468 37.169C39.7609 37.169 39.9991 37.4072 39.9991 37.7009Z" fill="#C3E2FC"/>
</svg>
