<svg width="40" height="40" viewBox="0 0 40 40" fill="none" xmlns="http://www.w3.org/2000/svg">
<path d="M0.000488281 6.77191C0.000488281 3.1126 3.03512 0.146139 6.77853 0.146139H33.2218C36.9653 0.146139 39.9999 3.1126 39.9999 6.77191V33.3742C39.9999 37.0335 36.9652 40 33.2218 40H6.77852C3.03511 40 0.000488281 37.0335 0.000488281 33.3742V6.77191Z" fill="#C3E2FC"/>
<path d="M0.000494671 6.44266C0.000494671 3.0273 2.83282 0.258599 6.32667 0.258599H31.7774C35.2713 0.258599 38.1036 3.02729 38.1036 6.44265V32.0747C38.1036 35.4901 35.2713 38.2588 31.7774 38.2588H6.32667C2.83282 38.2588 0.000494671 35.4901 0.000494671 32.0747V6.44266Z" fill="#E8F3FC"/>
<path d="M0.000494671 6.18406C0.000494671 2.7687 2.83282 0 6.32667 0H33.6737C37.1676 0 39.9999 2.7687 39.9999 6.18406V12.0488H0.000494671V6.18406Z" fill="#C3E2FC"/>
<path d="M0.000494671 6.18406C0.000494671 2.7687 2.83282 0 6.32667 0H31.7774C35.2713 0 38.1036 2.7687 38.1036 6.18406V12.0488H0.000494671V6.18406Z" fill="#E8F3FC"/>
<path d="M19.4153 20.3486C19.1333 20.3486 18.9048 20.5772 18.9048 20.8592C18.9048 21.1411 19.1333 21.3697 19.4153 21.3697H27.9363C28.2182 21.3697 28.4468 21.1411 28.4468 20.8592C28.4468 20.5772 28.2182 20.3486 27.9363 20.3486H19.4153Z" fill="#535862"/>
<path d="M24.9285 16.0042V12.114C24.9285 11.6701 25.1095 11.4229 25.3212 11.2681C25.5537 11.0982 25.8463 11.0278 26.0359 11.0191H27.9993C28.2812 11.0191 28.5098 10.7905 28.5098 10.5086C28.5098 10.2266 28.2812 9.99805 27.9993 9.99805H26.0136L26.0038 9.99846C25.658 10.0118 25.1523 10.1269 24.7188 10.4437C24.2616 10.7778 23.9075 11.323 23.9075 12.114V16.0042C23.9075 16.4808 23.7633 16.7463 23.5944 16.8987C23.4163 17.0593 23.1366 17.1608 22.7509 17.1608H19.4165C19.1346 17.1608 18.906 17.3894 18.906 17.6713C18.906 17.9533 19.1346 18.1819 19.4165 18.1819H22.7509C23.3037 18.1819 23.8575 18.0364 24.2783 17.6568C24.7083 17.2689 24.9285 16.7007 24.9285 16.0042Z" fill="#535862"/>
<path d="M24.9285 25.6843V29.5744C24.9285 30.0184 25.1095 30.2656 25.3212 30.4203C25.5537 30.5902 25.8463 30.6606 26.0359 30.6694H27.9993C28.2812 30.6694 28.5098 30.8979 28.5098 31.1799C28.5098 31.4619 28.2812 31.6904 27.9993 31.6904H26.0136L26.0038 31.69C25.658 31.6767 25.1523 31.5616 24.7188 31.2448C24.2616 30.9107 23.9075 30.3655 23.9075 29.5744V25.6843C23.9075 25.2077 23.7633 24.9422 23.5944 24.7898C23.4163 24.6291 23.1366 24.5277 22.7509 24.5277H19.4165C19.1346 24.5277 18.906 24.2991 18.906 24.0171C18.906 23.7352 19.1346 23.5066 19.4165 23.5066H22.7509C23.3037 23.5066 23.8575 23.6521 24.2783 24.0317C24.7083 24.4196 24.9285 24.9878 24.9285 25.6843Z" fill="#535862"/>
<path d="M33.9437 6.78703V7.77338H26.8887V5.95896C26.8887 5.73627 27.0692 5.55566 27.2919 5.55566H28.6298C28.7653 5.55566 28.8938 5.61642 28.9798 5.72119L29.5236 6.38374H33.5405C33.7632 6.38374 33.9437 6.56434 33.9437 6.78703Z" fill="white"/>
<path d="M33.9445 6.78716V7.77326H33.7201V7.11674C33.7201 6.89494 33.5386 6.71344 33.3169 6.71344H29.4494C29.3551 6.71344 29.2657 6.67123 29.2058 6.59835L28.7562 6.05109C28.6705 5.94677 28.5426 5.88633 28.4075 5.88633H27.0683C27.0043 5.88633 26.9447 5.90154 26.8916 5.92752C26.9068 5.71939 27.0813 5.55566 27.2927 5.55566H28.6304C28.7659 5.55566 28.8949 5.61636 28.9806 5.72042L29.5248 6.38387H33.5413C33.7635 6.38387 33.9445 6.56383 33.9445 6.78716Z" fill="#CFE6F9"/>
<path d="M34.4366 8.16083V12.6482C34.4366 12.8643 34.2613 13.0395 34.0453 13.0395H26.7868C26.5707 13.0395 26.3955 12.8643 26.3955 12.6482V8.16083C26.3955 7.94474 26.5707 7.76953 26.7868 7.76953H34.0453C34.2614 7.76953 34.4366 7.94474 34.4366 8.16083Z" fill="#FF8F88"/>
<path d="M34.4369 8.16018V12.6486C34.4369 12.8649 34.2626 13.0393 34.0462 13.0393H33.3617V9.33882C33.3617 9.12248 33.1873 8.94489 32.971 8.94489H26.397V8.16025C26.397 7.94391 26.5713 7.76953 26.7877 7.76953H34.0462C34.2626 7.76947 34.4369 7.94385 34.4369 8.16018Z" fill="#F27D76"/>
<path d="M33.9437 17.5077V18.4941H26.8887V16.6797C26.8887 16.457 27.0692 16.2764 27.2919 16.2764H28.6298C28.7653 16.2764 28.8937 16.3371 28.9798 16.4419L29.5236 17.1044H33.5405C33.7632 17.1044 33.9437 17.285 33.9437 17.5077Z" fill="white"/>
<path d="M33.9445 17.5079V18.494H33.7201V17.8374C33.7201 17.6156 33.5386 17.4341 33.3168 17.4341H29.4494C29.3551 17.4341 29.2657 17.3919 29.2058 17.319L28.7562 16.7718C28.6705 16.6675 28.5425 16.607 28.4075 16.607H27.0683C27.0043 16.607 26.9447 16.6222 26.8916 16.6482C26.9068 16.4401 27.0813 16.2764 27.2927 16.2764H28.6304C28.7659 16.2764 28.8949 16.3371 28.9806 16.4411L29.5248 17.1046H33.5413C33.7635 17.1046 33.9445 17.2845 33.9445 17.5079Z" fill="#CFE6F9"/>
<path d="M34.4365 18.8815V23.3689C34.4365 23.585 34.2613 23.7602 34.0453 23.7602H26.7868C26.5707 23.7602 26.3955 23.585 26.3955 23.3689V18.8815C26.3955 18.6654 26.5707 18.4902 26.7868 18.4902H34.0453C34.2614 18.4902 34.4365 18.6654 34.4365 18.8815Z" fill="#FFD892"/>
<path d="M34.4369 18.8838V23.3722C34.4369 23.5885 34.2625 23.7629 34.0462 23.7629H33.3617V20.0624C33.3617 19.8461 33.1873 19.6685 32.971 19.6685H26.397V18.8839C26.397 18.6675 26.5713 18.4932 26.7877 18.4932H34.0462C34.2626 18.4931 34.4369 18.6675 34.4369 18.8838Z" fill="#FEC46D"/>
<path d="M33.9437 28.1864V29.1727H26.8887V27.3584C26.8887 27.1357 27.0692 26.9551 27.2919 26.9551H28.6297C28.7653 26.9551 28.8937 27.0158 28.9798 27.1206L29.5235 27.7831H33.5404C33.7631 27.7831 33.9437 27.9637 33.9437 28.1864Z" fill="white"/>
<path d="M33.9445 28.1865V29.1726H33.7201V28.5161C33.7201 28.2943 33.5386 28.1128 33.3168 28.1128H29.4493C29.355 28.1128 29.2657 28.0706 29.2058 27.9977L28.7562 27.4505C28.6705 27.3462 28.5425 27.2857 28.4075 27.2857H27.0683C27.0043 27.2857 26.9447 27.3009 26.8916 27.3269C26.9068 27.1188 27.0813 26.9551 27.2927 26.9551H28.6304C28.7659 26.9551 28.8949 27.0158 28.9806 27.1198L29.5248 27.7833H33.5412C33.7634 27.7833 33.9445 27.9632 33.9445 28.1865Z" fill="#CFE6F9"/>
<path d="M34.4365 29.5651V34.0524C34.4365 34.2685 34.2613 34.4437 34.0452 34.4437H26.7868C26.5707 34.4437 26.3955 34.2685 26.3955 34.0524V29.5651C26.3955 29.349 26.5707 29.1738 26.7868 29.1738H34.0452C34.2613 29.1738 34.4365 29.349 34.4365 29.5651Z" fill="#5CBDF8"/>
<path d="M34.4368 29.5664V34.0547C34.4368 34.271 34.2625 34.4454 34.0461 34.4454H33.3616V30.745C33.3616 30.5287 33.1873 30.3511 32.9709 30.3511H26.397V29.5665C26.397 29.3502 26.5713 29.1758 26.7877 29.1758H34.0461C34.2625 29.1757 34.4368 29.3501 34.4368 29.5664Z" fill="#52AFE7"/>
<path d="M20.1039 26.6065C20.1039 27.7178 16.8468 28.619 12.83 28.619C8.81325 28.619 5.55615 27.7178 5.55615 26.6065V23.915H20.1039V26.6065H20.1039Z" fill="#354E96"/>
<path d="M20.1051 23.915V26.6072C20.1051 26.8976 19.8842 27.1725 19.4842 27.4211V24.7444H7.50537V23.915H20.1051Z" fill="#253A81"/>
<path d="M12.83 25.9283C16.8473 25.9283 20.1039 25.0273 20.1039 23.9158C20.1039 22.8044 16.8473 21.9033 12.83 21.9033C8.81278 21.9033 5.55615 22.8044 5.55615 23.9158C5.55615 25.0273 8.81278 25.9283 12.83 25.9283Z" fill="white"/>
<path d="M20.1041 23.9159C20.1041 24.2526 19.8029 24.5708 19.2701 24.8519C19.389 24.7082 19.4508 24.5584 19.4508 24.4055C19.4508 23.2934 16.1935 22.3929 12.1763 22.3929C9.38229 22.3929 6.95592 22.8285 5.7373 23.468C6.47249 22.5721 9.36994 21.9033 12.8296 21.9033C16.8468 21.9033 20.1041 22.8038 20.1041 23.9159Z" fill="#CFE6F9"/>
<path d="M16.3834 27.2519C16.3921 27.2519 16.4011 27.2511 16.41 27.2496C16.7197 27.1956 17.0178 27.1346 17.2961 27.0682C17.3791 27.0485 17.4304 26.9651 17.4105 26.8822C17.3908 26.7991 17.3067 26.7485 17.2245 26.7678C16.9523 26.8327 16.6605 26.8924 16.357 26.9452C16.273 26.9599 16.2167 27.0399 16.2313 27.1239C16.2445 27.199 16.3097 27.2519 16.3834 27.2519Z" fill="white"/>
<path d="M18.1256 26.838C18.1403 26.838 18.1553 26.8358 18.17 26.8314C18.4483 26.7481 18.7038 26.6576 18.9291 26.5625C19.0077 26.5293 19.0446 26.4387 19.0114 26.3602C18.9783 26.2816 18.8879 26.2446 18.8091 26.2779C18.5939 26.3687 18.3491 26.4553 18.0814 26.5354C17.9997 26.5599 17.9533 26.646 17.9777 26.7277C17.9978 26.7947 18.0592 26.838 18.1256 26.838Z" fill="white"/>
<path d="M20.1039 22.1748C20.1039 23.2861 16.8468 24.1873 12.83 24.1873C8.81325 24.1873 5.55615 23.2861 5.55615 22.1748V19.4834H20.1039V22.1748H20.1039Z" fill="#354E96"/>
<path d="M20.1051 19.4834V22.1755C20.1051 22.4659 19.8842 22.7409 19.4842 22.9895V20.3128H7.50537V19.4834H20.1051Z" fill="#253A81"/>
<path d="M12.83 21.4977C16.8473 21.4977 20.1039 20.5966 20.1039 19.4852C20.1039 18.3737 16.8473 17.4727 12.83 17.4727C8.81278 17.4727 5.55615 18.3737 5.55615 19.4852C5.55615 20.5966 8.81278 21.4977 12.83 21.4977Z" fill="white"/>
<path d="M20.1041 19.4852C20.1041 19.8219 19.8029 20.1401 19.2701 20.4212C19.389 20.2775 19.4508 20.1277 19.4508 19.9748C19.4508 18.8627 16.1935 17.9623 12.1763 17.9623C9.38229 17.9623 6.95592 18.3978 5.7373 19.0373C6.47249 18.1414 9.36994 17.4727 12.8296 17.4727C16.8468 17.4727 20.1041 18.3731 20.1041 19.4852Z" fill="#CFE6F9"/>
<path d="M16.3829 22.8212C16.3916 22.8212 16.4006 22.8205 16.4095 22.819C16.7192 22.765 17.0173 22.704 17.2956 22.6376C17.3786 22.6178 17.4299 22.5345 17.41 22.4515C17.3903 22.3685 17.3063 22.3178 17.224 22.3371C16.9518 22.4021 16.66 22.4618 16.3566 22.5146C16.2725 22.5292 16.2162 22.6092 16.2308 22.6932C16.244 22.7683 16.3092 22.8212 16.3829 22.8212Z" fill="white"/>
<path d="M18.1256 22.4063C18.1403 22.4063 18.1553 22.4042 18.17 22.3998C18.4483 22.3164 18.7038 22.226 18.9291 22.1309C19.0077 22.0977 19.0446 22.0071 19.0114 21.9285C18.9783 21.8499 18.8879 21.8129 18.8091 21.8462C18.5939 21.9371 18.3491 22.0236 18.0814 22.1038C17.9997 22.1282 17.9533 22.2144 17.9777 22.296C17.9978 22.363 18.0592 22.4063 18.1256 22.4063Z" fill="white"/>
<path d="M20.1039 17.7442C20.1039 18.8555 16.8468 19.7567 12.83 19.7567C8.81325 19.7567 5.55615 18.8555 5.55615 17.7442V15.0527H20.1039V17.7442H20.1039Z" fill="#354E96"/>
<path d="M20.1051 15.0527V17.7449C20.1051 18.0353 19.8842 18.3102 19.4842 18.5588V15.8821H7.50537V15.0527H20.1051Z" fill="#253A81"/>
<path d="M12.83 17.069C16.8473 17.069 20.1039 16.1679 20.1039 15.0565C20.1039 13.945 16.8473 13.0439 12.83 13.0439C8.81278 13.0439 5.55615 13.945 5.55615 15.0565C5.55615 16.1679 8.81278 17.069 12.83 17.069Z" fill="white"/>
<path d="M20.1041 15.0565C20.1041 15.3932 19.8029 15.7114 19.2701 15.9925C19.389 15.8488 19.4508 15.699 19.4508 15.5461C19.4508 14.434 16.1935 13.5336 12.1763 13.5336C9.38229 13.5336 6.95592 13.9691 5.7373 14.6086C6.47249 13.7127 9.36994 13.0439 12.8296 13.0439C16.8468 13.0439 20.1041 13.9444 20.1041 15.0565Z" fill="#CFE6F9"/>
<path d="M16.3834 18.3896C16.3921 18.3896 16.4011 18.3888 16.41 18.3873C16.7197 18.3333 17.0178 18.2723 17.2961 18.2059C17.3791 18.1862 17.4304 18.1028 17.4105 18.0199C17.3908 17.9368 17.3067 17.8862 17.2245 17.9055C16.9523 17.9704 16.6605 18.0301 16.357 18.0829C16.273 18.0976 16.2167 18.1776 16.2313 18.2616C16.2445 18.3367 16.3097 18.3896 16.3834 18.3896Z" fill="white"/>
<path d="M18.1227 17.9747C18.1374 17.9747 18.1523 17.9726 18.167 17.9681C18.4454 17.8848 18.7008 17.7943 18.9262 17.6992C19.0048 17.6661 19.0416 17.5755 19.0085 17.4969C18.9754 17.4183 18.8849 17.3813 18.8061 17.4146C18.591 17.5054 18.3462 17.592 18.0785 17.6722C17.9967 17.6966 17.9503 17.7827 17.9748 17.8644C17.9948 17.9314 18.0562 17.9747 18.1227 17.9747Z" fill="white"/>
</svg>
