<svg width="40" height="40" viewBox="0 0 40 40" fill="none" xmlns="http://www.w3.org/2000/svg">
<path d="M20 40C31.0457 40 40 31.0457 40 20C40 8.95431 31.0457 0 20 0C8.95431 0 0 8.95431 0 20C0 31.0457 8.95431 40 20 40Z" fill="#253A81"/>
<path d="M19.6933 35.7459C28.5575 35.7459 35.7435 28.56 35.7435 19.6957C35.7435 10.8314 28.5575 3.64551 19.6933 3.64551C10.829 3.64551 3.64307 10.8314 3.64307 19.6957C3.64307 28.56 10.829 35.7459 19.6933 35.7459Z" fill="#E8F3FC"/>
<path d="M17.7859 17.493C17.6661 17.5648 17.5658 17.6651 17.4939 17.7849L11.3298 28.0585C10.874 28.8182 11.7378 29.682 12.4975 29.2261L22.771 23.0619C22.8908 22.9901 22.991 22.8898 23.0629 22.77L29.2271 12.4965C29.6829 11.7368 28.8192 10.873 28.0594 11.3289L17.7859 17.493Z" fill="#CFE6F9"/>
<path d="M5.46617 20.9171H1.89008C1.35373 20.9171 0.996094 20.488 0.996094 19.8443C0.996094 19.2006 1.35373 18.7715 1.89008 18.7715H5.46609C6.00252 18.7715 6.51334 19.2007 6.51334 19.8443C6.51341 20.488 6.00259 20.9171 5.46617 20.9171Z" fill="#253A81"/>
<path d="M34.3476 20.9186H38.0727C38.6314 20.9186 39.0039 20.5048 39.0039 19.8841C39.0039 19.2634 38.6314 18.8496 38.0727 18.8496H34.3477C33.7889 18.8496 33.2568 19.2635 33.2568 19.8841C33.2567 20.5048 33.7888 20.9186 34.3476 20.9186Z" fill="#253A81"/>
<path d="M18.7738 33.9977L18.7738 37.5738C18.7738 38.1101 19.2029 38.4678 19.8466 38.4678C20.4904 38.4678 20.9194 38.1101 20.9194 37.5738L20.9194 33.9978C20.9194 33.4614 20.4903 32.9505 19.8466 32.9505C19.2029 32.9505 18.7738 33.4613 18.7738 33.9977Z" fill="#253A81"/>
<path d="M18.7738 5.38805L18.7738 1.81195C18.7738 1.27561 19.2029 0.917969 19.8466 0.917969C20.4904 0.917969 20.9194 1.27561 20.9194 1.81195L20.9194 5.38797C20.9194 5.92439 20.4903 6.43521 19.8466 6.43521C19.2029 6.43529 18.7738 5.92447 18.7738 5.38805Z" fill="#253A81"/>
<path d="M19.6935 0.078125C8.81505 0.078125 0.0766602 8.81652 0.0766602 19.695C0.0766602 30.5734 8.81505 39.3118 19.6935 39.3118C30.572 39.3118 39.3104 30.5734 39.3104 19.695C39.3104 8.81652 30.572 0.078125 19.6935 0.078125ZM19.6935 35.7452C10.8659 35.7452 3.64333 28.5226 3.64333 19.695C3.64333 10.8674 10.8659 3.64479 19.6935 3.64479C28.5211 3.64479 35.7437 10.8674 35.7437 19.695C35.7437 28.5226 28.5211 35.7452 19.6935 35.7452Z" fill="#354E96"/>
<path d="M5.30165 20.5851H1.73491C1.19997 20.5851 0.843262 20.2284 0.843262 19.6934C0.843262 19.1584 1.19997 18.8018 1.73491 18.8018H5.30158C5.8366 18.8018 6.19322 19.1585 6.19322 19.6934C6.1933 20.2284 5.83667 20.5851 5.30165 20.5851Z" fill="#354E96"/>
<path d="M37.6522 20.5851H34.0855C33.5505 20.5851 33.1938 20.2283 33.1938 19.6934C33.1938 19.1584 33.5506 18.8018 34.0855 18.8018H37.6522C38.1872 18.8018 38.5438 19.1585 38.5438 19.6934C38.5438 20.2284 38.1871 20.5851 37.6522 20.5851Z" fill="#354E96"/>
<path d="M18.8022 5.30019V1.73344C18.8022 1.1985 19.1589 0.841797 19.6939 0.841797C20.2289 0.841797 20.5855 1.1985 20.5855 1.73344V5.30011C20.5855 5.83513 20.2288 6.19176 19.6939 6.19176C19.1589 6.19184 18.8022 5.83521 18.8022 5.30019Z" fill="#354E96"/>
<path d="M18.8022 37.6527V34.086C18.8022 33.551 19.159 33.1943 19.6939 33.1943C20.2289 33.1943 20.5855 33.551 20.5855 34.086V37.6527C20.5855 38.1877 20.2288 38.5443 19.6939 38.5443C19.1589 38.5443 18.8022 38.1876 18.8022 37.6527Z" fill="#354E96"/>
<path d="M22.369 22.3665L17.0189 17.0165L27.4749 10.7429C28.2346 10.2871 29.0984 11.1508 28.6426 11.9106L22.369 22.3665Z" fill="#FF736A"/>
<path d="M17.0189 17.0174L22.369 22.3674L11.913 28.641C11.1533 29.0968 10.2895 28.233 10.7454 27.4733L17.0189 17.0174Z" fill="#5CBDF8"/>
<path d="M19.809 21.7635C20.8882 21.7635 21.763 20.8887 21.763 19.8095C21.763 18.7303 20.8882 17.8555 19.809 17.8555C18.7298 17.8555 17.855 18.7303 17.855 19.8095C17.855 20.8887 18.7298 21.7635 19.809 21.7635Z" fill="#252B37"/>
<path d="M19.6557 21.457C20.6503 21.457 21.4565 20.6508 21.4565 19.6562C21.4565 18.6617 20.6503 17.8555 19.6557 17.8555C18.6612 17.8555 17.855 18.6617 17.855 19.6562C17.855 20.6508 18.6612 21.457 19.6557 21.457Z" fill="#535862"/>
</svg>
