<svg width="40" height="40" viewBox="0 0 40 40" fill="none" xmlns="http://www.w3.org/2000/svg">
<path d="M0 6.77191C0 3.1126 3.0347 0.146139 6.77819 0.146139H33.2221C36.9656 0.146139 40.0003 3.1126 40.0003 6.77191V33.3742C40.0003 37.0335 36.9656 40 33.2221 40H6.77819C3.03469 40 0 37.0335 0 33.3742V6.77191Z" fill="#CFE6F9"/>
<path d="M6.39027e-06 6.44266C6.39027e-06 3.0273 2.83239 0.258599 6.32632 0.258599H31.7777C35.2716 0.258599 38.104 3.02729 38.104 6.44265V32.0747C38.104 35.4901 35.2716 38.2588 31.7777 38.2588H6.32632C2.8324 38.2588 6.39027e-06 35.4901 6.39027e-06 32.0747V6.44266Z" fill="#E8F3FC"/>
<path d="M6.39027e-06 6.18406C6.39027e-06 2.7687 2.83239 0 6.32632 0H33.674C37.1679 0 40.0003 2.7687 40.0003 6.18406V12.0488H6.39027e-06V6.18406Z" fill="#CFE6F9"/>
<path d="M6.39027e-06 6.18406C6.39027e-06 2.7687 2.83239 0 6.32632 0H31.7777C35.2716 0 38.104 2.7687 38.104 6.18406V12.0488H6.39027e-06V6.18406Z" fill="#E8F3FC"/>
<path d="M19.8816 18.2093C22.977 18.2093 25.4863 15.6735 25.4863 12.5456C25.4863 9.41757 22.977 6.88184 19.8816 6.88184C16.7862 6.88184 14.2769 9.41757 14.2769 12.5456C14.2769 15.6735 16.7862 18.2093 19.8816 18.2093Z" fill="#FFD07B"/>
<path d="M23.7334 8.43457C24.8116 9.46674 25.4853 10.9257 25.4854 12.5449C25.4854 15.6729 22.9763 18.209 19.8809 18.209C17.8458 18.2089 16.0649 17.1124 15.083 15.4727C16.0877 16.4357 17.4434 17.0283 18.9375 17.0283C22.0329 17.0283 24.542 14.4922 24.542 11.3643C24.5419 10.2917 24.246 9.28947 23.7334 8.43457Z" fill="#F6B95E"/>
<path d="M27.197 31.7405C30.2924 31.7405 32.8017 29.2048 32.8017 26.0768C32.8017 22.9488 30.2924 20.4131 27.197 20.4131C24.1016 20.4131 21.5923 22.9488 21.5923 26.0768C21.5923 29.2048 24.1016 31.7405 27.197 31.7405Z" fill="#5CBDF8"/>
<path d="M31.0493 21.9668C32.1273 22.999 32.8013 24.458 32.8013 26.0771C32.8013 29.205 30.2921 31.7411 27.1968 31.7412C25.1619 31.7412 23.3809 30.6445 22.3989 29.0049C23.4036 29.9677 24.7595 30.5605 26.2534 30.5605C29.3486 30.5603 31.8579 28.0243 31.8579 24.8965C31.8579 23.824 31.5618 22.8217 31.0493 21.9668Z" fill="#52AFE7"/>
<path d="M11.9763 31.7405C15.0717 31.7405 17.581 29.2048 17.581 26.0768C17.581 22.9488 15.0717 20.4131 11.9763 20.4131C8.8809 20.4131 6.37158 22.9488 6.37158 26.0768C6.37158 29.2048 8.8809 31.7405 11.9763 31.7405Z" fill="#FF8F88"/>
<path d="M15.8286 21.9658C16.907 22.9981 17.5806 24.4576 17.5806 26.0771C17.5806 29.2051 15.0715 31.7412 11.9761 31.7412C9.94241 31.7411 8.16243 30.6458 7.18018 29.0078C8.18461 29.9692 9.54006 30.5605 11.0327 30.5605C14.1279 30.5603 16.6372 28.0243 16.6372 24.8965C16.6372 23.8237 16.3413 22.8209 15.8286 21.9658Z" fill="#F27D76"/>
<g opacity="0.5">
<path d="M18.1614 13.3692C18.7949 12.2715 20.3786 12.2715 21.0121 13.3692L27.6234 24.8253C28.2569 25.923 27.465 27.2952 26.198 27.2952H12.9755C11.7085 27.2952 10.9166 25.923 11.5501 24.8253L18.1614 13.3692Z" fill="#89909E"/>
<path d="M20.0605 12.6172C20.4406 12.73 20.7865 12.9789 21.0117 13.3691L27.623 24.8252C28.2564 25.9228 27.465 27.2947 26.1982 27.2949H12.9756C12.2641 27.2949 11.7025 26.8619 11.459 26.2881C11.6018 26.3284 11.7543 26.3506 11.9141 26.3506H25.1357C26.4027 26.3506 27.195 24.9786 26.5615 23.8809L20.0605 12.6172Z" fill="#505560"/>
</g>
</svg>
