<svg width="40" height="40" viewBox="0 0 40 40" fill="none" xmlns="http://www.w3.org/2000/svg">
<path d="M0 6.77191C0 3.1126 3.03468 0.146139 6.77815 0.146139H33.2219C36.9653 0.146139 40 3.1126 40 6.77191V33.3742C40 37.0335 36.9653 40 33.2219 40H6.77814C3.03467 40 0 37.0335 0 33.3742V6.77191Z" fill="#CFE6F9"/>
<path d="M6.39023e-06 6.44266C6.39023e-06 3.0273 2.83237 0.258599 6.32628 0.258599H31.7774C35.2714 0.258599 38.1037 3.02729 38.1037 6.44265V32.0747C38.1037 35.4901 35.2714 38.2588 31.7775 38.2588H6.32628C2.83238 38.2588 6.39023e-06 35.4901 6.39023e-06 32.0747V6.44266Z" fill="#E8F3FC"/>
<path d="M6.39023e-06 6.18406C6.39023e-06 2.7687 2.83237 0 6.32628 0H33.6738C37.1677 0 40 2.7687 40 6.18406V12.0488H6.39023e-06V6.18406Z" fill="#CFE6F9"/>
<path d="M6.39023e-06 6.18406C6.39023e-06 2.7687 2.83237 0 6.32628 0H31.7775C35.2714 0 38.1037 2.7687 38.1037 6.18406V12.0488H6.39023e-06V6.18406Z" fill="#E8F3FC"/>
<path fill-rule="evenodd" clip-rule="evenodd" d="M16.4755 28.1386C16.1132 28.1386 15.8193 27.8448 15.8193 27.4824C15.8193 27.1199 16.1131 26.8262 16.4755 26.8262H22.5085C22.8709 26.8262 23.1647 27.1199 23.1647 27.4824C23.1647 27.8448 22.8709 28.1386 22.5085 28.1386H16.4755Z" fill="#253A81"/>
<path fill-rule="evenodd" clip-rule="evenodd" d="M16.4731 29.4491C16.1107 29.4491 15.8169 29.1554 15.8169 28.7929C15.8169 28.4305 16.1107 28.1367 16.4731 28.1367H22.5061C22.8684 28.1367 23.1623 28.4305 23.1623 28.7929C23.1623 29.1554 22.8685 29.4491 22.5061 29.4491H16.4731Z" fill="#354E96"/>
<path fill-rule="evenodd" clip-rule="evenodd" d="M16.4731 26.8261C16.1107 26.8261 15.8169 26.5323 15.8169 26.1699C15.8169 25.8074 16.1107 25.5137 16.4731 25.5137H22.5061C22.8684 25.5137 23.1623 25.8074 23.1623 26.1699C23.1623 26.5323 22.8685 26.8261 22.5061 26.8261H16.4731Z" fill="#354E96"/>
<path fill-rule="evenodd" clip-rule="evenodd" d="M17.8964 30.7421C17.5341 30.7421 17.2402 30.4483 17.2402 30.0859C17.2402 29.7235 17.534 29.4297 17.8964 29.4297H21.088C21.4504 29.4297 21.7443 29.7235 21.7443 30.0859C21.7443 30.4483 21.4505 30.7421 21.088 30.7421H20.1485V30.9847C20.1485 31.3471 19.8547 31.6409 19.4922 31.6409C19.1298 31.6409 18.836 31.3471 18.836 30.9847V30.7421H17.8964Z" fill="#253A81"/>
<path fill-rule="evenodd" clip-rule="evenodd" d="M22.6406 25.5369H16.3437C15.9476 25.5369 15.6245 25.2138 15.6245 24.8177V24.4951C15.6245 20.7485 11.7568 19.696 11.7568 14.6609C11.7568 10.0413 15.6244 7.73145 19.4922 7.73145C23.3599 7.73145 27.2274 10.0413 27.2274 14.6609C27.2274 19.696 23.3598 20.7485 23.3598 24.4951V24.8177C23.3598 25.2139 23.0367 25.5369 22.6405 25.5369H22.6406Z" fill="#E4B053"/>
<path fill-rule="evenodd" clip-rule="evenodd" d="M21.3492 25.5365H16.3437C15.9476 25.5365 15.6245 25.2134 15.6245 24.8173V24.4947C15.6245 20.7481 11.7568 19.6956 11.7568 14.6605C11.7568 10.2982 15.2056 7.99599 18.8464 7.75293C22.4873 7.99594 25.936 10.2982 25.936 14.6605C25.936 19.6956 22.0683 20.7481 22.0683 24.4947V24.8173C22.0683 25.2135 21.7453 25.5365 21.3491 25.5365H21.3492Z" fill="#FFD892"/>
<path d="M18.8364 17.9277H20.1488V25.5372H18.8364V17.9277Z" fill="#E3AE4E"/>
<path d="M19.4922 18.5694C20.448 18.5694 21.2227 17.7946 21.2227 16.8389C21.2227 15.8832 20.448 15.1084 19.4922 15.1084C18.5365 15.1084 17.7617 15.8832 17.7617 16.8389C17.7617 17.7946 18.5365 18.5694 19.4922 18.5694Z" fill="#DC9039"/>
<path fill-rule="evenodd" clip-rule="evenodd" d="M19.0828 18.5205C18.3247 18.3365 17.7617 17.6535 17.7617 16.8389C17.7617 16.0242 18.3246 15.3412 19.0828 15.1572C19.8408 15.3412 20.4038 16.0242 20.4038 16.8389C20.4038 17.6535 19.8409 18.3365 19.0828 18.5205Z" fill="#FFE6C1"/>
<path fill-rule="evenodd" clip-rule="evenodd" d="M31.5665 14.4516C31.9289 14.4516 32.2227 14.7454 32.2227 15.1078C32.2227 15.4702 31.929 15.764 31.5665 15.764H30.1406C29.7782 15.764 29.4844 15.4702 29.4844 15.1078C29.4844 14.7454 29.7782 14.4516 30.1406 14.4516H31.5665ZM7.41793 15.764C7.05554 15.764 6.76172 15.4702 6.76172 15.1078C6.76172 14.7454 7.05549 14.4516 7.41793 14.4516H8.84385C9.20624 14.4516 9.50006 14.7454 9.50006 15.1078C9.50006 15.4702 9.20629 15.764 8.84385 15.764H7.41793ZM8.57816 10.1197C8.26528 9.93848 8.15856 9.53793 8.33978 9.2251C8.521 8.91222 8.92149 8.80549 9.23438 8.98671L10.4692 9.69967C10.7821 9.88089 10.8888 10.2814 10.7076 10.5943C10.5264 10.9071 10.1259 11.0138 9.813 10.8327L8.57816 10.1197ZM9.2318 21.2289C8.91892 21.4087 8.51958 21.3009 8.33978 20.988C8.15997 20.6752 8.26786 20.2758 8.58074 20.096L9.81562 19.383C10.1285 19.2032 10.5278 19.3111 10.7076 19.624C10.8874 19.9368 10.7796 20.3362 10.4667 20.516L9.2318 21.2289ZM30.4062 20.096C30.7191 20.2772 30.8258 20.6778 30.6446 20.9906C30.4634 21.3035 30.0629 21.4102 29.75 21.229L28.5152 20.516C28.2024 20.3348 28.0956 19.9343 28.2768 19.6214C28.458 19.3086 28.8585 19.2018 29.1714 19.383L30.4062 20.096ZM29.7526 8.98676C30.0655 8.80696 30.4648 8.91484 30.6446 9.22773C30.8244 9.54061 30.7165 9.93995 30.4037 10.1198L29.1688 10.8327C28.8559 11.0125 28.4565 10.9046 28.2767 10.5918C28.0969 10.2789 28.2048 9.87953 28.5177 9.69973L29.7526 8.98676Z" fill="#FFB530"/>
</svg>
