<svg width="40" height="40" viewBox="0 0 40 40" fill="none" xmlns="http://www.w3.org/2000/svg">
<path d="M0 6.77191C0 3.1126 3.03468 0.146139 6.77815 0.146139H33.2219C36.9653 0.146139 40 3.1126 40 6.77191V33.3742C40 37.0335 36.9653 40 33.2219 40H6.77814C3.03467 40 0 37.0335 0 33.3742V6.77191Z" fill="#C3E2FC"/>
<path d="M6.39023e-06 6.44266C6.39023e-06 3.0273 2.83237 0.258599 6.32628 0.258599H31.7774C35.2714 0.258599 38.1037 3.02729 38.1037 6.44265V32.0747C38.1037 35.4901 35.2714 38.2588 31.7775 38.2588H6.32628C2.83238 38.2588 6.39023e-06 35.4901 6.39023e-06 32.0747V6.44266Z" fill="#E8F3FC"/>
<path d="M6.39023e-06 6.18406C6.39023e-06 2.7687 2.83237 0 6.32628 0H33.6738C37.1677 0 40 2.7687 40 6.18406V12.0488H6.39023e-06V6.18406Z" fill="#C3E2FC"/>
<path d="M6.39023e-06 6.18406C6.39023e-06 2.7687 2.83237 0 6.32628 0H31.7775C35.2714 0 38.1037 2.7687 38.1037 6.18406V12.0488H6.39023e-06V6.18406Z" fill="#E8F3FC"/>
<path d="M8.88552 34.0545C7.76429 34.2396 6.71981 33.858 5.78164 32.9199C5.56783 32.7061 5.38311 32.4866 5.22708 32.2618C4.69881 31.5015 4.50397 30.6817 4.64703 29.8159C5.20605 26.4267 10.8988 23.5819 11.1405 23.4622C11.3058 23.3809 11.5035 23.4137 11.6336 23.5439L15.1575 27.0677C15.2876 27.1979 15.3204 27.3955 15.2391 27.5608C15.1195 27.8026 12.2748 33.4955 8.88552 34.0545Z" fill="#FFD892"/>
<path d="M15.2396 27.5612C15.12 27.8029 12.2752 33.4958 8.88598 34.0548C7.76475 34.2399 6.72027 33.8584 5.7821 32.9202C5.56829 32.7064 5.38357 32.4869 5.22754 32.2621C5.98785 32.7905 6.80754 32.9852 7.67336 32.8422C11.0626 32.2832 13.9074 26.5903 14.027 26.3486C14.1082 26.1832 14.0755 25.9856 13.9453 25.8555L15.1579 27.0681C15.2881 27.1982 15.3209 27.3959 15.2396 27.5612Z" fill="#FEC46D"/>
<path d="M16.083 28.4441C15.9314 28.5771 15.7071 28.5863 15.5446 28.4659C15.2313 28.2335 14.9079 27.9764 14.5753 27.6963C13.9835 27.1967 13.3631 26.6231 12.7209 25.9808C11.7184 24.9784 10.8826 24.0285 10.2358 23.157C10.1134 22.9917 10.1251 22.7625 10.2645 22.6109C11.5026 21.2661 12.3781 20.4941 12.4145 20.4618C12.5842 20.313 12.8405 20.3212 13.0006 20.4812L18.2204 25.7011C18.3829 25.8636 18.3886 26.1255 18.2329 26.2949C16.9952 27.6401 16.1198 28.4113 16.083 28.4441Z" fill="#354E96"/>
<path d="M16.0828 28.4453C15.9313 28.5783 15.7069 28.5875 15.5445 28.4671C15.2312 28.2347 14.9078 27.9776 14.5752 27.6975C15.7955 26.647 16.9192 25.3907 17.3783 24.8604L18.2203 25.7023C18.3827 25.8648 18.3884 26.1268 18.2328 26.2961C16.9951 27.6413 16.1196 28.4125 16.0828 28.4453Z" fill="#253A81"/>
<path d="M31.2627 24.7418C26.8505 29.1541 19.6706 29.1537 15.2583 24.7414C15.0029 24.4859 14.762 24.2208 14.5364 23.9475C10.861 19.5065 11.1015 12.8941 15.2583 8.73726C19.4156 4.57999 26.0279 4.33949 30.4688 8.01496C30.7421 8.24048 31.0072 8.48139 31.2627 8.73686C35.6749 13.1492 35.6754 20.3291 31.2627 24.7418Z" fill="#253A81"/>
<path d="M30.5547 24.151C26.1425 28.5633 18.9626 28.5629 14.5503 24.1506C14.2949 23.8951 14.054 23.63 13.8284 23.3567C10.153 18.9157 10.3935 12.3033 14.5503 8.14644C18.7076 3.98917 25.3198 3.74867 29.7608 7.42414C30.0341 7.64966 30.2992 7.89057 30.5547 8.14604C34.9669 12.5583 34.9674 19.7383 30.5547 24.151Z" fill="#354E96"/>
<path d="M29.0393 9.66273C28.8347 9.45818 28.623 9.2658 28.4047 9.08474C26.7139 7.68174 24.6335 6.98047 22.5526 6.98047C20.2034 6.98047 17.8546 7.87418 16.0664 9.66319C12.6938 13.0351 12.5014 18.4013 15.4884 22.0012C15.6695 22.2194 15.8619 22.4312 16.0664 22.6358C19.6432 26.2126 25.4625 26.213 29.0393 22.6362C32.616 19.0594 32.616 13.2396 29.0393 9.66273Z" fill="#B9E5FF"/>
<path d="M29.3678 16.2978C29.3495 16.3469 28.914 17.5066 27.8629 18.6719C26.4609 20.2271 24.6246 21.0489 22.5534 21.0489C22.2625 21.0489 21.9767 21.0329 21.6961 21.0004C19.9752 20.8037 18.4486 20.0087 17.2433 18.6719C16.1922 17.5066 15.7567 16.3469 15.739 16.2978C15.7035 16.2023 15.7035 16.0972 15.739 16.0012C15.7567 15.9526 16.1922 14.7924 17.2433 13.627C18.4486 12.2902 19.9752 11.4952 21.6961 11.2986C21.9767 11.266 22.2625 11.25 22.5534 11.25C24.6246 11.25 26.4609 12.0719 27.8629 13.627C28.914 14.7924 29.3495 15.9526 29.3678 16.0012C29.4026 16.0972 29.4026 16.2023 29.3678 16.2978Z" fill="white"/>
<path d="M22.5537 11.25C24.6248 11.2501 26.4614 12.0719 27.8633 13.627C28.9142 14.7922 29.3499 15.9523 29.3682 16.001C29.403 16.097 29.403 16.2024 29.3682 16.2979C29.3499 16.347 28.9142 17.5066 27.8633 18.6719C26.4614 20.2269 24.6248 21.0487 22.5537 21.0488C22.3367 21.0488 22.1224 21.0366 21.9111 21.0186C23.7141 20.8626 25.3133 20.0608 26.5654 18.6719C27.6164 17.5066 28.052 16.347 28.0703 16.2979C28.1052 16.2024 28.1052 16.097 28.0703 16.001C28.0518 15.9518 27.6161 14.792 26.5654 13.627C25.3133 12.238 23.7142 11.4353 21.9111 11.2793C22.1224 11.2613 22.3367 11.25 22.5537 11.25Z" fill="#F2F2F2"/>
<path d="M22.9999 18.9311C24.5345 18.6823 25.5768 17.2366 25.3281 15.702C25.0793 14.1674 23.6336 13.125 22.099 13.3738C20.5644 13.6225 19.522 15.0683 19.7708 16.6029C20.0195 18.1375 21.4652 19.1799 22.9999 18.9311Z" fill="#FF8F88"/>
</svg>
