<svg width="60" height="60" viewBox="0 0 60 60" fill="none" xmlns="http://www.w3.org/2000/svg">
<path d="M30.0225 26C29.1941 26 28.5225 25.2902 28.5225 24.4148V15.5852C28.5225 14.7098 29.1941 14 30.0225 14C30.8508 14 31.5225 14.7098 31.5225 15.5852V24.4148C31.5225 25.2902 30.8508 26 30.0225 26Z" fill="#5CBDF8"/>
<path d="M30.0222 16C32.4972 16 34.5222 13.975 34.5222 11.5C34.5222 9.025 32.4972 7 30.0222 7C27.5472 7 25.5222 9.025 25.5222 11.5C25.5222 13.975 27.5472 16 30.0222 16Z" fill="url(#paint0_linear_1002_6210)"/>
<path d="M4.75122 48.6347H7.62544V31.9395H4.75122C2.12721 31.9395 0 34.0667 0 36.6907V43.8834C0 46.5075 2.12721 48.6347 4.75122 48.6347Z" fill="#5CBDF8"/>
<path d="M55.2488 48.6347H52.3745V31.9395H55.2487C57.8727 31.9395 60 34.0667 60 36.6907V43.8834C60 46.5075 57.8728 48.6347 55.2488 48.6347Z" fill="#5CBDF8"/>
<path d="M47.6017 56H12.4427C9.72426 56 7.52051 53.8058 7.52051 51.0991V28.9009C7.52051 26.1942 9.72426 24 12.4427 24H47.6017C50.3202 24 52.5239 26.1942 52.5239 28.9009V51.099C52.5239 53.8057 50.3202 56 47.6017 56Z" fill="url(#paint1_linear_1002_6210)"/>
<path d="M38 43C39.1046 43 40 42.1046 40 41C40 39.8954 39.1046 39 38 39C36.8954 39 36 39.8954 36 41C36 42.1046 36.8954 43 38 43Z" fill="white"/>
<path d="M22 43C23.1046 43 24 42.1046 24 41C24 39.8954 23.1046 39 22 39C20.8954 39 20 39.8954 20 41C20 42.1046 20.8954 43 22 43Z" fill="white"/>
<path fill-rule="evenodd" clip-rule="evenodd" d="M27.4248 41.0917C27.3762 46.02 23.4086 50 18.5214 50C13.6039 50 9.61748 45.9705 9.61748 41C9.61748 40.8744 9.62002 40.7494 9.62507 40.625H8.1335C7.51881 40.625 7.02051 40.1213 7.02051 39.5C7.02051 38.8787 7.51881 38.375 8.1335 38.375H10.0022C11.1136 34.6849 14.5073 32 18.5214 32C22.612 32 26.0584 34.7883 27.1017 38.5872C28.9166 37.5923 31.1279 37.5923 32.9428 38.5873C33.9861 34.7883 37.4325 32 41.5231 32C45.5373 32 48.9308 34.6849 50.0423 38.375H51.911C52.5258 38.375 53.024 38.8787 53.024 39.5C53.024 40.1213 52.5258 40.625 51.911 40.625H50.4196C50.4244 40.7494 50.427 40.8744 50.427 41C50.427 45.9705 46.4407 50 41.5231 50C36.6359 50 32.6684 46.02 32.6197 41.0917C31.1451 39.7575 28.8994 39.7575 27.4248 41.0917ZM25.1993 41C25.1993 44.7279 22.2095 47.75 18.5214 47.75C14.8333 47.75 11.8435 44.7279 11.8435 41C11.8435 37.2721 14.8333 34.25 18.5214 34.25C22.2095 34.25 25.1993 37.2721 25.1993 41ZM41.5231 47.75C45.2112 47.75 48.2011 44.7279 48.2011 41C48.2011 37.2721 45.2112 34.25 41.5231 34.25C37.835 34.25 34.8452 37.2721 34.8452 41C34.8452 44.7279 37.835 47.75 41.5231 47.75Z" fill="white"/>
<defs>
<linearGradient id="paint0_linear_1002_6210" x1="25.5222" y1="7" x2="34.5222" y2="7" gradientUnits="userSpaceOnUse">
<stop stop-color="#1570EF"/>
<stop offset="1" stop-color="#2E90FA"/>
</linearGradient>
<linearGradient id="paint1_linear_1002_6210" x1="7.52051" y1="24" x2="52.5239" y2="24" gradientUnits="userSpaceOnUse">
<stop stop-color="#1570EF"/>
<stop offset="1" stop-color="#2E90FA"/>
</linearGradient>
</defs>
</svg>
