<svg width="20" height="20" viewBox="0 0 20 20" fill="none" xmlns="http://www.w3.org/2000/svg">
<path d="M10.0002 5.00065C10.4604 5.00065 10.8335 4.62755 10.8335 4.16732C10.8335 3.70708 10.4604 3.33398 10.0002 3.33398C9.53993 3.33398 9.16683 3.70708 9.16683 4.16732C9.16683 4.62755 9.53993 5.00065 10.0002 5.00065Z" stroke="#222244" stroke-width="1.5" stroke-linecap="round" stroke-linejoin="round"/>
<path d="M10.0002 10.834C10.4604 10.834 10.8335 10.4609 10.8335 10.0007C10.8335 9.54041 10.4604 9.16732 10.0002 9.16732C9.53993 9.16732 9.16683 9.54041 9.16683 10.0007C9.16683 10.4609 9.53993 10.834 10.0002 10.834Z" stroke="#222244" stroke-width="1.5" stroke-linecap="round" stroke-linejoin="round"/>
<path d="M10.0002 16.6673C10.4604 16.6673 10.8335 16.2942 10.8335 15.834C10.8335 15.3737 10.4604 15.0007 10.0002 15.0007C9.53993 15.0007 9.16683 15.3737 9.16683 15.834C9.16683 16.2942 9.53993 16.6673 10.0002 16.6673Z" stroke="#222244" stroke-width="1.5" stroke-linecap="round" stroke-linejoin="round"/>
<path d="M15.8335 5.00065C16.2937 5.00065 16.6668 4.62755 16.6668 4.16732C16.6668 3.70708 16.2937 3.33398 15.8335 3.33398C15.3733 3.33398 15.0002 3.70708 15.0002 4.16732C15.0002 4.62755 15.3733 5.00065 15.8335 5.00065Z" stroke="#222244" stroke-width="1.5" stroke-linecap="round" stroke-linejoin="round"/>
<path d="M15.8335 10.834C16.2937 10.834 16.6668 10.4609 16.6668 10.0007C16.6668 9.54041 16.2937 9.16732 15.8335 9.16732C15.3733 9.16732 15.0002 9.54041 15.0002 10.0007C15.0002 10.4609 15.3733 10.834 15.8335 10.834Z" stroke="#222244" stroke-width="1.5" stroke-linecap="round" stroke-linejoin="round"/>
<path d="M15.8335 16.6673C16.2937 16.6673 16.6668 16.2942 16.6668 15.834C16.6668 15.3737 16.2937 15.0007 15.8335 15.0007C15.3733 15.0007 15.0002 15.3737 15.0002 15.834C15.0002 16.2942 15.3733 16.6673 15.8335 16.6673Z" stroke="#222244" stroke-width="1.5" stroke-linecap="round" stroke-linejoin="round"/>
<path d="M4.16683 5.00065C4.62707 5.00065 5.00016 4.62755 5.00016 4.16732C5.00016 3.70708 4.62707 3.33398 4.16683 3.33398C3.70659 3.33398 3.3335 3.70708 3.3335 4.16732C3.3335 4.62755 3.70659 5.00065 4.16683 5.00065Z" stroke="#222244" stroke-width="1.5" stroke-linecap="round" stroke-linejoin="round"/>
<path d="M4.16683 10.834C4.62707 10.834 5.00016 10.4609 5.00016 10.0007C5.00016 9.54041 4.62707 9.16732 4.16683 9.16732C3.70659 9.16732 3.3335 9.54041 3.3335 10.0007C3.3335 10.4609 3.70659 10.834 4.16683 10.834Z" stroke="#222244" stroke-width="1.5" stroke-linecap="round" stroke-linejoin="round"/>
<path d="M4.16683 16.6673C4.62707 16.6673 5.00016 16.2942 5.00016 15.834C5.00016 15.3737 4.62707 15.0007 4.16683 15.0007C3.70659 15.0007 3.3335 15.3737 3.3335 15.834C3.3335 16.2942 3.70659 16.6673 4.16683 16.6673Z" stroke="#222244" stroke-width="1.5" stroke-linecap="round" stroke-linejoin="round"/>
</svg>
