<svg width="36" height="36" viewBox="0 0 36 36" fill="none" xmlns="http://www.w3.org/2000/svg">
<path d="M9.4214 21.0341C9.4214 20.1483 12.7823 19.6513 14.3473 19.5306L14.497 19.617C13.8958 19.7265 11.4835 20.1519 11.4835 20.707C11.4835 21.3111 15.1834 21.707 17.3307 21.707C20.978 21.707 23.4573 21.1549 24.1241 20.9733L25.0572 21.5159C24.4181 21.8289 21.6756 22.6484 17.3307 22.6484C12.5024 22.6483 9.4214 21.704 9.4214 21.0341ZM16.7804 33.4719C14.8692 33.4884 12.5361 33.3304 10.5734 33.0009L10.3911 33.105C12.3467 33.6784 15.0691 34.0245 18.0603 33.9985C23.9347 33.9476 28.6974 32.4908 28.7915 30.7376L28.724 30.698C28.33 31.1784 25.7892 33.3932 16.7804 33.4719ZM17.2804 32.3429C22.0886 32.3009 27.4678 31.3601 27.4542 29.7785C27.4513 29.4915 27.2648 29.2951 27.1027 29.1767L27.0234 29.2223C26.579 30.4471 22.8229 31.3524 17.2727 31.4004C13.6916 31.4317 8.73077 30.5737 8.7219 29.5826C8.71359 28.5885 11.0721 28.0424 11.0721 28.0424L10.9053 27.9472C9.32484 28.1649 6.41246 28.9217 6.4219 30.0146C6.43565 31.5944 13.129 32.379 17.2804 32.3429ZM28.1122 21.4573C28.0152 23.3123 26.3016 24.4673 24.5886 25.443L24.7437 25.533C26.5715 25.0182 29.8329 23.5212 29.5631 21.2194C29.4288 20.0721 28.3797 19.252 27.0122 19.252C26.5862 19.252 26.2075 19.3271 25.9004 19.4206L25.8992 19.4235L25.8341 19.5868C27.0578 19.3472 28.1755 20.2407 28.1122 21.4573ZM13.9888 26.969C13.4308 27.0802 12.2148 27.3595 12.2148 27.9506C12.2148 28.7696 14.816 29.3974 17.3278 29.3974C20.784 29.3974 22.1999 28.508 22.2638 28.4619L20.8265 27.6305C20.2153 27.776 19.1857 28.0044 17.3313 28.0044C15.2621 28.0044 13.9136 27.6506 13.9136 27.2624C13.9136 27.1802 13.9651 27.082 14.061 27.011L13.9888 26.969ZM22.4792 24.2081C21.6845 24.433 19.894 24.7998 17.3337 24.7998C14.8213 24.7998 12.7686 24.3702 12.7621 23.8637C12.7573 23.5264 13.165 23.3797 13.165 23.3797L13.0928 23.3377C11.8893 23.5502 10.7721 23.8792 10.7781 24.3714C10.7893 25.2643 14.2046 25.9347 17.3289 25.9347C19.9851 25.9347 22.5359 25.4892 23.6868 24.9052L22.4792 24.2081Z" fill="#427595"/>
<path d="M21.7935 4.28876C21.7935 9.2124 15.0462 11.0963 15.0462 14.5969C15.0462 17.0543 16.6758 18.5951 17.5775 19.5696L17.5042 19.6122C16.3657 18.8998 13.3711 17.1105 13.3711 14.1549C13.3711 10.0053 21.1213 8.02246 21.1213 3.3095C21.1213 2.72963 21.0355 2.28469 20.9752 2.045L21.0533 2C21.2988 2.30831 21.7935 3.07988 21.7935 4.28876ZM24.0124 8.64902L23.9313 8.6029C22.4633 9.09459 17.9427 10.8792 17.9427 14.2058C17.9427 16.0868 19.7799 17.1294 19.7799 18.8933C19.7799 19.5229 19.4243 20.1128 19.1355 20.4654L19.2805 20.5494C20.0455 20.0524 21.3993 18.9761 21.3993 17.5868C21.3993 16.4099 19.771 14.9957 19.771 13.4833C19.771 11.0999 22.913 9.23009 24.0124 8.64902Z" fill="#DE8E2F"/>
</svg>
