<svg width="40" height="40" viewBox="0 0 40 40" fill="none" xmlns="http://www.w3.org/2000/svg">
<path d="M20.2212 36.4678C20.1742 36.507 20.135 36.5541 20.0879 36.6011V36.5462C20.1036 36.5384 20.1193 36.5305 20.135 36.5148H20.1428C20.1663 36.4992 20.1977 36.4835 20.2212 36.4678Z" fill="#E8F3FC"/>
<path d="M34.8297 29.7829C30.8054 29.6025 26.5536 31.2734 22.7647 34.223C21.8939 34.8977 21.0467 35.6429 20.2309 36.4509H20.223C20.1916 36.4666 20.1681 36.4823 20.1367 36.5058C20.9683 35.0624 21.8469 33.721 22.7568 32.4893C25.4554 28.8416 28.4128 26.2136 31.2212 25.233V13.3561C31.2134 12.1166 31.2134 10.8693 31.2134 9.62985V6.31938C32.4214 6.06051 33.6217 5.95853 34.8141 6.01344V15.7252C34.8297 20.4085 34.8297 25.0996 34.8297 29.7829Z" fill="#C3E2FC"/>
<path d="M20.0157 36.6007C20.0078 36.6085 20.0078 36.6085 20 36.6085V36.585L20.0157 36.6007Z" fill="#C3E2FC"/>
<path d="M31.2315 13.3682V25.2373C28.4152 26.2178 25.4578 28.8458 22.7671 32.4936C21.8571 33.7252 20.9785 35.0745 20.147 36.5101H20.1391C20.1234 36.518 20.1077 36.5258 20.0921 36.5415C20.0764 36.5493 20.0607 36.5572 20.045 36.5729V13.0544C20.0371 13.0466 20.0371 13.0466 20.0293 13.0466C20.0528 13.0309 20.0685 13.0152 20.0921 13.0073V12.8269C23.4103 7.08459 27.4425 2.78569 31.2315 1.46777V9.64197C31.2236 10.8893 31.2236 12.1287 31.2315 13.3682Z" fill="#E8F3FC"/>
<path d="M37.2827 10.3371V33.879C37.267 33.8712 37.2592 33.8712 37.2435 33.8712C32.4033 32.569 27.2886 33.1338 22.7544 35.142C21.8915 35.5186 21.0521 35.9579 20.2441 36.4443L20.252 36.4286C21.0521 35.6363 21.8915 34.8989 22.7544 34.2321C26.5512 31.2824 30.7952 29.6115 34.8273 29.7919C34.8273 25.1087 34.8273 20.4175 34.8195 15.7264V9.82715C35.651 9.95266 36.4669 10.1174 37.2827 10.3371Z" fill="#A4CCEC"/>
<path d="M20.2579 36.4287L20.2501 36.4444C20.2422 36.4444 20.2344 36.4522 20.2344 36.4522L20.2579 36.4287Z" fill="#C3E2FC"/>
<path d="M39.3252 13.3818H37.2856V33.8958C37.2778 33.8879 37.2542 33.8879 37.2464 33.8879V36.1629H24.0831L22.7573 35.5353V35.1588C21.8866 35.5432 21.0393 35.9825 20.2235 36.4688H20.2157C20.1843 36.4845 20.1607 36.5002 20.1294 36.5237H20.1215C20.1058 36.5316 20.0901 36.5394 20.0744 36.5551C20.0588 36.563 20.0431 36.5708 20.0274 36.5865C20.0195 36.5943 20.0195 36.5943 20.0117 36.6022H20.0038L19.9882 36.5865C19.9803 36.5865 19.9803 36.5787 19.9803 36.5787C19.9568 36.563 19.9332 36.5473 19.9097 36.5316C19.0468 36.0138 18.1525 35.551 17.2347 35.1431V35.5353L15.9168 36.1629H2.76132V13.3818H0.682484C0.298097 13.3818 0 13.6407 0 13.9702V37.9436C0 38.2731 0.305941 38.532 0.682484 38.532H15.9717C16.411 38.532 16.8503 38.4379 17.2268 38.2496L20.0038 36.9238L22.7809 38.2496C23.1652 38.43 23.5967 38.532 24.036 38.532H39.3174C39.7018 38.532 39.9999 38.2731 39.9999 37.9436V13.9702C40.0077 13.6407 39.7018 13.3818 39.3252 13.3818Z" fill="#253A81"/>
<path d="M17.2449 35.1428V35.535L15.927 36.1626H2.76367V33.8954C7.60382 32.5854 12.7185 33.1423 17.2449 35.1428Z" fill="#4059A0"/>
<path d="M37.243 33.8869V36.1618H24.0797L22.7539 35.5342V35.1577C27.2881 33.1495 32.4107 32.5846 37.243 33.8869Z" fill="#4059A0"/>
<path d="M19.918 36.5227C19.0551 36.005 18.1608 35.5421 17.243 35.1342C12.7166 33.1338 7.6019 32.5768 2.75391 33.8869V10.3449C3.57759 10.1174 4.41697 9.94482 5.26419 9.82715C5.25635 11.0117 5.25635 12.1884 5.25635 13.373V15.7342C5.25635 20.4254 5.25635 25.1087 5.2485 29.7998C9.24927 29.6194 13.4618 31.2668 17.2351 34.1771C18.1686 34.8832 19.0629 35.6755 19.918 36.5227Z" fill="#A4CCEC"/>
<path d="M20.0411 13.0415V36.5599C20.0332 36.5678 20.0332 36.5678 20.0254 36.5756H20.0175L20.0018 36.5599C19.994 36.5599 19.994 36.5521 19.994 36.5521C19.9705 36.5364 19.9469 36.5207 19.9234 36.505C19.0605 35.6578 18.1662 34.8655 17.2484 34.1594C13.4673 31.2491 9.25468 29.6017 5.25391 29.7821C5.26175 25.0988 5.26175 20.4077 5.26175 15.7165V13.3553C5.26175 12.1707 5.26175 10.994 5.2696 9.80946V6.01261C10.2745 5.78512 15.6167 8.42879 20.0018 12.814V13.0179C20.0097 13.0258 20.0097 13.0258 20.0175 13.0336H20.0254C20.0332 13.0336 20.0332 13.0336 20.0411 13.0415Z" fill="#C3E2FC"/>
<path d="M17.6289 17.1109C17.4877 17.1109 17.3465 17.0638 17.221 16.9697C14.3342 14.6633 11.2198 13.165 8.23103 12.6394C7.87803 12.5766 7.64269 12.2393 7.70544 11.8863C7.7682 11.5333 8.10552 11.298 8.45853 11.3607C11.667 11.9177 14.9774 13.5102 18.0368 15.9577C18.3192 16.1852 18.3663 16.5931 18.1388 16.8756C18.0055 17.0246 17.8172 17.1109 17.6289 17.1109Z" fill="#535862"/>
<path d="M17.6289 22.3843C17.4877 22.3843 17.3465 22.3373 17.221 22.2431C14.3342 19.9368 11.2198 18.4384 8.23103 17.9128C7.87803 17.8501 7.64269 17.5128 7.70544 17.1597C7.7682 16.8067 8.10552 16.5714 8.45853 16.6342C11.667 17.1911 14.9774 18.7836 18.0368 21.2312C18.3192 21.4587 18.3663 21.8666 18.1388 22.149C18.0055 22.298 17.8172 22.3843 17.6289 22.3843Z" fill="#535862"/>
<path d="M17.6289 28.6343C17.4877 28.6343 17.3465 28.5873 17.221 28.4931C14.3342 26.1868 11.2198 24.6884 8.23103 24.1628C7.87803 24.1001 7.64269 23.7628 7.70544 23.4097C7.7682 23.0567 8.10552 22.8214 8.45853 22.8842C11.667 23.4411 14.9774 25.0336 18.0368 27.4812C18.3192 27.7087 18.3663 28.1166 18.1388 28.399C18.0055 28.548 17.8172 28.6343 17.6289 28.6343Z" fill="#535862"/>
</svg>
