<svg width="40" height="40" viewBox="0 0 40 40" fill="none" xmlns="http://www.w3.org/2000/svg">
<path d="M0 6.77191C0 3.1126 3.03468 0.146139 6.77815 0.146139H33.2219C36.9653 0.146139 40 3.1126 40 6.77191V33.3742C40 37.0335 36.9653 40 33.2219 40H6.77814C3.03467 40 0 37.0335 0 33.3742V6.77191Z" fill="#CFE6F9"/>
<path d="M6.39023e-06 6.44266C6.39023e-06 3.0273 2.83237 0.258599 6.32628 0.258599H31.7774C35.2714 0.258599 38.1037 3.02729 38.1037 6.44265V32.0747C38.1037 35.4901 35.2714 38.2588 31.7775 38.2588H6.32628C2.83238 38.2588 6.39023e-06 35.4901 6.39023e-06 32.0747V6.44266Z" fill="#E8F3FC"/>
<path d="M6.39023e-06 6.18406C6.39023e-06 2.7687 2.83237 0 6.32628 0H33.6738C37.1677 0 40 2.7687 40 6.18406V12.0488H6.39023e-06V6.18406Z" fill="#CFE6F9"/>
<path d="M6.39023e-06 6.18406C6.39023e-06 2.7687 2.83237 0 6.32628 0H31.7775C35.2714 0 38.1037 2.7687 38.1037 6.18406V12.0488H6.39023e-06V6.18406Z" fill="#E8F3FC"/>
<path d="M17.774 7.67674C19.6724 5.77835 22.7503 5.7783 24.6487 7.67674C26.5472 9.57514 26.5471 12.653 24.6487 14.5514L16.3418 22.8584C15.9621 23.2381 15.3465 23.2381 14.9668 22.8584C14.5872 22.4787 14.5872 21.8631 14.9668 21.4835L23.2737 13.1764C24.4128 12.0374 24.4128 10.1907 23.2737 9.0517V9.05154C22.1348 7.91259 20.2881 7.91265 19.149 9.0517L8.14931 20.0512C7.76964 20.4309 7.15418 20.4309 6.77451 20.0512C6.39483 19.6715 6.39483 19.0559 6.77451 18.6763L17.774 7.67674Z" fill="#253A81"/>
<path d="M23.3632 13.0901C25.2375 11.3085 28.1841 11.3085 30.0584 13.0901L30.1483 13.1778L30.2056 13.2351L30.2931 13.3248C32.1035 15.2292 32.0743 18.2409 30.2056 20.1097L20.2574 30.0579V30.058C20.1309 30.1846 20.1309 30.3896 20.2574 30.5161L22.3001 32.559C22.6798 32.9387 22.6798 33.5543 22.3001 33.934C21.9204 34.3137 21.3048 34.3135 20.9252 33.9338L18.8824 31.8911C17.9965 31.0052 17.9965 29.5688 18.8824 28.6829L28.8306 18.7347C29.9696 17.5957 29.9696 15.7491 28.8306 14.61L28.7733 14.5527L28.7195 14.5002C27.5768 13.4139 25.7696 13.4313 24.6483 14.5526L16.456 22.7451C16.0763 23.1247 15.4608 23.1247 15.0811 22.7451C14.7015 22.3654 14.7015 21.7498 15.0811 21.3701L23.2735 13.1778L23.3632 13.0901Z" fill="#253A81"/>
<path d="M20.5242 10.4273C20.9038 10.0477 21.5194 10.0477 21.8991 10.4273C22.2788 10.807 22.2788 11.4225 21.8991 11.8021L13.7641 19.9373H13.7639C12.625 21.0763 12.625 22.9231 13.7641 24.0622H13.7639C14.903 25.2012 16.7498 25.2011 17.8888 24.0622L26.024 15.927C26.4037 15.5474 27.0193 15.5474 27.399 15.927C27.7786 16.3067 27.7786 16.9223 27.399 17.302L19.2638 25.4372C17.395 27.3058 14.3835 27.335 12.479 25.5248L12.3891 25.4372C10.4908 23.5387 10.4907 20.4608 12.3891 18.5624L20.5242 10.4273Z" fill="#253A81"/>
<path d="M17.3019 7.20506C19.2003 5.30667 22.2782 5.30662 24.1765 7.20506C26.075 9.10346 26.075 12.1813 24.1765 14.0797L15.8696 22.3867C15.4899 22.7664 14.8743 22.7664 14.4947 22.3867C14.115 22.0071 14.115 21.3915 14.4947 21.0118L22.8016 12.7047C23.9406 11.5657 23.9406 9.71905 22.8016 8.58002V8.57986C21.6626 7.44091 19.8159 7.44097 18.6768 8.58002L7.67714 19.5795C7.29747 19.9592 6.68201 19.9592 6.30234 19.5795C5.92266 19.1999 5.92266 18.5843 6.30234 18.2046L17.3019 7.20506Z" fill="#354E96"/>
<path d="M22.8915 12.6175C24.7658 10.8358 27.7124 10.8359 29.5867 12.6175L29.6766 12.7051L29.7339 12.7624L29.8214 12.8521C31.6318 14.7566 31.6027 17.7683 29.7339 19.637L19.7857 29.5852V29.5854C19.6592 29.7119 19.6592 29.917 19.7857 30.0435L21.8284 32.0864C22.2081 32.4661 22.2081 33.0817 21.8284 33.4613C21.4488 33.841 20.8332 33.8409 20.4535 33.4612L18.4107 31.4184C17.5248 30.5325 17.5248 29.0961 18.4107 28.2103L28.3589 18.2621C29.498 17.1231 29.498 15.2764 28.3589 14.1374L28.3016 14.0801L28.2478 14.0275C27.1051 12.9413 25.2979 12.9586 24.1766 14.0799L15.9843 22.2724C15.6046 22.6521 14.9891 22.6521 14.6095 22.2724C14.2298 21.8927 14.2298 21.2771 14.6095 20.8974L22.8018 12.7051L22.8915 12.6175Z" fill="#354E96"/>
<path d="M20.052 9.95468C20.4317 9.575 21.0473 9.575 21.427 9.95468C21.8066 10.3344 21.8066 10.9498 21.427 11.3295L13.2919 19.4647H13.2918C12.1528 20.6037 12.1529 22.4504 13.2919 23.5896H13.2918C14.4308 24.7285 16.2776 24.7285 17.4166 23.5896L25.5518 15.4544C25.9315 15.0747 26.5471 15.0747 26.9268 15.4544C27.3065 15.834 27.3065 16.4496 26.9268 16.8293L18.7916 24.9645C16.9229 26.8331 13.9113 26.8623 12.0068 25.0522L11.917 24.9645C10.0186 23.0661 10.0185 19.9881 11.917 18.0897L20.052 9.95468Z" fill="#354E96"/>
</svg>
