<svg width="36" height="36" viewBox="0 0 36 36" fill="none" xmlns="http://www.w3.org/2000/svg">
<path d="M17.8353 4.00023C16.6934 4.00553 15.6029 4.10292 14.6433 4.27271C11.8166 4.77208 11.3034 5.81723 11.3034 7.74475V10.2904H17.9832V11.1389H11.3034H8.79649C6.85516 11.1389 5.15522 12.3057 4.62355 14.5253C4.01024 17.0695 3.98306 18.6572 4.62355 21.3137C5.0984 23.2911 6.23233 24.7001 8.17366 24.7001H10.4703V21.6484C10.4703 19.4437 12.378 17.4991 14.6433 17.4991H21.3154C23.1727 17.4991 24.6553 15.97 24.6553 14.1049V7.74475C24.6553 5.93464 23.1281 4.57484 21.3154 4.27271C20.1679 4.08171 18.9773 3.99492 17.8353 4.00023ZM14.2229 6.04767C14.9129 6.04767 15.4763 6.62031 15.4763 7.32435C15.4763 8.02593 14.9129 8.59327 14.2229 8.59327C13.5305 8.59327 12.9695 8.02593 12.9695 7.32435C12.9695 6.62025 13.5305 6.04767 14.2229 6.04767Z" fill="url(#paint0_linear_772_4170)"/>
<path d="M25.4887 11.1417V14.1077C25.4887 16.4072 23.539 18.3426 21.3157 18.3426H14.6437C12.8161 18.3426 11.3037 19.9067 11.3037 21.7368V28.097C11.3037 29.9071 12.8779 30.9718 14.6437 31.4911C16.7581 32.1128 18.7858 32.2252 21.3157 31.4911C22.9974 31.0043 24.6556 30.0245 24.6556 28.097V25.5513H17.9835V24.7027H24.6556H27.9956C29.9369 24.7027 30.6603 23.3487 31.3355 21.3164C32.0329 19.2241 32.0032 17.2121 31.3355 14.528C30.8557 12.5955 29.9394 11.1416 27.9956 11.1416H25.4887V11.1417ZM21.7362 27.2485C22.4286 27.2485 22.9896 27.8158 22.9896 28.5174C22.9896 29.2215 22.4286 29.7941 21.7362 29.7941C21.0462 29.7941 20.4827 29.2215 20.4827 28.5174C20.4827 27.8158 21.0461 27.2485 21.7362 27.2485Z" fill="url(#paint1_linear_772_4170)"/>
<defs>
<linearGradient id="paint0_linear_772_4170" x1="3.49864" y1="4.79622" x2="18.9042" y2="17.9349" gradientUnits="userSpaceOnUse">
<stop stop-color="#5A9FD4"/>
<stop offset="1" stop-color="#306998"/>
</linearGradient>
<linearGradient id="paint1_linear_772_4170" x1="24.7022" y1="26.103" x2="19.1778" y2="18.3552" gradientUnits="userSpaceOnUse">
<stop stop-color="#FFD43B"/>
<stop offset="1" stop-color="#FFE873"/>
</linearGradient>
</defs>
</svg>
