<svg width="41" height="40" viewBox="0 0 41 40" fill="none" xmlns="http://www.w3.org/2000/svg">
<path d="M0 6.77191C0 3.1126 3.03855 0.146139 6.7868 0.146139H33.2643C37.0125 0.146139 40.0511 3.1126 40.0511 6.77191V33.3742C40.0511 37.0335 37.0125 40 33.2643 40H6.78679C3.03855 40 0 37.0335 0 33.3742V6.77191Z" fill="#C3E2FC"/>
<path d="M6.39838e-06 6.44266C6.39838e-06 3.0273 2.83599 0.258599 6.33435 0.258599H31.818C35.3164 0.258599 38.1524 3.02729 38.1524 6.44265V32.0747C38.1524 35.4901 35.3164 38.2588 31.818 38.2588H6.33436C2.83599 38.2588 6.39838e-06 35.4901 6.39838e-06 32.0747V6.44266Z" fill="#E8F3FC"/>
<path d="M6.39838e-06 6.18406C6.39838e-06 2.7687 2.83599 0 6.33435 0H33.7167C37.2151 0 40.0511 2.7687 40.0511 6.18406V12.0488H6.39838e-06V6.18406Z" fill="#253A81"/>
<path d="M6.39838e-06 6.18406C6.39838e-06 2.7687 2.83599 0 6.33435 0H31.818C35.3164 0 38.1524 2.7687 38.1524 6.18406V12.0488H6.39838e-06V6.18406Z" fill="#354E96"/>
<path d="M9.05483 6.24748C9.05483 7.52864 7.99125 8.56723 6.67927 8.56723C5.36728 8.56723 4.30371 7.52864 4.30371 6.24748C4.30371 4.96632 5.36728 3.92773 6.67927 3.92773C7.99125 3.92773 9.05483 4.96632 9.05483 6.24748Z" fill="#D92D20"/>
<path d="M8.57972 6.01551C8.57972 7.16855 7.6225 8.10328 6.44171 8.10328C5.26093 8.10328 4.30371 7.16855 4.30371 6.01551C4.30371 4.86246 5.26093 3.92773 6.44171 3.92773C7.6225 3.92773 8.57972 4.86246 8.57972 6.01551Z" fill="#F04438"/>
<path d="M15.2252 6.24748C15.2252 7.52864 14.1617 8.56723 12.8497 8.56723C11.5377 8.56723 10.4741 7.52864 10.4741 6.24748C10.4741 4.96632 11.5377 3.92773 12.8497 3.92773C14.1617 3.92773 15.2252 4.96632 15.2252 6.24748Z" fill="#EAAA08"/>
<path d="M14.7501 6.01551C14.7501 7.16855 13.7929 8.10328 12.6121 8.10328C11.4313 8.10328 10.4741 7.16855 10.4741 6.01551C10.4741 4.86246 11.4313 3.92773 12.6121 3.92773C13.7929 3.92773 14.7501 4.86246 14.7501 6.01551Z" fill="#FAC515"/>
<path d="M21.3961 6.24748C21.3961 7.52864 20.3326 8.56723 19.0206 8.56723C17.7086 8.56723 16.645 7.52864 16.645 6.24748C16.645 4.96632 17.7086 3.92773 19.0206 3.92773C20.3326 3.92773 21.3961 4.96632 21.3961 6.24748Z" fill="#099250"/>
<path d="M20.921 6.01551C20.921 7.16855 19.9638 8.10328 18.783 8.10328C17.6022 8.10328 16.645 7.16855 16.645 6.01551C16.645 4.86246 17.6022 3.92773 18.783 3.92773C19.9638 3.92773 20.921 4.86246 20.921 6.01551Z" fill="#16B364"/>
<path d="M25.9251 18.1056C26.376 17.6653 27.1068 17.6653 27.5577 18.1056L33.3304 23.7425C33.7813 24.1827 33.7813 24.8964 33.3304 25.3366L27.5577 30.9735C27.1068 31.4138 26.376 31.4138 25.9251 30.9735C25.4742 30.5333 25.4742 29.8196 25.9251 29.3793L30.8815 24.5396L25.9251 19.6998C25.4742 19.2595 25.4742 18.5459 25.9251 18.1056Z" fill="#535862"/>
<path d="M13.5588 18.1056C13.1079 17.6653 12.3771 17.6653 11.9262 18.1056L6.15346 23.7425C5.70258 24.1827 5.70258 24.8964 6.15346 25.3366L11.9262 30.9735C12.3771 31.4138 13.1079 31.4138 13.5588 30.9735C14.0097 30.5333 14.0097 29.8196 13.5588 29.3793L8.60237 24.5396L13.5588 19.6998C14.0097 19.2595 14.0097 18.5459 13.5588 18.1056Z" fill="#535862"/>
<path d="M20.5044 16.5872C20.7077 16.0095 21.3308 15.702 21.8961 15.9005C22.4615 16.0989 22.755 16.7281 22.5517 17.3058L18.3801 33.9553C18.1768 34.533 17.5537 34.8405 16.9884 34.642C16.423 34.4436 16.1295 33.8144 16.3328 33.2367L20.5044 16.5872Z" fill="#535862"/>
</svg>
