<svg width="36" height="36" viewBox="0 0 36 36" fill="none" xmlns="http://www.w3.org/2000/svg">
<rect width="36" height="36" rx="18" fill="#FBF0F1"/>
<rect x="0.5" y="0.5" width="35" height="35" rx="17.5" stroke="#C22E33" stroke-opacity="0.2"/>
<path d="M17.6132 7L18.3408 7.6443C18.8798 8.12203 19.4204 8.59819 19.9532 9.0822C23.4057 12.2173 26.3286 15.7452 28.5286 19.8059C28.6418 20.0133 28.7439 20.2271 28.8461 20.4392L29.0001 20.7582L28.8304 20.8478L28.7031 20.6671L28.3731 20.1972L28.1421 19.8609C26.5407 17.5367 24.9363 15.2094 22.7331 13.3472C22.0665 12.7829 21.3309 12.3055 20.544 11.9266C18.9506 11.1644 17.5331 11.4693 16.3168 12.7202C15.1602 13.9098 14.5599 15.3869 14.0177 16.8893C13.947 17.0826 13.8732 17.2743 13.7993 17.466L13.6704 17.8039L13.4001 17.7174C13.5573 17.1706 13.7019 16.6205 13.8464 16.069C14.1765 14.8196 14.5065 13.5703 14.9653 12.3666C15.4525 11.0843 16.0685 9.8475 16.6829 8.61076C16.9485 8.07489 17.2141 7.53901 17.4687 7H17.6132Z" fill="#C22E33"/>
<path d="M18.7037 22.4346C16.1485 23.6447 9.96639 24.8924 7.03403 24.5718C6.55474 22.048 11.2581 10.2212 13.5682 8.42969L13.4189 8.77227C13.3523 8.93353 13.28 9.09235 13.202 9.24842L13.0983 9.45114C11.904 11.7486 10.7113 14.0493 10.1 16.5699C9.87983 17.4381 9.75961 18.3286 9.74167 19.2241C9.72595 21.3299 11.0366 22.7631 13.2256 22.8526C14.2785 22.8951 15.3424 22.7851 16.4047 22.6735C16.8667 22.6263 17.3271 22.5776 17.7876 22.5415C17.9573 22.5289 18.1239 22.5085 18.3407 22.4802L18.7037 22.4362V22.4346Z" fill="#C22E33"/>
<path d="M11.4388 27.0846C10.7395 27.138 10.0402 27.1915 9.34399 27.2543C15.7823 27.8672 21.9629 26.819 28.0601 24.6708C26.0722 21.1664 23.3929 18.3991 20.2782 15.9932C20.3191 16.1472 20.4103 16.2587 20.4998 16.3687L20.5753 16.463C20.8424 16.8182 21.1221 17.1671 21.4034 17.5159C22.0461 18.3158 22.6889 19.1157 23.1729 19.9957C24.3955 22.2272 23.7323 24.157 21.3374 25.1753C19.7628 25.8463 18.0421 26.3036 16.3402 26.577C14.7215 26.8347 13.0794 26.9589 11.4388 27.0846Z" fill="#C22E33"/>
</svg>
