<svg width="40" height="40" viewBox="0 0 40 40" fill="none" xmlns="http://www.w3.org/2000/svg">
<path d="M18.6065 3.87638C18.6065 1.73563 16.8711 0.000212025 14.7304 0.000211931C12.5896 0.000211837 10.8542 1.7358 10.8542 3.87655C10.8542 6.01748 12.5898 7.75322 14.7307 7.75322L18.6065 7.75322L18.6065 3.87638ZM18.6065 14.7309C18.6065 12.59 16.871 10.8544 14.73 10.8544L3.8765 10.8544C1.73557 10.8544 2.6303e-07 12.59 1.69447e-07 14.7309C7.58641e-08 16.8719 1.73557 18.6074 3.8765 18.6074L14.73 18.6074C16.871 18.6074 18.6065 16.8719 18.6065 14.7309Z" fill="#36C5F0"/>
<path d="M36.1231 18.6075C38.2639 18.6075 39.9993 16.8721 39.9993 14.7314C39.9993 12.5906 38.2637 10.8552 36.123 10.8552C33.982 10.8552 32.2463 12.5908 32.2463 14.7317V18.6075H36.1231ZM25.2686 18.6075C27.4095 18.6075 29.1451 16.872 29.1451 14.731V3.87748C29.1451 1.73654 27.4095 0.000976562 25.2686 0.000976562C23.1277 0.000976562 21.3921 1.73655 21.3921 3.87748V14.731C21.3921 16.872 23.1277 18.6075 25.2686 18.6075Z" fill="#2EB67D"/>
<path d="M3.87638 21.3935C1.73563 21.3935 0.000211287 23.1289 0.000211287 25.2696C0.000211287 27.4104 1.7358 29.1458 3.87655 29.1458C6.01748 29.1458 7.75321 27.4102 7.75321 25.2693V21.3935H3.87638ZM14.7309 21.3935C12.59 21.3935 10.8544 23.129 10.8544 25.27V36.1235C10.8544 38.2644 12.59 40 14.7309 40C16.8719 40 18.6074 38.2644 18.6074 36.1235V25.27C18.6074 23.129 16.8719 21.3935 14.7309 21.3935Z" fill="#E01E5A"/>
<path d="M21.393 36.1236C21.393 38.2644 23.1284 39.9998 25.2691 39.9998C27.4099 39.9998 29.1453 38.2642 29.1453 36.1235C29.1453 33.9825 27.4097 32.2468 25.2688 32.2468L21.393 32.2468L21.393 36.1236ZM21.393 25.2691C21.393 27.41 23.1285 29.1456 25.2695 29.1456L36.123 29.1456C38.2639 29.1456 39.9995 27.41 39.9995 25.2691C39.9995 23.1281 38.2639 21.3926 36.123 21.3926L25.2695 21.3926C23.1285 21.3926 21.393 23.1281 21.393 25.2691Z" fill="#ECB22E"/>
</svg>
