<svg width="40" height="40" viewBox="0 0 40 40" fill="none" xmlns="http://www.w3.org/2000/svg">
<path d="M0 6.77191C0 3.1126 3.03468 0.146139 6.77815 0.146139H33.2219C36.9653 0.146139 40 3.1126 40 6.77191V33.3742C40 37.0335 36.9653 40 33.2219 40H6.77814C3.03467 40 0 37.0335 0 33.3742V6.77191Z" fill="#C3E2FC"/>
<path d="M6.39023e-06 6.44266C6.39023e-06 3.0273 2.83237 0.258599 6.32628 0.258599H31.7775C35.2714 0.258599 38.1037 3.0273 38.1037 6.44265V32.0747C38.1037 35.4901 35.2714 38.2588 31.7775 38.2588H6.32628C2.83238 38.2588 6.39023e-06 35.4901 6.39023e-06 32.0747V6.44266Z" fill="#E8F3FC"/>
<path d="M6.39023e-06 6.18406C6.39023e-06 2.7687 2.83237 0 6.32628 0H33.6738C37.1677 0 40 2.7687 40 6.18406V12.0488H6.39023e-06V6.18406Z" fill="#253A81"/>
<path d="M6.39023e-06 6.18406C6.39023e-06 2.7687 2.83237 0 6.32628 0H31.7775C35.2714 0 38.1037 2.7687 38.1037 6.18406V12.0488H6.39023e-06V6.18406Z" fill="#354E96"/>
<path d="M9.03664 6.24091C9.03664 7.5206 7.97539 8.558 6.66627 8.558C5.35715 8.558 4.2959 7.5206 4.2959 6.24091C4.2959 4.96122 5.35715 3.92383 6.66627 3.92383C7.97539 3.92383 9.03664 4.96122 9.03664 6.24091Z" fill="#D92D20"/>
<path d="M8.56257 6.0092C8.56257 7.16092 7.60744 8.09458 6.42923 8.09458C5.25102 8.09458 4.2959 7.16092 4.2959 6.0092C4.2959 4.85748 5.25102 3.92383 6.42923 3.92383C7.60744 3.92383 8.56257 4.85748 8.56257 6.0092Z" fill="#F04438"/>
<path d="M15.2012 6.24091C15.2012 7.5206 14.1399 8.558 12.8308 8.558C11.5217 8.558 10.4604 7.5206 10.4604 6.24091C10.4604 4.96122 11.5217 3.92383 12.8308 3.92383C14.1399 3.92383 15.2012 4.96122 15.2012 6.24091Z" fill="#EAAA08"/>
<path d="M14.7271 6.0092C14.7271 7.16092 13.772 8.09458 12.5938 8.09458C11.4156 8.09458 10.4604 7.16092 10.4604 6.0092C10.4604 4.85748 11.4156 3.92383 12.5938 3.92383C13.772 3.92383 14.7271 4.85748 14.7271 6.0092Z" fill="#FAC515"/>
<path d="M21.3662 6.24091C21.3662 7.5206 20.305 8.558 18.9959 8.558C17.6867 8.558 16.6255 7.5206 16.6255 6.24091C16.6255 4.96122 17.6867 3.92383 18.9959 3.92383C20.305 3.92383 21.3662 4.96122 21.3662 6.24091Z" fill="#099250"/>
<path d="M20.8922 6.0092C20.8922 7.16092 19.937 8.09458 18.7588 8.09458C17.5806 8.09458 16.6255 7.16092 16.6255 6.0092C16.6255 4.85748 17.5806 3.92383 18.7588 3.92383C19.937 3.92383 20.8922 4.85748 20.8922 6.0092Z" fill="#16B364"/>
<path d="M5.25876 18.3994C5.74895 17.9202 6.54352 17.9202 7.03371 18.3994L13.3098 24.5344C13.8 25.0136 13.8 25.7903 13.3098 26.2694L7.03371 32.4044C6.54352 32.8836 5.74895 32.8836 5.25876 32.4044C4.76857 31.9252 4.76857 31.1485 5.25876 30.6694L10.6473 25.4019L5.25876 20.1345C4.76857 19.6553 4.76857 18.8786 5.25876 18.3994Z" fill="#535862"/>
<path d="M31.2539 30.3086C31.9472 30.3086 32.5091 30.8579 32.5091 31.5356C32.5091 32.2132 31.9472 32.7626 31.2539 32.7626H17.0282C16.3349 32.7626 15.7729 32.2132 15.7729 31.5356C15.7729 30.8579 16.3349 30.3086 17.0282 30.3086H31.2539Z" fill="#535862"/>
</svg>
