<svg width="20" height="20" viewBox="0 0 20 20" fill="none" xmlns="http://www.w3.org/2000/svg">
<path d="M13.5 17.5C14.9001 17.5 15.6002 17.5 16.135 17.2275C16.6054 16.9878 16.9878 16.6054 17.2275 16.135C17.5 15.6002 17.5 14.9001 17.5 13.5V6.5C17.5 5.09987 17.5 4.3998 17.2275 3.86502C16.9878 3.39462 16.6054 3.01217 16.135 2.77248C15.6002 2.5 14.9001 2.5 13.5 2.5L6.5 2.5C5.09987 2.5 4.3998 2.5 3.86502 2.77248C3.39462 3.01217 3.01217 3.39462 2.77248 3.86502C2.5 4.3998 2.5 5.09987 2.5 6.5L2.5 13.5C2.5 14.9001 2.5 15.6002 2.77248 16.135C3.01217 16.6054 3.39462 16.9878 3.86502 17.2275C4.3998 17.5 5.09987 17.5 6.5 17.5H13.5Z" stroke="#222244" stroke-width="1.5" stroke-linecap="round" stroke-linejoin="round"/>
<path d="M11.443 10.9956C11.3842 10.8192 11.3548 10.731 11.3563 10.6589C11.3579 10.583 11.3681 10.5433 11.403 10.4759C11.4362 10.4118 11.525 10.3292 11.7027 10.1639C12.1932 9.70746 12.5 9.05623 12.5 8.33333C12.5 6.95262 11.3807 5.83333 10 5.83333C8.61929 5.83333 7.5 6.95262 7.5 8.33333C7.5 9.05623 7.80682 9.70746 8.29734 10.1639C8.47496 10.3292 8.56378 10.4118 8.59699 10.4759C8.63193 10.5432 8.64208 10.583 8.64368 10.6589C8.64521 10.731 8.61582 10.8192 8.55703 10.9956L7.79249 13.2892C7.69374 13.5854 7.64437 13.7336 7.67397 13.8515C7.69989 13.9547 7.76431 14.0441 7.85403 14.1013C7.95653 14.1667 8.11267 14.1667 8.42495 14.1667H11.575C11.8873 14.1667 12.0435 14.1667 12.146 14.1013C12.2357 14.0441 12.3001 13.9547 12.326 13.8515C12.3556 13.7336 12.3063 13.5854 12.2075 13.2892L11.443 10.9956Z" stroke="#222244" stroke-width="1.5" stroke-linecap="round" stroke-linejoin="round"/>
</svg>
