<svg width="40" height="40" viewBox="0 0 40 40" fill="none" xmlns="http://www.w3.org/2000/svg">
<path d="M0 6.77191C0 3.1126 3.03468 0.146139 6.77815 0.146139H33.2219C36.9653 0.146139 40 3.1126 40 6.77191V33.3742C40 37.0335 36.9653 40 33.2219 40H6.77814C3.03467 40 0 37.0335 0 33.3742V6.77191Z" fill="#C3E2FC"/>
<path d="M6.39022e-06 6.44266C6.39022e-06 3.0273 2.83237 0.258599 6.32628 0.258599H31.7774C35.2713 0.258599 38.1037 3.02729 38.1037 6.44265V32.0747C38.1037 35.4901 35.2713 38.2588 31.7774 38.2588H6.32628C2.83238 38.2588 6.39022e-06 35.4901 6.39022e-06 32.0747V6.44266Z" fill="#E8F3FC"/>
<path d="M6.39022e-06 6.18406C6.39022e-06 2.7687 2.83237 0 6.32628 0H33.6737C37.1676 0 40 2.7687 40 6.18406V12.0488H6.39022e-06V6.18406Z" fill="#C3E2FC"/>
<path d="M6.39022e-06 6.18406C6.39022e-06 2.7687 2.83237 0 6.32628 0H31.7774C35.2713 0 38.1037 2.7687 38.1037 6.18406V12.0488H6.39022e-06V6.18406Z" fill="#E8F3FC"/>
<path fill-rule="evenodd" clip-rule="evenodd" d="M28.651 22.4537C29.1975 22.3086 29.7141 22.0941 30.1901 21.8144C30.3052 21.748 30.4351 21.7444 30.555 21.8044L31.4512 22.261C31.5993 22.3374 31.7726 22.3109 31.8907 22.1928L32.8022 21.2814C32.9203 21.1632 32.9473 20.9899 32.8704 20.8418L32.4137 19.9439C32.3538 19.8257 32.3573 19.6959 32.4237 19.5807C32.7017 19.1041 32.9203 18.5881 33.0637 18.0416C33.0972 17.9118 33.1871 17.8183 33.3134 17.7766L34.2696 17.4651C34.4276 17.4134 34.5311 17.2718 34.5311 17.1055V15.818C34.5311 15.6516 34.4276 15.5083 34.2696 15.4565L33.3134 15.1469C33.1871 15.1051 33.0966 15.0105 33.0637 14.8818C32.9185 14.3353 32.7023 13.8193 32.4237 13.3428C32.3573 13.2276 32.3538 13.0959 32.4137 12.9778L32.8704 12.0817C32.9467 11.9318 32.9203 11.7584 32.8022 11.6403L31.8907 10.7306C31.7726 10.6125 31.5993 10.5855 31.4512 10.6607L30.5532 11.1173C30.4351 11.179 30.3052 11.1737 30.1901 11.1073C29.7135 10.8294 29.1975 10.6125 28.651 10.4691C28.5211 10.4356 28.4277 10.3457 28.386 10.2194L28.0745 9.26327C28.0228 9.10343 27.8812 9 27.7149 9H26.4273C26.261 9 26.1176 9.10343 26.0659 9.26327L25.7562 10.2182C25.7145 10.3446 25.6199 10.435 25.4912 10.468C24.9447 10.6113 24.4281 10.8276 23.9521 11.1061C23.837 11.1743 23.7053 11.1778 23.5872 11.1161L22.691 10.6595C22.5412 10.5843 22.3678 10.6113 22.2497 10.7295L21.34 11.6391C21.2219 11.7573 21.1949 11.9306 21.2701 12.0805L21.7267 12.9766C21.7884 13.0948 21.7849 13.2264 21.7167 13.3416C21.4387 13.8182 21.2219 14.3341 21.0785 14.8806C21.045 15.0088 20.9551 15.104 20.8288 15.1457L19.8726 15.4554C19.7128 15.5071 19.6094 15.6505 19.6094 15.8168V17.1043C19.6094 17.2706 19.7128 17.4123 19.8726 17.464L20.8288 17.7754C20.9551 17.8171 21.0456 17.9106 21.0785 18.0405C21.2219 18.587 21.4382 19.1029 21.7167 19.5795C21.7849 19.6947 21.7884 19.8246 21.7267 19.9427L21.2701 20.8406C21.1949 20.9887 21.2219 21.1621 21.34 21.2802L22.2497 22.1922C22.3678 22.3103 22.5412 22.3374 22.691 22.2604L23.5872 21.8038C23.7053 21.7438 23.8352 21.7474 23.9504 21.8138C24.4287 22.0935 24.9447 22.3086 25.4912 22.4531C25.6193 22.4866 25.7145 22.5765 25.7562 22.7029L26.0659 23.659C26.1176 23.8171 26.261 23.9205 26.4273 23.9205H27.7149C27.8812 23.9205 28.0228 23.8171 28.0745 23.659L28.386 22.7029C28.4283 22.5771 28.5211 22.4866 28.651 22.4537Z" fill="#5CBDF8"/>
<path fill-rule="evenodd" clip-rule="evenodd" d="M27.0708 20.1668C29.1129 20.1668 30.7771 18.5025 30.7771 16.4604C30.7771 14.4201 29.1129 12.7559 27.0708 12.7559C25.0304 12.7559 23.3662 14.4201 23.3662 16.4604C23.3662 18.5025 25.0304 20.1668 27.0708 20.1668Z" fill="#E8F3FC"/>
<path d="M20.161 16.264V12.8556C20.161 11.7214 19.6944 10.6883 18.9469 9.93904C18.197 9.19096 17.1645 8.72495 16.0304 8.72495C14.8962 8.72495 13.8631 9.19155 13.1138 9.93904C12.3658 10.6889 11.8998 11.7214 11.8998 12.8556V16.4884H9.8418V12.8556C9.8418 11.1531 10.5382 9.60585 11.6594 8.4846C12.7806 7.36336 14.3279 6.66699 16.0304 6.66699C17.7328 6.66699 19.2801 7.36336 20.4013 8.4846C21.5243 9.60585 22.2189 11.1531 22.2189 12.8556V16.264C22.2189 16.502 22.0256 16.6953 21.7894 16.6953H20.5917C20.3543 16.6953 20.161 16.5025 20.161 16.264Z" fill="#535862"/>
<path fill-rule="evenodd" clip-rule="evenodd" d="M9.41671 15.3545H22.643C23.3993 15.3545 24.0187 15.9739 24.0187 16.732V27.5095C24.0187 28.2658 23.3993 28.8852 22.643 28.8852H9.41671C8.6604 28.8852 8.04102 28.2658 8.04102 27.5095V16.732C8.04043 15.9745 8.6604 15.3545 9.41671 15.3545Z" fill="#FFCE77"/>
<path fill-rule="evenodd" clip-rule="evenodd" d="M16.03 21.057C16.6382 21.057 17.1342 20.5605 17.1342 19.9528C17.1342 19.3452 16.6376 18.8486 16.03 18.8486C15.4223 18.8486 14.9258 19.3452 14.9258 19.9528C14.9258 20.5605 15.4223 21.057 16.03 21.057Z" fill="white"/>
<path d="M15.5459 19.9555C15.5459 19.6875 15.7627 19.4707 16.0307 19.4707C16.2987 19.4707 16.5155 19.6875 16.5155 19.9555V22.6176C16.5155 22.8856 16.2987 23.1042 16.0307 23.1042C15.7627 23.1042 15.5459 22.8861 15.5459 22.6176V19.9555Z" fill="white"/>
<path fill-rule="evenodd" clip-rule="evenodd" d="M5.17244 25.5547H26.8874C27.287 25.5547 27.6155 25.8826 27.6155 26.2828V31.4917C27.6155 31.8913 27.2876 32.2198 26.8874 32.2198H5.17244C4.77283 32.2198 4.44434 31.8919 4.44434 31.4917V26.2822C4.44434 25.8826 4.77283 25.5547 5.17244 25.5547Z" fill="white"/>
<path d="M8.40543 27.4368C8.40543 27.1688 8.62227 26.9502 8.89024 26.9502C9.15821 26.9502 9.37505 27.1682 9.37505 27.4368V28.0832L10.0279 27.7365C10.263 27.6113 10.5562 27.7 10.6808 27.9345C10.8072 28.1713 10.7173 28.464 10.4828 28.5892L9.91805 28.8889L10.4828 29.1903C10.7178 29.3155 10.8078 29.6082 10.6808 29.8432C10.5556 30.08 10.263 30.1682 10.0279 30.043L9.37505 29.6951V30.3433C9.37505 30.6113 9.15821 30.8281 8.89024 30.8281C8.62227 30.8281 8.40543 30.6113 8.40543 30.3433V29.6951L7.75254 30.043C7.51748 30.1682 7.22424 30.0794 7.09966 29.8432C6.97332 29.6082 7.06323 29.3149 7.2977 29.1903L7.86243 28.8889L7.2977 28.5892C7.06264 28.464 6.97273 28.1713 7.09966 27.9345C7.22483 27.6995 7.51748 27.6113 7.75254 27.7365L8.40543 28.0832V27.4368ZM21.5771 28.5897C21.342 28.4646 21.2521 28.1719 21.379 27.9351C21.5042 27.7 21.7969 27.6119 22.0319 27.7371L22.6848 28.0838V27.4374C22.6848 27.1694 22.9017 26.9508 23.1696 26.9508C23.4376 26.9508 23.6544 27.1688 23.6544 27.4374V28.0838L24.3073 27.7371C24.5424 27.6119 24.8356 27.7006 24.9602 27.9351C25.0865 28.1719 24.9966 28.4646 24.7622 28.5897L24.1974 28.8895L24.7622 29.1909C24.9972 29.3161 25.0871 29.6087 24.9602 29.8438C24.835 30.0806 24.5424 30.1688 24.3073 30.0436L23.6544 29.6957V30.3439C23.6544 30.6119 23.4376 30.8287 23.1696 30.8287C22.9017 30.8287 22.6848 30.6119 22.6848 30.3439V29.6957L22.0319 30.0436C21.7969 30.1688 21.5036 30.08 21.379 29.8438C21.2527 29.6087 21.3426 29.3155 21.5771 29.1909L22.1418 28.8895L21.5771 28.5897ZM16.8177 28.5897C16.5826 28.4646 16.4927 28.1719 16.6196 27.9351C16.7448 27.7 17.0375 27.6119 17.2725 27.7371L17.9236 28.0838V27.4374C17.9236 27.1694 18.1417 26.9508 18.4102 26.9508C18.6788 26.9508 18.895 27.1688 18.895 27.4374V28.0838L19.5462 27.7371C19.783 27.6119 20.0745 27.7006 20.2008 27.9351C20.326 28.1719 20.2372 28.4646 20.001 28.5897L19.438 28.8895L20.001 29.1909C20.2378 29.3161 20.326 29.6087 20.2008 29.8438C20.0745 30.0806 19.783 30.1688 19.5462 30.0436L18.895 29.6957V30.3439C18.895 30.6119 18.6782 30.8287 18.4102 30.8287C18.1422 30.8287 17.9236 30.6119 17.9236 30.3439V29.6957L17.2725 30.0436C17.0375 30.1688 16.7442 30.08 16.6179 29.8438C16.4927 29.6087 16.5826 29.3155 16.8177 29.1909L17.3807 28.8895L16.8177 28.5897ZM12.0583 28.5897C11.8215 28.4646 11.7333 28.1719 11.8585 27.9351C11.9848 27.7 12.2763 27.6119 12.5131 27.7371L13.1642 28.0838V27.4374C13.1642 27.1694 13.3811 26.9508 13.6491 26.9508C13.917 26.9508 14.1356 27.1688 14.1356 27.4374V28.0838L14.7868 27.7371C15.0218 27.6119 15.3151 27.7006 15.4414 27.9351C15.5666 28.1719 15.4767 28.4646 15.2416 28.5897L14.6786 28.8895L15.2416 29.1909C15.4767 29.3161 15.5666 29.6087 15.4414 29.8438C15.3151 30.0806 15.0218 30.1688 14.7868 30.0436L14.1356 29.6957V30.3439C14.1356 30.6119 13.9176 30.8287 13.6491 30.8287C13.3811 30.8287 13.1642 30.6119 13.1642 30.3439V29.6957L12.5131 30.0436C12.2763 30.1688 11.9848 30.08 11.8585 29.8438C11.7333 29.6087 11.822 29.3155 12.0583 29.1909L12.6212 28.8895L12.0583 28.5897Z" fill="#F27D76"/>
<path fill-rule="evenodd" clip-rule="evenodd" d="M26.8704 31.4927V26.2838C26.8704 25.8842 26.5425 25.5557 26.1423 25.5557H27.0502C27.4498 25.5563 27.7783 25.8842 27.7783 26.2838V31.4927C27.7783 31.8923 27.4504 32.2208 27.0502 32.2208H26.1423C26.5419 32.2208 26.8704 31.8929 26.8704 31.4927Z" fill="#D4DDE3"/>
<path fill-rule="evenodd" clip-rule="evenodd" d="M24.0615 16.731V25.5528H23.1536V16.731C23.1536 16.1427 22.7822 15.6397 22.261 15.4417C22.1111 15.3852 21.9477 15.3535 21.7779 15.3535H22.261H22.6858C23.4415 15.3535 24.0615 15.9735 24.0615 16.731Z" fill="#F8B755"/>
<path fill-rule="evenodd" clip-rule="evenodd" d="M29.9106 16.4604C29.9106 14.5717 28.4961 13.0121 26.6673 12.7841C26.8207 12.7659 26.9741 12.7559 27.1321 12.7559C28.891 12.7559 30.3654 13.9835 30.7438 15.6295C30.9159 16.3777 30.7438 17.222 30.7438 17.222C30.7438 17.222 30.6321 17.9133 30.1844 18.563C29.5162 19.5327 28.3985 20.1673 27.1327 20.1673C26.9746 20.1673 26.8213 20.1573 26.6679 20.1391C28.4961 19.9099 29.9106 18.3509 29.9106 16.4604Z" fill="#52AFE7"/>
</svg>
