<svg width="40" height="40" viewBox="0 0 40 40" fill="none" xmlns="http://www.w3.org/2000/svg">
<path d="M0 6.77191C0 3.1126 3.03468 0.146139 6.77815 0.146139H33.2219C36.9654 0.146139 40 3.1126 40 6.77191V33.3742C40 37.0335 36.9654 40 33.2219 40H6.77815C3.03468 40 0 37.0335 0 33.3742V6.77191Z" fill="#C3E2FC"/>
<path d="M6.39023e-06 6.44266C6.39023e-06 3.0273 2.83238 0.258599 6.32628 0.258599H31.7775C35.2714 0.258599 38.1038 3.02729 38.1038 6.44265V32.0747C38.1038 35.4901 35.2714 38.2588 31.7775 38.2588H6.32629C2.83238 38.2588 6.39023e-06 35.4901 6.39023e-06 32.0747V6.44266Z" fill="#E8F3FC"/>
<path d="M6.39023e-06 6.18406C6.39023e-06 2.7687 2.83238 0 6.32628 0H33.6738C37.1677 0 40.0001 2.7687 40.0001 6.18406V12.0488H6.39023e-06V6.18406Z" fill="#C3E2FC"/>
<path d="M6.39023e-06 6.18406C6.39023e-06 2.7687 2.83238 0 6.32628 0H31.7775C35.2714 0 38.1038 2.7687 38.1038 6.18406V12.0488H6.39023e-06V6.18406Z" fill="#E8F3FC"/>
<path d="M28.3418 28.2548C27.8525 28.2548 27.4559 27.8582 27.4559 27.3689V12.1019H11.2748V27.369C11.2748 27.8582 10.8781 28.2549 10.3888 28.2549C9.89957 28.2549 9.50293 27.8582 9.50293 27.369V11.216C9.50293 10.7267 9.89957 10.3301 10.3888 10.3301H28.3417C28.831 10.3301 29.2276 10.7267 29.2276 11.216V27.369C29.2276 27.8582 28.831 28.2548 28.3418 28.2548Z" fill="#535862"/>
<path d="M14.5848 21.6992H6.19376C5.37965 21.6992 4.71973 22.3591 4.71973 23.1732V31.5642C4.71973 32.3783 5.37965 33.0382 6.19376 33.0382H14.5848C15.3989 33.0382 16.0589 32.3783 16.0589 31.5642V23.1732C16.0589 22.3591 15.3989 21.6992 14.5848 21.6992Z" fill="#FFD892"/>
<path d="M15.0269 21.7666C15.6246 21.9545 16.059 22.5121 16.0591 23.1719V31.5635C16.0589 32.3774 15.3985 33.0371 14.5845 33.0371H6.19385C5.39097 33.0371 4.73905 32.3953 4.72119 31.5967C4.86086 31.6406 5.00941 31.664 5.16357 31.6641H13.5552C14.3692 31.6639 15.0288 31.0044 15.0288 30.1904V21.7998C15.0288 21.7888 15.0271 21.7776 15.0269 21.7666Z" fill="#FEC46D"/>
<path d="M27.5442 5.87633L23.0028 10.4177C22.5622 10.8584 22.5622 11.5726 23.0028 12.0132L27.5442 16.5546C27.9848 16.9952 28.6991 16.9952 29.1397 16.5546L33.681 12.0132C34.1217 11.5726 34.1217 10.8583 33.681 10.4177L29.1397 5.87633C28.6992 5.43575 27.9848 5.43575 27.5442 5.87633Z" fill="#FF8F88"/>
<path d="M27.7632 5.70605C28.1965 5.44616 28.7666 5.50265 29.1401 5.87598L33.6821 10.418C34.1223 10.8584 34.1222 11.5721 33.6821 12.0127L29.1401 16.5547C28.6995 16.9951 27.985 16.9952 27.5444 16.5547L27.3296 16.3398C27.4077 16.2931 27.482 16.2372 27.5493 16.1699L32.0913 11.6289C32.5318 11.1883 32.5319 10.4737 32.0913 10.0332L27.7632 5.70605Z" fill="#F27D76"/>
<path d="M10.3893 16.8854C7.25799 16.8854 4.71955 14.347 4.71955 11.2157C4.71955 8.08434 7.25799 5.5459 10.3893 5.5459C13.5206 5.5459 16.0591 8.08434 16.0591 11.2157C16.0591 14.347 13.5206 16.8854 10.3893 16.8854Z" fill="#48D7C4"/>
<path d="M9.21077 15.7058C12.342 15.7058 14.8803 13.1675 14.8803 10.0363C14.8803 8.77135 14.4659 7.60328 13.7657 6.66016C15.1572 7.69327 16.0591 9.34872 16.0591 11.215C16.0591 14.3461 13.5208 16.8845 10.3895 16.8845C8.52327 16.8845 6.86781 15.9827 5.8347 14.5912C6.77776 15.2914 7.94584 15.7058 9.21077 15.7058Z" fill="#1BBEA7"/>
<path d="M28.342 33.0387C25.2106 33.0387 22.6722 30.5003 22.6722 27.369C22.6722 24.2377 25.2106 21.6992 28.342 21.6992C31.4733 21.6992 34.0117 24.2377 34.0117 27.369C34.0117 30.5003 31.4733 33.0387 28.342 33.0387Z" fill="#5CBDF8"/>
<path d="M27.1625 31.8591C30.2936 31.8591 32.832 29.3208 32.832 26.1896C32.832 24.9247 32.4176 23.7566 31.7174 22.8135C33.1089 23.8466 34.0107 25.5021 34.0107 27.3683C34.0107 30.4995 31.4724 33.0379 28.3412 33.0379C26.4749 33.0379 24.8195 32.136 23.7864 30.7445C24.7295 31.4448 25.8976 31.8591 27.1625 31.8591Z" fill="#52AFE7"/>
</svg>
