<svg viewBox="0 0 45 45" fill="none" xmlns="http://www.w3.org/2000/svg">
<rect width="45" height="45" rx="6" fill="#F4F3FF"/>
<path d="M32.1543 19.8895C31.4646 17.3334 29.7884 15.1557 27.494 13.8348C25.1996 12.5139 22.4747 12.1578 19.9179 12.8449C19.7207 12.8999 19.5235 12.9641 19.3309 13.0283L18.8401 11.8221C18.8002 11.7245 18.7339 11.6399 18.6486 11.5778C18.5634 11.5157 18.4625 11.4785 18.3574 11.4704C18.2522 11.4623 18.1469 11.4837 18.0531 11.532C17.9594 11.5803 17.8809 11.6538 17.8265 11.7441L15.8773 14.9913C15.8344 15.0666 15.8093 15.1508 15.8038 15.2373C15.7984 15.3238 15.8129 15.4105 15.8461 15.4906C15.8792 15.5707 15.9303 15.6421 15.9954 15.6995C16.0604 15.7568 16.1377 15.7985 16.2213 15.8214L19.8904 16.7891C19.9927 16.815 20.1001 16.8122 20.2009 16.781C20.3016 16.7498 20.3918 16.6914 20.4615 16.6122C20.5313 16.533 20.5778 16.4361 20.5959 16.3322C20.6141 16.2283 20.6033 16.1213 20.5646 16.0232L20.0326 14.7253L20.4041 14.606C21.8823 14.2087 23.4425 14.2359 24.906 14.6846C26.3694 15.1333 27.6768 15.9852 28.6783 17.1428C29.6798 18.3003 30.3349 19.7167 30.5684 21.2294C30.8019 22.7422 30.6045 24.2901 29.9987 25.6958C29.9009 25.9167 29.8942 26.1674 29.98 26.3932C30.0659 26.6191 30.2374 26.8019 30.4573 26.902C30.5716 26.9524 30.6948 26.9789 30.8197 26.98C30.9997 26.9798 31.1757 26.9267 31.3258 26.8272C31.4759 26.7277 31.5933 26.5862 31.6636 26.4205C32.5636 24.3622 32.7366 22.0591 32.1543 19.8895Z" fill="#6221E6"/>
<path d="M28.7916 29.1539L25.1225 28.1908C25.0197 28.162 24.9109 28.1626 24.8084 28.1928C24.706 28.2229 24.6141 28.2812 24.5432 28.3612C24.4724 28.4411 24.4255 28.5393 24.4079 28.6446C24.3903 28.75 24.4027 28.8581 24.4438 28.9567L24.9528 30.2042C24.8336 30.2409 24.7143 30.2822 24.5951 30.3143C23.1196 30.7062 21.5637 30.6759 20.1047 30.2266C18.6456 29.7774 17.342 28.9274 16.3425 27.7735C15.343 26.6196 14.6876 25.2081 14.4512 23.6999C14.2147 22.1916 14.4066 20.6473 15.005 19.2428C15.1005 19.019 15.1032 18.7664 15.0125 18.5407C14.9217 18.3149 14.745 18.1344 14.5212 18.0389C14.2974 17.9434 14.0448 17.9408 13.819 18.0315C13.5932 18.1223 13.4128 18.299 13.3173 18.5228C12.5762 20.2455 12.3361 22.1424 12.6244 23.9955C12.9127 25.8485 13.7178 27.5827 14.9472 28.9989C16.1766 30.4151 17.7805 31.4559 19.5747 32.0017C21.3689 32.5475 23.2806 32.5762 25.0904 32.0846C25.2831 32.0342 25.4711 31.97 25.6637 31.9103L26.1728 33.1624C26.2107 33.2629 26.2762 33.3506 26.3618 33.4154C26.4475 33.4802 26.5497 33.5194 26.6567 33.5285C26.7637 33.5376 26.8711 33.5163 26.9664 33.4669C27.0618 33.4175 27.1412 33.3422 27.1956 33.2495L29.1448 30.007C29.1912 29.9301 29.219 29.8434 29.2258 29.7538C29.2325 29.6642 29.2182 29.5742 29.1838 29.4912C29.1494 29.4082 29.096 29.3344 29.0279 29.2758C28.9598 29.2172 28.8788 29.1755 28.7916 29.1539Z" fill="#6221E6"/>
</svg>
