<svg viewBox="0 0 45 45" fill="none" xmlns="http://www.w3.org/2000/svg">
<rect x="0.5" y="0.5" width="44" height="44" rx="5.5" fill="white" stroke="#E9E9F3"/>
<path d="M13.5046 29.7971C12.831 28.6995 12.3346 27.531 12.051 26.2563C11.9801 25.9731 12.1573 25.6544 12.4764 25.5836C13.3628 25.3711 14.0365 24.6984 14.0365 23.9194C14.0365 23.1405 13.3983 22.4323 12.441 22.1845C12.1219 22.1136 11.9446 21.8304 12.0155 21.5117C12.2992 20.237 12.7955 19.0686 13.4692 17.971C13.6465 17.7231 13.9656 17.6523 14.2492 17.7939C15.2065 18.3604 16.3765 18.2188 16.9084 17.4752C17.2984 16.8733 17.2275 16.0589 16.7311 15.3508C16.6247 15.2092 16.5893 15.0321 16.6247 14.8905C16.6602 14.7135 16.7311 14.5718 16.8729 14.501C18.0075 13.7929 19.213 13.2972 20.4894 13.0139C20.6312 12.9785 20.773 13.0139 20.9148 13.0847C21.0567 13.1555 21.1276 13.2972 21.163 13.4388C21.3758 14.3948 22.0494 15.1029 22.8649 15.1029C23.6804 15.1029 24.3895 14.4302 24.6022 13.4388C24.6377 13.2972 24.7086 13.1555 24.8504 13.0847C24.9568 13.0139 25.134 12.9785 25.2759 13.0139C26.5877 13.2972 27.7932 13.8283 28.8923 14.5364C29.0341 14.6426 29.105 14.7843 29.1405 14.9259C29.176 15.0675 29.1405 15.2092 29.0341 15.3508C28.5732 16.0235 28.5023 16.8379 28.8923 17.4044C29.4241 18.148 30.5233 18.2896 31.516 17.7585C31.7997 17.6169 32.1188 17.7231 32.296 17.971C32.9697 19.0686 33.4306 20.237 33.7143 21.4763C33.7497 21.7596 33.5724 22.0782 33.2888 22.1491C32.4024 22.3969 31.7997 23.0697 31.7997 23.8132C31.7997 24.5568 32.4024 25.2649 33.2888 25.5128C33.5724 25.5836 33.7497 25.9023 33.7143 26.2209C33.4306 27.4602 32.9342 28.6641 32.2606 29.7617" stroke="#6221E6" stroke-width="1.8" stroke-linecap="round"/>
<path d="M22.8592 21.1445V32.5182" stroke="#6221E6" stroke-width="1.8" stroke-linecap="round" stroke-linejoin="round"/>
<path d="M18.4316 25.5923L22.8599 21.1436L27.2881 25.5923" stroke="#6221E6" stroke-width="1.8" stroke-linecap="round" stroke-linejoin="round"/>
</svg>
