<svg viewBox="0 0 45 45" fill="none" xmlns="http://www.w3.org/2000/svg">
<rect width="45" height="45" rx="6" fill="#F4F3FF"/>
<path d="M22.4912 20.2783L24.5312 17.3076H28.5469V27.333H24.5312L22.4912 24.585L20.4521 27.333H16.4355V17.3076H20.4521L22.4912 20.2783Z" fill="#ECF3FF"/>
<path d="M26.7473 27.4918H18.3066" stroke="#6221E6" stroke-width="1.5" stroke-linecap="round" stroke-linejoin="round"/>
<path d="M26.7473 22.5972H18.3066" stroke="#6221E6" stroke-width="1.5" stroke-linecap="round" stroke-linejoin="round"/>
<path d="M21.5274 17.7144H18.3066" stroke="#6221E6" stroke-width="1.5" stroke-linecap="round" stroke-linejoin="round"/>
<path fill-rule="evenodd" clip-rule="evenodd" d="M26.9713 11.7402C26.9713 11.7402 17.9964 11.7449 17.9824 11.7449C14.7557 11.7648 12.7578 13.8878 12.7578 17.1261V27.8768C12.7578 31.1315 14.7709 33.2627 18.0256 33.2627C18.0256 33.2627 26.9993 33.2592 27.0145 33.2592C30.2411 33.2393 32.2402 31.1151 32.2402 27.8768V17.1261C32.2402 13.8714 30.2259 11.7402 26.9713 11.7402Z" stroke="#6221E6" stroke-width="1.5" stroke-linecap="round" stroke-linejoin="round"/>
</svg>
