<svg width="20" height="20" viewBox="0 0 20 20" fill="none" xmlns="http://www.w3.org/2000/svg">
<path d="M1.66663 5.99967C1.66663 5.06625 1.66663 4.59954 1.84828 4.24302C2.00807 3.92942 2.26304 3.67445 2.57664 3.51466C2.93316 3.33301 3.39987 3.33301 4.33329 3.33301H4.66663C6.53347 3.33301 7.46689 3.33301 8.17993 3.69632C8.80713 4.0159 9.31707 4.52583 9.63665 5.15304C9.99996 5.86608 9.99996 6.7995 9.99996 8.66634V16.6663H4.33329C3.39987 16.6663 2.93316 16.6663 2.57664 16.4847C2.26304 16.3249 2.00807 16.0699 1.84828 15.7563C1.66663 15.3998 1.66663 14.9331 1.66663 13.9997V5.99967Z" fill="#73E2A3"/>
<path d="M18.3333 5.99967C18.3333 5.06625 18.3333 4.59954 18.1516 4.24302C17.9918 3.92942 17.7369 3.67445 17.4233 3.51466C17.0668 3.33301 16.6 3.33301 15.6666 3.33301H15.3333C13.4665 3.33301 12.533 3.33301 11.82 3.69632C11.1928 4.0159 10.6828 4.52583 10.3633 5.15304C9.99996 5.86608 9.99996 6.7995 9.99996 8.66634V16.6663H15.6666C16.6 16.6663 17.0668 16.6663 17.4233 16.4847C17.7369 16.3249 17.9918 16.0699 18.1516 15.7563C18.3333 15.3998 18.3333 14.9331 18.3333 13.9997V5.99967Z" fill="#73E2A3"/>
<path d="M9.99996 16.6663H4.33329C3.39987 16.6663 2.93316 16.6663 2.57664 16.4847C2.26304 16.3249 2.00807 16.0699 1.84828 15.7563C1.66663 15.3998 1.66663 14.9331 1.66663 13.9997V5.99967C1.66663 5.06625 1.66663 4.59954 1.84828 4.24302C2.00807 3.92942 2.26304 3.67445 2.57664 3.51466C2.93316 3.33301 3.39987 3.33301 4.33329 3.33301H4.66663C6.53347 3.33301 7.46689 3.33301 8.17993 3.69632C8.80713 4.0159 9.31707 4.52583 9.63665 5.15304C9.99996 5.86608 9.99996 6.7995 9.99996 8.66634M9.99996 16.6663V8.66634M9.99996 16.6663H15.6666C16.6 16.6663 17.0668 16.6663 17.4233 16.4847C17.7369 16.3249 17.9918 16.0699 18.1516 15.7563C18.3333 15.3998 18.3333 14.9331 18.3333 13.9997V5.99967C18.3333 5.06625 18.3333 4.59954 18.1516 4.24302C17.9918 3.92942 17.7369 3.67445 17.4233 3.51466C17.0668 3.33301 16.6 3.33301 15.6666 3.33301H15.3333C13.4665 3.33301 12.533 3.33301 11.82 3.69632C11.1928 4.0159 10.6828 4.52583 10.3633 5.15304C9.99996 5.86608 9.99996 6.7995 9.99996 8.66634" stroke="#16B364" stroke-width="1.5" stroke-linecap="round" stroke-linejoin="round"/>
</svg>
