<svg width="88" height="88" viewBox="0 0 88 88" fill="none" xmlns="http://www.w3.org/2000/svg">
<circle cx="44" cy="44" r="44" fill="#EFF8FF"/>
<path d="M33.5613 55.8761L29.9024 59.5317C29.4341 60.026 29.1993 60.6687 29.1993 61.312C29.1947 61.9696 29.4477 62.6318 29.9499 63.134L29.9948 63.1815C30.4878 63.6491 31.1299 63.8833 31.7725 63.8833C32.4353 63.8833 33.0969 63.6342 33.5951 63.1372L35.1055 61.6281C35.782 60.9861 36.6543 60.6642 37.5226 60.6642C38.4196 60.6642 39.3199 61.0076 40.0055 61.6912C40.6937 62.3807 41.0371 63.281 41.0371 64.1773C41.0371 65.0763 40.6937 65.9785 40.0094 66.6628L36.6757 69.9958C36.2458 70.4264 35.5485 70.4264 35.1185 69.9958C34.6886 69.5658 34.6886 68.8685 35.1185 68.4385L38.4522 65.1055C38.7058 64.8519 38.8333 64.5149 38.8333 64.1773C38.8333 63.8378 38.7065 63.5002 38.4541 63.2465C38.2004 62.9948 37.8622 62.8679 37.5226 62.8679C37.2013 62.8679 36.8806 62.9818 36.6328 63.2081L35.1517 64.6912C34.2163 65.622 32.9921 66.0871 31.7725 66.0871C30.5796 66.0871 29.382 65.6422 28.4603 64.7536L28.394 64.6925C27.4658 63.7643 27.0007 62.5375 27 61.312C26.9955 60.1178 27.4417 58.9202 28.3302 57.9972L32.0041 54.3188C31.0817 53.0595 30.6205 51.5648 30.6205 50.0726C30.6205 48.2298 31.3204 46.3851 32.7209 44.9846L37.0289 40.6759C37.4589 40.246 38.1562 40.246 38.5868 40.6759L39.623 41.7121L43.356 37.9778C43.786 37.5478 44.4833 37.5478 44.9133 37.9778C45.3432 38.4078 45.3432 39.1057 44.9133 39.5357L41.1802 43.2694L44.6134 46.7025L48.3438 42.9714C48.7712 42.5415 49.4672 42.5402 49.8978 42.9675C50.3277 43.3949 50.329 44.0909 49.9017 44.5209L46.1667 48.2558L47.2035 49.2927C47.6335 49.7233 47.6335 50.4206 47.2035 50.8506L42.8955 55.1592C41.495 56.5597 39.6503 57.2596 37.8075 57.2596C36.316 57.2596 34.8206 56.7984 33.5613 55.8761ZM50.7681 18.3239C51.1955 17.8933 51.8915 17.892 52.3214 18.32C52.7514 18.7474 52.7527 19.4434 52.3253 19.8733L50.2575 21.9418C49.7579 22.4453 49.5075 23.1062 49.5075 23.7677C49.5075 24.4312 49.7573 25.0927 50.2542 25.5916C50.7571 26.0905 51.4186 26.3403 52.0801 26.3403C52.7416 26.3403 53.4025 26.0905 53.9014 25.5916C54.2839 25.2352 54.6508 24.8416 55.0254 24.4741C55.7013 23.8327 56.5722 23.5114 57.4393 23.5114C58.3343 23.5114 59.2339 23.8542 59.9182 24.5372L59.9891 24.6094C60.6311 25.2859 60.9531 26.1569 60.9531 27.0259C60.9531 27.9242 60.611 28.8257 59.9267 29.51L55.927 33.5097C56.8487 34.769 57.3105 36.2638 57.3105 37.756C57.3105 39.5988 56.6106 41.4435 55.2102 42.8439L54.2358 43.8151C53.8084 44.2451 53.1124 44.2464 52.6805 43.819L44.0605 35.2016C43.6305 34.7717 43.6305 34.0744 44.0605 33.6444L45.0381 32.6713C46.436 31.2695 48.2807 30.569 50.1235 30.569C51.6157 30.569 53.1117 31.0295 54.3704 31.9519L58.3682 27.9535C58.6219 27.6998 58.7493 27.3628 58.7493 27.0259C58.7493 26.7052 58.6355 26.3845 58.4091 26.1367L58.3688 26.0983C58.1138 25.8414 57.7775 25.7152 57.4393 25.7152C57.1186 25.7152 56.7992 25.829 56.5521 26.0547C56.2002 26.4249 55.8112 26.7748 55.4593 27.1482C54.5291 28.0783 53.303 28.5447 52.0801 28.5447C50.8572 28.5447 49.6298 28.0783 48.7003 27.1488C47.7682 26.2122 47.3037 24.988 47.3037 23.7677C47.3037 22.5435 47.7688 21.3193 48.6983 20.3898L50.7681 18.3239ZM46.3944 34.421L53.4591 41.4851L53.6529 41.2867C54.6215 40.3182 55.1067 39.0374 55.1067 37.756C55.1067 36.4947 54.639 35.2348 53.7043 34.2747L53.6939 34.2656L53.6529 34.2266C52.685 33.2567 51.4049 32.7728 50.1235 32.7728C48.8421 32.7728 47.5626 33.2574 46.5941 34.2259L46.3944 34.421ZM44.8677 50.0719L38.8646 44.0681L38.8444 44.048L38.8242 44.0278L37.8075 43.0118L34.2781 46.5419C33.3096 47.5104 32.8243 48.7912 32.8243 50.0726C32.8243 51.3553 33.3076 52.6361 34.2742 53.602C35.2441 54.5725 36.5248 55.0558 37.8075 55.0558C39.089 55.0558 40.3697 54.5706 41.3383 53.602L44.8677 50.0719Z" fill="#1570EF"/>
</svg>
