<svg width="88" height="88" viewBox="0 0 88 88" fill="none" xmlns="http://www.w3.org/2000/svg">
<rect width="88" height="88" rx="44" fill="#F8F9FC"/>
<path d="M48 34H59.2808C60.1754 34 60.6227 34 60.8843 34.1881C61.1125 34.3522 61.2611 34.6048 61.2937 34.884C61.3311 35.204 61.1139 35.595 60.6794 36.377L57.9872 41.223C57.8297 41.5066 57.7509 41.6484 57.72 41.7985C57.6927 41.9315 57.6927 42.0685 57.72 42.2015C57.7509 42.3516 57.8297 42.4934 57.9872 42.777L60.6794 47.623C61.1139 48.405 61.3311 48.796 61.2937 49.116C61.2611 49.3952 61.1125 49.6478 60.8843 49.8119C60.6227 50 60.1754 50 59.2808 50H45.2C44.0799 50 43.5198 50 43.092 49.782C42.7157 49.5903 42.4097 49.2843 42.218 48.908C42 48.4802 42 47.9201 42 46.8V42M28 62L28 28M28 42H44.8C45.9201 42 46.4802 42 46.908 41.782C47.2843 41.5903 47.5903 41.2843 47.782 40.908C48 40.4802 48 39.9201 48 38.8V29.2C48 28.0799 48 27.5198 47.782 27.092C47.5903 26.7157 47.2843 26.4097 46.908 26.218C46.4802 26 45.9201 26 44.8 26H31.2C30.0799 26 29.5198 26 29.092 26.218C28.7157 26.4097 28.4097 26.7157 28.218 27.092C28 27.5198 28 28.0799 28 29.2V42Z" stroke="#4E5BA6" stroke-width="3" stroke-linecap="round" stroke-linejoin="round"/>
</svg>
