<svg width="88" height="88" viewBox="0 0 88 88" fill="none" xmlns="http://www.w3.org/2000/svg">
<rect width="88" height="88" rx="44" fill="#EDFCF2"/>
<circle cx="44" cy="44" r="18.5" stroke="#16B364" stroke-width="3"/>
<mask id="path-3-outside-1_234_17022" maskUnits="userSpaceOnUse" x="30.243" y="31.6744" width="26.9623" height="25.0922" fill="black">
<rect fill="white" x="30.243" y="31.6744" width="26.9623" height="25.0922"/>
<path fill-rule="evenodd" clip-rule="evenodd" d="M45.3041 46.1187L50.9226 38.0155L41.85 41.8778L45.3041 46.1187ZM45.3036 46.1195L36.231 49.9817L41.8495 41.8785L45.3036 46.1195Z"/>
</mask>
<path d="M50.9226 38.0155L53.388 39.7249C54.1495 38.6267 54.0927 37.1572 53.2487 36.121C52.4048 35.0848 50.9772 34.7318 49.7476 35.2552L50.9226 38.0155ZM45.3041 46.1187L42.978 48.0133C43.5734 48.7443 44.4779 49.1529 45.42 49.1165C46.3621 49.0801 47.2323 48.6029 47.7695 47.8281L45.3041 46.1187ZM41.85 41.8778L40.6749 39.1175C39.8074 39.4868 39.164 40.2424 38.9377 41.1576C38.7114 42.0729 38.9285 43.0413 39.5239 43.7723L41.85 41.8778ZM36.231 49.9817L33.7656 48.2723C33.0041 49.3706 33.0609 50.8401 33.9049 51.8763C34.7488 52.9125 36.1764 53.2655 37.406 52.742L36.231 49.9817ZM45.3036 46.1195L46.4787 48.8798C47.3462 48.5105 47.9896 47.7549 48.2159 46.8396C48.4422 45.9244 48.2251 44.956 47.6297 44.2249L45.3036 46.1195ZM41.8495 41.8785L44.1756 39.984C43.5802 39.2529 42.6757 38.8443 41.7336 38.8807C40.7915 38.9171 39.9213 39.3943 39.3841 40.1691L41.8495 41.8785ZM50.9226 38.0155L48.4573 36.3061L42.8388 44.4093L45.3041 46.1187L47.7695 47.8281L53.388 39.7249L50.9226 38.0155ZM41.85 41.8778L43.0251 44.6381L52.0977 40.7758L50.9226 38.0155L49.7476 35.2552L40.6749 39.1175L41.85 41.8778ZM45.3041 46.1187L47.6302 44.2242L44.1761 39.9832L41.85 41.8778L39.5239 43.7723L42.978 48.0133L45.3041 46.1187ZM36.231 49.9817L37.406 52.742L46.4787 48.8798L45.3036 46.1195L44.1285 43.3592L35.0559 47.2214L36.231 49.9817ZM41.8495 41.8785L39.3841 40.1691L33.7656 48.2723L36.231 49.9817L38.6963 51.6911L44.3148 43.5879L41.8495 41.8785ZM45.3036 46.1195L47.6297 44.2249L44.1756 39.984L41.8495 41.8785L39.5234 43.773L42.9775 48.014L45.3036 46.1195Z" fill="#16B364" mask="url(#path-3-outside-1_234_17022)"/>
<path d="M44 26.104L44 28.2093" stroke="#16B364" stroke-width="3" stroke-linecap="round"/>
<path d="M44 59.7891L44 61.8943" stroke="#16B364" stroke-width="3" stroke-linecap="round"/>
<path d="M59.7891 43.9634H61.8943" stroke="#16B364" stroke-width="3" stroke-linecap="round"/>
<path d="M26.1055 44.0366H28.2107" stroke="#16B364" stroke-width="3" stroke-linecap="round"/>
</svg>
