<svg width="88" height="88" viewBox="0 0 88 88" fill="none" xmlns="http://www.w3.org/2000/svg">
<rect width="88" height="88" rx="44" fill="#FDF2FA"/>
<path d="M36.446 35.3247C40.6906 30.8678 47.9425 30.8678 52.1872 35.3247C53.3024 36.4958 54.1469 37.703 54.6579 39.0806C55.1714 40.4652 55.3158 41.9352 55.1569 43.5835C54.839 46.8794 53.1214 48.8116 51.2448 50.688C50.4409 51.4919 49.8616 52.3741 49.4821 53.064C49.2938 53.4062 49.1585 53.6944 49.0719 53.8921C49.0287 53.9908 48.998 54.067 48.9792 54.1147C48.9698 54.1385 48.9631 54.1553 48.9596 54.1646L48.9567 54.1724C48.7639 54.7078 48.2555 55.0649 47.6862 55.0649H41.1003C40.6017 55.0649 40.1435 54.79 39.9088 54.3501L39.9079 54.3491C39.9064 54.3464 39.9038 54.3413 39.9001 54.3345C39.8926 54.3208 39.8812 54.2983 39.8649 54.269C39.8323 54.2105 39.7819 54.1223 39.7165 54.0103C39.5852 53.7856 39.3919 53.4669 39.1491 53.0981C38.6572 52.3513 37.9868 51.4397 37.235 50.688C35.4774 48.9306 33.7642 46.8225 33.4753 43.5728C33.3292 41.9301 33.4737 40.4646 33.9831 39.0825C34.4906 37.7058 35.3286 36.498 36.446 35.3247Z" stroke="#DD2590" stroke-width="2.7" stroke-linecap="round" stroke-linejoin="round"/>
<path d="M44.2194 40.1465L41.5855 43.9388H46.3265L44.2194 47.2571" stroke="#DD2590" stroke-width="2.7" stroke-linecap="round" stroke-linejoin="round"/>
<rect x="36.2468" y="55.4508" width="16.7008" height="5.89997" rx="2.94998" stroke="#DD2590" stroke-width="2.7"/>
<path d="M29.5904 29.9995L31.5905 31.9995" stroke="#DD2590" stroke-width="2.7" stroke-linecap="round" stroke-linejoin="round"/>
<path d="M55.5936 52.001L57.5937 54.001" stroke="#DD2590" stroke-width="2.7" stroke-linecap="round" stroke-linejoin="round"/>
<rect x="40.2355" y="61.5147" width="8.38044" height="3.83594" rx="1.91797" stroke="#DD2590" stroke-width="2.7"/>
<path d="M55.5947 28.0005L53.5946 30.0005" stroke="#DD2590" stroke-width="2.7" stroke-linecap="round" stroke-linejoin="round"/>
<path d="M33.5971 54L31.597 56" stroke="#DD2590" stroke-width="2.7" stroke-linecap="round" stroke-linejoin="round"/>
<path d="M42.9061 23.999L42.9245 26.8768" stroke="#DD2590" stroke-width="2.7" stroke-linecap="round" stroke-linejoin="round"/>
<path d="M62.4083 41.6549L59.5302 41.6733" stroke="#DD2590" stroke-width="2.7" stroke-linecap="round" stroke-linejoin="round"/>
<path d="M28.4699 43.4879L25.5918 43.5064" stroke="#DD2590" stroke-width="2.7" stroke-linecap="round" stroke-linejoin="round"/>
</svg>
