<svg width="88" height="88" viewBox="0 0 88 88" fill="none" xmlns="http://www.w3.org/2000/svg">
<rect width="88" height="88" rx="44" fill="#FEFBE8"/>
<path d="M54.9135 23.999H58.889C60.485 23.999 61.7788 25.3327 61.7788 26.9778V31.0758C61.7788 32.721 60.485 34.0547 58.889 34.0547H54.9135C53.3175 34.0547 52.0237 32.721 52.0237 31.0758V26.9778C52.0237 25.3327 53.3175 23.999 54.9135 23.999Z" stroke="#EAAA08" stroke-width="3"/>
<path d="M54.9135 38.9722H58.889C60.485 38.9722 61.7788 40.3058 61.7788 41.951V46.049C61.7788 47.6942 60.485 49.0278 58.889 49.0278H54.9135C53.3175 49.0278 52.0237 47.6942 52.0237 46.049V41.951C52.0237 40.3058 53.3175 38.9722 54.9135 38.9722Z" stroke="#EAAA08" stroke-width="3"/>
<path d="M54.9135 53.9458H58.889C60.485 53.9458 61.7788 55.2795 61.7788 56.9246V61.0226C61.7788 62.6678 60.485 64.0014 58.889 64.0014H54.9135C53.3175 64.0014 52.0237 62.6678 52.0237 61.0226V56.9246C52.0237 55.2795 53.3175 53.9458 54.9135 53.9458Z" stroke="#EAAA08" stroke-width="3"/>
<path d="M29.1109 38.1816H34.424C36.02 38.1816 37.3138 39.5153 37.3138 41.1605V46.6372C37.3138 48.2824 36.02 49.6161 34.424 49.6161H29.1109C27.5149 49.6161 26.2211 48.2824 26.2211 46.6372V41.1605C26.2211 39.5153 27.5149 38.1816 29.1109 38.1816Z" stroke="#EAAA08" stroke-width="3"/>
<path d="M37.9807 44.0997H51.1705M51.2675 29.3247H48.2084C47.3807 29.3566 45.7232 29.9162 45.7232 31.8865V38.091C45.7232 39.9634 44.5962 40.7506 43.1431 40.7506H37.9827M51.2675 58.9746H48.2084C47.3807 58.9427 45.7232 58.3831 45.7232 56.4128V50.2084C45.7232 48.336 44.5962 47.5487 43.1431 47.5487H37.9827" stroke="#EAAA08" stroke-width="3" stroke-linecap="round"/>
</svg>
