<svg width="48" height="48" viewBox="0 0 48 48" fill="none" xmlns="http://www.w3.org/2000/svg">
<circle cx="24" cy="24" r="24" fill="#E9EAEB"/>
<path d="M14 23.2637L23.4841 13.9631C24.7936 12.679 26.9167 12.679 28.2261 13.9631C29.5356 15.2472 29.5356 17.3293 28.2261 18.6134L21.0637 25.6373" stroke="#181D27" stroke-width="1.5" stroke-linecap="round"/>
<path d="M21.1621 25.5396L28.2257 18.6125C29.5353 17.3284 31.6583 17.3284 32.9679 18.6125L33.0172 18.661C34.3267 19.9451 34.3267 22.0271 33.0172 23.3113L24.4397 31.7228C24.0032 32.1509 24.0032 32.8448 24.4397 33.2728L26.201 35.0001" stroke="#181D27" stroke-width="1.5" stroke-linecap="round"/>
<path d="M25.8558 16.2871L18.8415 23.1657C17.532 24.4498 17.532 26.5318 18.8415 27.816C20.151 29.1001 22.274 29.1001 23.5835 27.816L30.5978 20.9374" stroke="#181D27" stroke-width="1.5" stroke-linecap="round"/>
</svg>
