<svg width="88" height="88" viewBox="0 0 88 88" fill="none" xmlns="http://www.w3.org/2000/svg">
<rect width="88.0011" height="88.0013" rx="44.0005" fill="#FEF6EE"/>
<path d="M49.2642 25.5C56.5747 25.5001 62.5004 31.4262 62.5006 38.7363C62.5006 46.0466 56.5748 51.9735 49.2642 51.9736C41.9536 51.9736 36.0269 46.0467 36.0269 38.7363C36.0271 31.4261 41.9537 25.5 49.2642 25.5Z" stroke="#F38744" stroke-width="3"/>
<path d="M55.5793 38.7358C56.6741 37.8192 56.7264 37.7743 56.7287 37.772V37.771L56.7268 37.77C56.7259 37.769 56.7251 37.7676 56.7239 37.7661C56.7212 37.7629 56.7175 37.7586 56.7131 37.7534C56.7043 37.743 56.6924 37.7283 56.677 37.7104C56.6461 37.6746 56.6019 37.6241 56.5461 37.561C56.4343 37.4347 56.2737 37.2567 56.0735 37.0454C55.6748 36.6247 55.1081 36.0602 54.4426 35.4907C53.7821 34.9255 52.9927 34.3287 52.1467 33.8667C51.3178 33.4141 50.316 33.0249 49.2629 33.0249C48.21 33.025 47.2089 33.4141 46.3801 33.8667C45.5341 34.3287 44.7448 34.9255 44.0842 35.4907C43.4187 36.0601 42.852 36.6247 42.4533 37.0454C42.2531 37.2567 42.0925 37.4347 41.9807 37.561C41.9249 37.6241 41.8807 37.6746 41.8498 37.7104C41.8344 37.7284 41.8225 37.743 41.8137 37.7534C41.8093 37.7586 41.8056 37.7629 41.803 37.7661L41.7981 37.771V37.772C41.8009 37.7748 41.8581 37.8237 42.9475 38.7358M55.5793 38.7358L56.7287 39.6987V39.6997L56.7268 39.7007C56.7259 39.7017 56.7251 39.7031 56.7239 39.7046C56.7212 39.7078 56.7175 39.7122 56.7131 39.7173C56.7043 39.7277 56.6924 39.7424 56.677 39.7603C56.6461 39.7961 56.6019 39.8466 56.5461 39.9097C56.4343 40.036 56.2737 40.214 56.0735 40.4253C55.6748 40.846 55.1081 41.4105 54.4426 41.98C53.7821 42.5452 52.9927 43.142 52.1467 43.604C51.3178 44.0566 50.316 44.4458 49.2629 44.4458C48.21 44.4457 47.2089 44.0566 46.3801 43.604C45.5341 43.142 44.7448 42.5452 44.0842 41.98C43.4187 41.4105 42.852 40.846 42.4533 40.4253C42.2531 40.214 42.0925 40.036 41.9807 39.9097C41.9249 39.8466 41.8807 39.7961 41.8498 39.7603C41.8344 39.7423 41.8225 39.7277 41.8137 39.7173C41.8093 39.7121 41.8056 39.7078 41.803 39.7046L41.7981 39.6997V39.6987L42.9475 38.7358M55.5793 38.7358L56.7297 39.6987L57.5354 38.7358L56.7297 37.772L55.5793 38.7358ZM42.9475 38.7358L41.7971 39.6987L40.9914 38.7358L41.7971 37.772L42.9475 38.7358Z" stroke="#F38744" stroke-width="3"/>
<ellipse cx="49.2626" cy="38.7356" rx="2.10529" ry="2.10524" fill="#F38744" stroke="#F38744"/>
<path d="M38.7371 54.5144L33.4871 49.2646C33.4871 49.2646 28.2369 54.5144 25.0872 57.6642C23.6375 59.1139 23.6374 61.4643 25.0872 62.9139C26.5369 64.3636 28.8877 64.3639 30.3371 62.9139C31.3867 61.864 38.7371 54.5144 38.7371 54.5144Z" stroke="#F38744" stroke-width="3" stroke-linecap="round" stroke-linejoin="round"/>
<path d="M36.6323 51.3688L39.7903 48.2109" stroke="#F38744" stroke-width="3" stroke-linecap="round" stroke-linejoin="round"/>
<path d="M30.3152 53.4751L34.5257 57.6856" stroke="#F38744" stroke-width="3" stroke-linecap="round" stroke-linejoin="round"/>
</svg>
