<svg width="62" height="62" viewBox="0 0 62 62" fill="none" xmlns="http://www.w3.org/2000/svg">
<rect width="62" height="62" rx="7.75" fill="#F4F3FF"/>
<path d="M32.4388 36.8982C31.6797 36.6742 31.1635 36.034 31.1635 35.3618C31.1635 34.6897 31.6797 34.0815 32.4388 33.8575C32.6817 33.7935 32.8335 33.5054 32.8032 33.2493C32.5603 32.1291 32.1655 31.0728 31.5886 30.0806C31.4368 29.8565 31.1635 29.7605 30.9206 29.8885C30.0704 30.3686 29.1291 30.2406 28.6737 29.5684C28.3397 29.0563 28.4004 28.3201 28.7951 27.712C28.8862 27.584 28.9166 27.4559 28.8862 27.3279C28.8558 27.1999 28.7951 27.0718 28.6737 26.9758C27.7324 26.3357 26.7 25.8555 25.5765 25.5995C25.4551 25.5675 25.3032 25.5995 25.2121 25.6635C25.0907 25.7275 25.03 25.8555 24.9996 25.9836C24.8174 26.8798 24.2101 27.4879 23.5118 27.4879C22.8134 27.4879 22.2365 26.8478 22.0543 25.9836C22.0239 25.8555 21.9632 25.7275 21.8417 25.6635C21.7203 25.5995 21.5988 25.5675 21.4774 25.5995C20.3842 25.8555 19.3519 26.3036 18.3802 26.9438C18.2588 27.0078 18.198 27.1358 18.1677 27.2959C18.1373 27.4239 18.1677 27.584 18.2588 27.712C18.6839 28.3521 18.7446 29.0883 18.4106 29.6325C17.9551 30.3046 16.9531 30.4326 16.1333 29.9205C15.8904 29.7925 15.6171 29.8565 15.4653 30.0806C14.8883 31.0728 14.4632 32.1291 14.2203 33.2813C14.1596 33.5694 14.3114 33.8255 14.5847 33.8895C15.4045 34.1135 15.9511 34.7537 15.9511 35.4579C15.9511 36.162 15.3742 36.7702 14.6151 36.9622C14.3418 37.0263 14.19 37.3143 14.2507 37.5704C14.4936 38.7227 14.9187 39.7789 15.4956 40.7712C15.6474 40.9952 15.9207 41.0912 16.1636 40.9312C16.9835 40.4191 17.9855 40.5471 18.4409 41.2193C18.7749 41.7314 18.7142 42.4676 18.2891 43.1077C18.198 43.2358 18.1677 43.3638 18.198 43.5238C18.2284 43.6519 18.2891 43.7799 18.4106 43.8759C19.3822 44.5161 20.4146 44.9642 21.5381 45.2202C21.5684 45.2202 21.5988 45.2202 21.6292 45.2202C21.8417 45.2202 22.0543 45.0602 22.115 44.8362C22.3275 44.004 22.9045 43.4278 23.5725 43.4278C23.5725 43.4278 23.5725 43.4278 23.6028 43.4278C24.2405 43.4278 24.8174 44.004 25.03 44.8041C25.0907 45.0602 25.364 45.2523 25.6069 45.1882C26.7 44.9322 27.7324 44.4841 28.6737 43.8119C28.7951 43.7479 28.8558 43.6199 28.8862 43.4918C28.9166 43.3638 28.8862 43.2038 28.7951 43.1077C28.4004 42.4996 28.3397 41.7634 28.6737 41.2513C29.0988 40.5791 30.0704 40.4511 30.8902 40.9312C31.1332 41.0592 31.4064 40.9952 31.5583 40.7392C32.1352 39.7469 32.5603 38.6586 32.8032 37.5384C32.8335 37.2503 32.6817 36.9622 32.4388 36.8982ZM23.5725 38.3066C22.0239 38.3066 20.779 36.9942 20.779 35.3618C20.779 33.7295 22.0239 32.4171 23.5725 32.4171C25.1211 32.4171 26.366 33.7295 26.366 35.3618C26.366 36.9942 25.0907 38.3066 23.5725 38.3066Z" stroke="#6221E6" stroke-width="1.55"/>
<path d="M41.1322 14.4938C40.7312 15.0179 40.145 15.2645 39.6514 15.0796C39.1578 14.8946 38.8801 14.3396 38.911 13.6922C38.9418 13.4763 38.7876 13.2913 38.5716 13.2605C37.677 13.1372 36.7823 13.168 35.9185 13.353C35.7025 13.3838 35.5791 13.5997 35.61 13.8155C35.7334 14.5863 35.3632 15.2954 34.7462 15.4495C34.2834 15.5728 33.7589 15.3262 33.4196 14.8637C33.327 14.7712 33.2345 14.7096 33.1419 14.6787C33.0185 14.6479 32.926 14.6787 32.8334 14.7404C32.093 15.2954 31.476 15.9737 30.9515 16.7444C30.8898 16.8369 30.859 16.9294 30.8898 17.0527C30.9207 17.1452 30.9824 17.2377 31.0749 17.2994C31.6611 17.6694 31.9388 18.3168 31.7536 18.8409C31.5685 19.3959 30.9515 19.7042 30.242 19.5809C30.1494 19.5501 30.026 19.5809 29.9335 19.6425C29.8409 19.7042 29.7792 19.7967 29.7792 19.92C29.6558 20.845 29.6867 21.7391 29.9026 22.6332C29.9335 22.7565 29.9952 22.849 30.0877 22.8798C30.1803 22.9415 30.3037 22.9415 30.3962 22.9106C30.9824 22.7257 31.5377 22.8798 31.8154 23.3114C32.1856 23.8356 32.0005 24.6372 31.3834 25.1305C31.2292 25.2538 31.1983 25.5005 31.3217 25.6854C31.8771 26.3946 32.5558 27.0112 33.2962 27.4736C33.4813 27.597 33.7281 27.5353 33.8515 27.3503C34.2217 26.7954 34.8696 26.5179 35.3632 26.7337C35.8568 26.9187 36.1653 27.5045 36.1036 28.1828C36.0727 28.3986 36.227 28.5836 36.4429 28.6144C37.3376 28.7377 38.2323 28.7069 39.127 28.4911C39.3429 28.4294 39.4663 28.2444 39.4355 28.0286C39.3121 27.2578 39.6823 26.5179 40.2993 26.3637C40.762 26.2404 41.2865 26.487 41.6259 26.9803C41.6876 27.0728 41.7801 27.1345 41.9035 27.1653C42.0269 27.1962 42.1195 27.1653 42.212 27.0728C42.9524 26.5179 43.5694 25.8088 44.0631 25.038C44.0631 25.0072 44.0939 24.9763 44.0939 24.9763C44.1556 24.8222 44.0939 24.6064 43.9397 24.5139C43.3843 24.1439 43.1375 23.5273 43.3226 23.034C43.5077 22.5407 44.0631 22.2324 44.7109 22.294C44.9269 22.3249 45.112 22.1707 45.1428 21.9549C45.2662 21.0299 45.2045 20.1358 45.0194 19.2417C44.9886 19.1493 44.9269 19.0568 44.8343 18.9951C44.7418 18.9334 44.6184 18.9334 44.5258 18.9643C43.9705 19.1184 43.4152 18.9643 43.1375 18.5635C42.7673 18.0393 42.9524 17.2686 43.5386 16.7753C43.6928 16.6211 43.7237 16.4053 43.6003 16.2203C43.045 15.5112 42.3663 14.8946 41.595 14.4013C41.4716 14.2779 41.2556 14.3396 41.1322 14.4938ZM39.6514 21.7082C39.2195 22.9106 37.8929 23.4964 36.7206 23.0648C35.5174 22.6332 34.9313 21.3074 35.3632 20.1358C35.7951 18.9334 37.1217 18.3476 38.294 18.7793C39.4663 19.2109 40.0833 20.5058 39.6514 21.7082Z" stroke="#6221E6" stroke-width="1.55"/>
</svg>
