<svg width="62" height="62" viewBox="0 0 62 62" fill="none" xmlns="http://www.w3.org/2000/svg">
<rect width="61.6982" height="61.6982" rx="7.71228" fill="#F4F3FF"/>
<path fill-rule="evenodd" clip-rule="evenodd" d="M38.5427 22.514C40.215 24.1863 40.215 26.8997 38.5427 28.572C36.8704 30.2443 34.157 30.2443 32.4847 28.572C30.8124 26.8997 30.8124 24.1863 32.4847 22.514C34.157 20.8417 36.8704 20.8417 38.5427 22.514ZM37.1789 23.8778C36.2598 22.9574 34.7675 22.9574 33.8485 23.8778C32.9281 24.7968 32.9281 26.2891 33.8485 27.2082C34.7675 28.1285 36.2598 28.1285 37.1789 27.2082C38.0992 26.2891 38.0992 24.7968 37.1789 23.8778Z" fill="#6221E6"/>
<path fill-rule="evenodd" clip-rule="evenodd" d="M43.9519 17.7638C43.9519 17.7638 46.4365 26.1985 38.9543 33.6794C35.593 37.0407 31.1585 39.5086 27.6237 40.1191C27.3126 40.1718 26.9951 40.0703 26.7728 39.8454L20.8202 33.8092C20.5978 33.583 20.5001 33.2616 20.5605 32.9506C21.2315 29.4698 24.0426 25.4388 27.3782 22.1033C34.8591 14.6211 43.2938 17.1057 43.2938 17.1057C43.6112 17.1982 43.8593 17.4463 43.9519 17.7638ZM42.2166 18.841C40.3939 18.5093 34.2832 17.9258 28.742 23.4658C25.8537 26.354 23.3331 29.7744 22.5619 32.8298C22.5619 32.8298 27.7818 38.1229 27.7831 38.1229C30.913 37.4327 34.683 35.2244 37.5918 32.3156C43.1318 26.7743 42.5482 20.6636 42.2166 18.841Z" fill="#6221E6"/>
<path fill-rule="evenodd" clip-rule="evenodd" d="M18.9991 29.0867L22.1868 29.6176C22.7112 29.705 23.0673 30.2024 22.9786 30.7269C22.8912 31.2526 22.395 31.6074 21.8693 31.52L18.1584 30.9017C17.589 30.8066 17.1121 30.4145 16.909 29.8734C16.7047 29.3322 16.8049 28.7243 17.1712 28.2757L20.3294 24.4157C20.7163 23.9426 21.278 23.6444 21.886 23.5892L26.5018 23.1701C27.0314 23.1213 27.5006 23.5133 27.5494 24.0429C27.597 24.5725 27.2062 25.0416 26.6766 25.0905L22.0608 25.5095C21.967 25.5185 21.8809 25.5635 21.8217 25.6368L18.9991 29.0867Z" fill="#6221E6"/>
<path fill-rule="evenodd" clip-rule="evenodd" d="M31.9708 42.0582L35.4207 39.2355C35.494 39.1764 35.539 39.0902 35.548 38.9964L35.967 34.3806C36.0159 33.851 36.485 33.4603 37.0146 33.5078C37.5442 33.5567 37.9362 34.0258 37.8874 34.5554L37.4683 39.1712C37.4131 39.7792 37.1149 40.3409 36.6418 40.7278L32.7818 43.886C32.3332 44.2523 31.7253 44.3526 31.1841 44.1482C30.643 43.9451 30.2509 43.4682 30.1558 42.8988L29.4039 38.382C29.3165 37.8576 29.6712 37.3601 30.1957 37.2727C30.7214 37.1853 31.2175 37.5413 31.3049 38.0658L31.9708 42.0582Z" fill="#6221E6"/>
<path fill-rule="evenodd" clip-rule="evenodd" d="M23.095 29.5115C22.7183 29.1349 22.7183 28.5243 23.095 28.1477C23.4716 27.7711 24.0821 27.7711 24.4588 28.1477L32.9088 36.5978C33.2855 36.9744 33.2855 37.585 32.9088 37.9616C32.5322 38.3382 31.9217 38.3382 31.5451 37.9616L23.095 29.5115Z" fill="#6221E6"/>
<path fill-rule="evenodd" clip-rule="evenodd" d="M24.9733 40.3538C25.3499 39.9784 25.9605 39.9784 26.3371 40.3538C26.7124 40.7304 26.7124 41.3409 26.3371 41.7176L23.9887 44.0647C23.6134 44.4413 23.0015 44.4413 22.6262 44.0647C22.2496 43.6893 22.2496 43.0775 22.6262 42.7022L24.9733 40.3538Z" fill="#6221E6"/>
<path fill-rule="evenodd" clip-rule="evenodd" d="M21.2176 38.4768C21.5942 38.1015 22.2048 38.1015 22.5814 38.4768C22.9567 38.8534 22.9567 39.464 22.5814 39.8406L19.2947 43.1273C18.9181 43.5039 18.3075 43.5039 17.9309 43.1273C17.5543 42.7507 17.5543 42.1401 17.9309 41.7635L21.2176 38.4768Z" fill="#6221E6"/>
<path fill-rule="evenodd" clip-rule="evenodd" d="M19.3386 34.721C19.7152 34.3456 20.3257 34.3456 20.7023 34.721C21.0777 35.0976 21.0777 35.7081 20.7023 36.0847L18.3539 38.4318C17.9786 38.8085 17.3668 38.8085 16.9914 38.4318C16.6148 38.0565 16.6148 37.4447 16.9914 37.0693L19.3386 34.721Z" fill="#6221E6"/>
</svg>
