<svg width="20" height="20" viewBox="0 0 20 20" fill="none" xmlns="http://www.w3.org/2000/svg">
<path d="M16.5626 9.37473C17.4255 9.37473 18.125 8.67524 18.125 7.81237C18.125 6.9495 17.4254 6.25 16.5626 6.25C15.6996 6.25 15 6.94956 15 7.8125V9.37473H16.5626ZM12.1875 9.37473C13.0504 9.37473 13.75 8.67518 13.75 7.81223V3.4375C13.75 2.57456 13.0504 1.875 12.1875 1.875C11.3246 1.875 10.625 2.57456 10.625 3.4375V7.81223C10.625 8.67518 11.3246 9.37473 12.1875 9.37473Z" fill="#2EB67D"/>
<path d="M3.43737 10.6253C2.5745 10.6253 1.875 11.3248 1.875 12.1876C1.875 13.0505 2.57456 13.75 3.43743 13.75C4.30038 13.75 5 13.0504 5 12.1875V10.6253H3.43737ZM7.8125 10.6253C6.94956 10.6253 6.25 11.3248 6.25 12.1878V16.5625C6.25 17.4254 6.94956 18.125 7.8125 18.125C8.67544 18.125 9.375 17.4254 9.375 16.5625V12.1878C9.375 11.3248 8.67544 10.6253 7.8125 10.6253Z" fill="#E01E5A"/>
<path d="M10.6251 16.5626C10.6251 17.4255 11.3246 18.125 12.1875 18.125C13.0504 18.125 13.7499 17.4254 13.7499 16.5626C13.7499 15.6996 13.0503 15 12.1874 15L10.6251 15L10.6251 16.5626ZM10.6251 12.1875C10.6251 13.0504 11.3247 13.75 12.1876 13.75L16.5624 13.75C17.4253 13.75 18.1249 13.0504 18.1249 12.1875C18.1249 11.3246 17.4253 10.625 16.5624 10.625L12.1876 10.625C11.3247 10.625 10.6251 11.3246 10.6251 12.1875Z" fill="#ECB22E"/>
<path d="M9.37485 3.43737C9.37485 2.5745 8.67536 1.875 7.81249 1.875C6.94962 1.875 6.25012 2.57456 6.25012 3.43743C6.25012 4.30038 6.94968 5 7.81262 5L9.37485 5L9.37485 3.43737ZM9.37485 7.8125C9.37485 6.94956 8.6753 6.25 7.81235 6.25L3.43762 6.25C2.57468 6.25 1.87512 6.94956 1.87512 7.8125C1.87512 8.67544 2.57468 9.375 3.43762 9.375L7.81235 9.375C8.6753 9.375 9.37485 8.67545 9.37485 7.8125Z" fill="#36C5F0"/>
</svg>
