<svg width="62" height="62" viewBox="0 0 62 62" fill="none" xmlns="http://www.w3.org/2000/svg">
<rect width="62" height="62" rx="7.75" fill="#F4F3FF"/>
<path d="M18.7365 39.7793C17.8663 38.3615 17.2252 36.8522 16.8588 35.2058C16.7672 34.8399 16.9962 34.4283 17.4084 34.3368C18.5533 34.0624 19.4234 33.1934 19.4234 32.1873C19.4234 31.1811 18.5991 30.2664 17.3626 29.9463C16.9504 29.8548 16.7214 29.4889 16.813 29.0773C17.1794 27.4309 17.8205 25.9216 18.6907 24.5038C18.9197 24.1837 19.3318 24.0922 19.6982 24.2752C20.9347 25.0069 22.446 24.824 23.1329 23.8635C23.6367 23.086 23.5451 22.0341 22.904 21.1194C22.7666 20.9365 22.7208 20.7078 22.7666 20.5249C22.8124 20.2962 22.904 20.1133 23.0872 20.0218C24.5526 19.1071 26.1097 18.4668 27.7584 18.101C27.9416 18.0552 28.1248 18.1009 28.308 18.1924C28.4912 18.2839 28.5827 18.4668 28.6285 18.6498C28.9033 19.8846 29.7735 20.7993 30.8268 20.7993C31.8801 20.7993 32.796 19.9303 33.0708 18.6498C33.1166 18.4668 33.2082 18.2839 33.3914 18.1924C33.5288 18.1009 33.7578 18.0552 33.941 18.101C35.6354 18.4668 37.1925 19.1529 38.6122 20.0675C38.7954 20.2048 38.887 20.3877 38.9328 20.5706C38.9786 20.7536 38.9328 20.9365 38.7954 21.1194C38.2 21.9884 38.1084 23.0403 38.6122 23.7721C39.2992 24.7325 40.7189 24.9154 42.0012 24.2294C42.3675 24.0465 42.7797 24.1837 43.0087 24.5038C43.8788 25.9216 44.4742 27.4309 44.8405 29.0316C44.8863 29.3974 44.6574 29.8091 44.291 29.9005C43.1461 30.2207 42.3675 31.0896 42.3675 32.0501C42.3675 33.0105 43.1461 33.9252 44.291 34.2453C44.6574 34.3368 44.8863 34.7484 44.8405 35.16C44.4742 36.7608 43.833 38.3157 42.9629 39.7335" stroke="#6221E6" stroke-width="2.325" stroke-linecap="round"/>
<path d="M30.8183 28.6035V43.2946" stroke="#6221E6" stroke-width="2.325" stroke-linecap="round" stroke-linejoin="round"/>
<path d="M25.0996 34.3488L30.8194 28.6025L36.5392 34.3488" stroke="#6221E6" stroke-width="2.325" stroke-linecap="round" stroke-linejoin="round"/>
</svg>
