<svg width="20" height="20" viewBox="0 0 20 20" fill="none" xmlns="http://www.w3.org/2000/svg">
<path d="M1.40282 6.21319C1.48315 4.97646 2.47747 4.00723 3.71529 3.9459C5.50774 3.8571 8.06967 3.75 10 3.75C11.9303 3.75 14.4923 3.8571 16.2847 3.9459C17.5225 4.00723 18.5169 4.97646 18.5972 6.21319C18.6741 7.39808 18.75 8.85604 18.75 10C18.75 11.144 18.6741 12.6019 18.5972 13.7868C18.5169 15.0235 17.5225 15.9928 16.2847 16.0541C14.4923 16.1429 11.9303 16.25 10 16.25C8.06967 16.25 5.50774 16.1429 3.71529 16.0541C2.47747 15.9928 1.48315 15.0235 1.40282 13.7868C1.32585 12.6019 1.25 11.144 1.25 10C1.25 8.85604 1.32585 7.39808 1.40282 6.21319Z" fill="#FC0D1B"/>
<path d="M8.125 7.5V12.5L13.125 10L8.125 7.5Z" fill="white"/>
</svg>
